G04 #@! TF.GenerationSoftware,KiCad,Pcbnew,(5.1.9)-1*
G04 #@! TF.CreationDate,2021-03-07T21:45:31-03:00*
G04 #@! TF.ProjectId,V0_Display,56305f44-6973-4706-9c61-792e6b696361,rev?*
G04 #@! TF.SameCoordinates,Original*
G04 #@! TF.FileFunction,Soldermask,Top*
G04 #@! TF.FilePolarity,Negative*
%FSLAX46Y46*%
G04 Gerber Fmt 4.6, Leading zero omitted, Abs format (unit mm)*
G04 Created by KiCad (PCBNEW (5.1.9)-1) date 2021-03-07 21:45:31*
%MOMM*%
%LPD*%
G01*
G04 APERTURE LIST*
G04 #@! TA.AperFunction,Profile*
%ADD10C,0.050000*%
G04 #@! TD*
%ADD11C,1.524000*%
%ADD12R,1.500000X1.000000*%
%ADD13O,2.500000X4.000000*%
%ADD14C,2.000000*%
%ADD15O,1.700000X1.700000*%
%ADD16R,1.700000X1.700000*%
%ADD17O,1.100000X2.200000*%
%ADD18O,1.100000X2.000000*%
%ADD19O,1.900000X1.200000*%
%ADD20C,3.200000*%
%ADD21O,1.000000X1.000000*%
%ADD22R,1.000000X1.000000*%
%ADD23C,2.300000*%
G04 APERTURE END LIST*
D10*
X85170000Y-84650000D02*
X85170000Y-49650000D01*
X165170000Y-84650000D02*
X85170000Y-84650000D01*
X165170000Y-49650000D02*
X165170000Y-84650000D01*
X85170000Y-49650000D02*
X165170000Y-49650000D01*
D11*
X117280000Y-52850000D03*
X114740000Y-52850000D03*
X112200000Y-52850000D03*
X109660000Y-52850000D03*
D12*
X157470000Y-60550000D03*
X157470000Y-63750000D03*
X162370000Y-60550000D03*
X162370000Y-63750000D03*
D13*
X149500000Y-67150000D03*
X139340000Y-67150000D03*
D14*
X146920000Y-60150000D03*
X141920000Y-60150000D03*
X146920000Y-74650000D03*
X144420000Y-74650000D03*
X141920000Y-74650000D03*
X163170000Y-69900000D03*
X163170000Y-74400000D03*
X156670000Y-69900000D03*
X156670000Y-74400000D03*
X101852000Y-78605400D03*
X101852000Y-83105400D03*
X108352000Y-78605400D03*
X108352000Y-83105400D03*
D15*
X150575000Y-60445000D03*
D16*
X153115000Y-60445000D03*
D15*
X94670000Y-63340000D03*
X94670000Y-65880000D03*
X94670000Y-68420000D03*
D16*
X94670000Y-70960000D03*
D17*
X87350500Y-67150000D03*
D18*
X89382500Y-69944000D03*
D19*
X86682500Y-63650000D03*
X86682500Y-70650000D03*
D18*
X89382500Y-64356000D03*
D20*
X89170000Y-80650000D03*
X161170000Y-55650000D03*
X161170000Y-80650000D03*
X89170000Y-55650000D03*
D15*
X155400000Y-82347200D03*
X152860000Y-82347200D03*
X150320000Y-82347200D03*
X147780000Y-82347200D03*
X145240000Y-82347200D03*
X142700000Y-82347200D03*
X140160000Y-82347200D03*
X137620000Y-82347200D03*
X135080000Y-82347200D03*
X132540000Y-82347200D03*
D16*
X130000000Y-82347200D03*
D15*
X148712600Y-55008800D03*
X148712600Y-52468800D03*
X146172600Y-55008800D03*
X146172600Y-52468800D03*
X143632600Y-55008800D03*
D16*
X143632600Y-52468800D03*
D21*
X120747200Y-82550400D03*
X120747200Y-81280400D03*
X119477200Y-82550400D03*
X119477200Y-81280400D03*
X118207200Y-82550400D03*
X118207200Y-81280400D03*
X116937200Y-82550400D03*
X116937200Y-81280400D03*
X115667200Y-82550400D03*
D22*
X115667200Y-81280400D03*
D23*
X131032000Y-53865800D03*
X126132000Y-53865800D03*
M02*
