G04 #@! TF.GenerationSoftware,KiCad,Pcbnew,(5.1.9)-1*
G04 #@! TF.CreationDate,2021-03-07T21:45:31-03:00*
G04 #@! TF.ProjectId,V0_Display,56305f44-6973-4706-9c61-792e6b696361,rev?*
G04 #@! TF.SameCoordinates,Original*
G04 #@! TF.FileFunction,Soldermask,Bot*
G04 #@! TF.FilePolarity,Negative*
%FSLAX46Y46*%
G04 Gerber Fmt 4.6, Leading zero omitted, Abs format (unit mm)*
G04 Created by KiCad (PCBNEW (5.1.9)-1) date 2021-03-07 21:45:31*
%MOMM*%
%LPD*%
G01*
G04 APERTURE LIST*
G04 #@! TA.AperFunction,Profile*
%ADD10C,0.050000*%
G04 #@! TD*
%ADD11C,1.524000*%
%ADD12O,2.500000X4.000000*%
%ADD13C,2.000000*%
%ADD14R,1.000000X1.500000*%
%ADD15O,1.700000X1.700000*%
%ADD16R,1.700000X1.700000*%
%ADD17O,1.100000X2.200000*%
%ADD18O,1.100000X2.000000*%
%ADD19R,1.900000X1.200000*%
%ADD20O,1.900000X1.200000*%
%ADD21R,1.900000X1.500000*%
%ADD22R,1.350000X0.400000*%
%ADD23C,3.200000*%
%ADD24O,1.000000X1.000000*%
%ADD25R,1.000000X1.000000*%
%ADD26R,0.550000X1.500000*%
%ADD27R,1.500000X0.550000*%
%ADD28C,2.300000*%
G04 APERTURE END LIST*
D10*
X85170000Y-84650000D02*
X85170000Y-49650000D01*
X165170000Y-84650000D02*
X85170000Y-84650000D01*
X165170000Y-49650000D02*
X165170000Y-84650000D01*
X85170000Y-49650000D02*
X165170000Y-49650000D01*
D11*
X117280000Y-52850000D03*
X114740000Y-52850000D03*
X112200000Y-52850000D03*
X109660000Y-52850000D03*
D12*
X149500000Y-67150000D03*
X139340000Y-67150000D03*
D13*
X146920000Y-60150000D03*
X141920000Y-60150000D03*
X146920000Y-74650000D03*
X144420000Y-74650000D03*
X141920000Y-74650000D03*
X163170000Y-69900000D03*
X163170000Y-74400000D03*
X156670000Y-69900000D03*
X156670000Y-74400000D03*
X101852000Y-78605400D03*
X101852000Y-83105400D03*
X108352000Y-78605400D03*
X108352000Y-83105400D03*
G36*
G01*
X100550000Y-68876250D02*
X100550000Y-67963750D01*
G75*
G02*
X100793750Y-67720000I243750J0D01*
G01*
X101281250Y-67720000D01*
G75*
G02*
X101525000Y-67963750I0J-243750D01*
G01*
X101525000Y-68876250D01*
G75*
G02*
X101281250Y-69120000I-243750J0D01*
G01*
X100793750Y-69120000D01*
G75*
G02*
X100550000Y-68876250I0J243750D01*
G01*
G37*
G36*
G01*
X98675000Y-68876250D02*
X98675000Y-67963750D01*
G75*
G02*
X98918750Y-67720000I243750J0D01*
G01*
X99406250Y-67720000D01*
G75*
G02*
X99650000Y-67963750I0J-243750D01*
G01*
X99650000Y-68876250D01*
G75*
G02*
X99406250Y-69120000I-243750J0D01*
G01*
X98918750Y-69120000D01*
G75*
G02*
X98675000Y-68876250I0J243750D01*
G01*
G37*
G36*
G01*
X94213750Y-78117900D02*
X95126250Y-78117900D01*
G75*
G02*
X95370000Y-78361650I0J-243750D01*
G01*
X95370000Y-78849150D01*
G75*
G02*
X95126250Y-79092900I-243750J0D01*
G01*
X94213750Y-79092900D01*
G75*
G02*
X93970000Y-78849150I0J243750D01*
G01*
X93970000Y-78361650D01*
G75*
G02*
X94213750Y-78117900I243750J0D01*
G01*
G37*
G36*
G01*
X94213750Y-76242900D02*
X95126250Y-76242900D01*
G75*
G02*
X95370000Y-76486650I0J-243750D01*
G01*
X95370000Y-76974150D01*
G75*
G02*
X95126250Y-77217900I-243750J0D01*
G01*
X94213750Y-77217900D01*
G75*
G02*
X93970000Y-76974150I0J243750D01*
G01*
X93970000Y-76486650D01*
G75*
G02*
X94213750Y-76242900I243750J0D01*
G01*
G37*
D14*
X102950000Y-54730000D03*
X104250000Y-54730000D03*
X101650000Y-54730000D03*
X102950000Y-57270000D03*
X101650000Y-57270000D03*
X104250000Y-57270000D03*
D15*
X150575000Y-60445000D03*
D16*
X153115000Y-60445000D03*
D15*
X94670000Y-63340000D03*
X94670000Y-65880000D03*
X94670000Y-68420000D03*
D16*
X94670000Y-70960000D03*
D17*
X87350500Y-67150000D03*
D18*
X89382500Y-69944000D03*
D19*
X86682500Y-70050000D03*
X86682500Y-64250000D03*
D20*
X86682500Y-63650000D03*
X86682500Y-70650000D03*
D21*
X86682500Y-68150000D03*
D18*
X89382500Y-64356000D03*
D22*
X89382500Y-67150000D03*
X89382500Y-66500000D03*
X89382500Y-65850000D03*
X89382500Y-68450000D03*
X89382500Y-67800000D03*
D21*
X86682500Y-66150000D03*
D23*
X89170000Y-80650000D03*
X161170000Y-55650000D03*
X161170000Y-80650000D03*
X89170000Y-55650000D03*
G36*
G01*
X135875750Y-55244300D02*
X136788250Y-55244300D01*
G75*
G02*
X137032000Y-55488050I0J-243750D01*
G01*
X137032000Y-55975550D01*
G75*
G02*
X136788250Y-56219300I-243750J0D01*
G01*
X135875750Y-56219300D01*
G75*
G02*
X135632000Y-55975550I0J243750D01*
G01*
X135632000Y-55488050D01*
G75*
G02*
X135875750Y-55244300I243750J0D01*
G01*
G37*
G36*
G01*
X135875750Y-53369300D02*
X136788250Y-53369300D01*
G75*
G02*
X137032000Y-53613050I0J-243750D01*
G01*
X137032000Y-54100550D01*
G75*
G02*
X136788250Y-54344300I-243750J0D01*
G01*
X135875750Y-54344300D01*
G75*
G02*
X135632000Y-54100550I0J243750D01*
G01*
X135632000Y-53613050D01*
G75*
G02*
X135875750Y-53369300I243750J0D01*
G01*
G37*
G36*
G01*
X117840150Y-59250000D02*
X118752650Y-59250000D01*
G75*
G02*
X118996400Y-59493750I0J-243750D01*
G01*
X118996400Y-59981250D01*
G75*
G02*
X118752650Y-60225000I-243750J0D01*
G01*
X117840150Y-60225000D01*
G75*
G02*
X117596400Y-59981250I0J243750D01*
G01*
X117596400Y-59493750D01*
G75*
G02*
X117840150Y-59250000I243750J0D01*
G01*
G37*
G36*
G01*
X117840150Y-57375000D02*
X118752650Y-57375000D01*
G75*
G02*
X118996400Y-57618750I0J-243750D01*
G01*
X118996400Y-58106250D01*
G75*
G02*
X118752650Y-58350000I-243750J0D01*
G01*
X117840150Y-58350000D01*
G75*
G02*
X117596400Y-58106250I0J243750D01*
G01*
X117596400Y-57618750D01*
G75*
G02*
X117840150Y-57375000I243750J0D01*
G01*
G37*
G36*
G01*
X111446400Y-68584250D02*
X111446400Y-67671750D01*
G75*
G02*
X111690150Y-67428000I243750J0D01*
G01*
X112177650Y-67428000D01*
G75*
G02*
X112421400Y-67671750I0J-243750D01*
G01*
X112421400Y-68584250D01*
G75*
G02*
X112177650Y-68828000I-243750J0D01*
G01*
X111690150Y-68828000D01*
G75*
G02*
X111446400Y-68584250I0J243750D01*
G01*
G37*
G36*
G01*
X109571400Y-68584250D02*
X109571400Y-67671750D01*
G75*
G02*
X109815150Y-67428000I243750J0D01*
G01*
X110302650Y-67428000D01*
G75*
G02*
X110546400Y-67671750I0J-243750D01*
G01*
X110546400Y-68584250D01*
G75*
G02*
X110302650Y-68828000I-243750J0D01*
G01*
X109815150Y-68828000D01*
G75*
G02*
X109571400Y-68584250I0J243750D01*
G01*
G37*
G36*
G01*
X111446400Y-73524450D02*
X111446400Y-72611950D01*
G75*
G02*
X111690150Y-72368200I243750J0D01*
G01*
X112177650Y-72368200D01*
G75*
G02*
X112421400Y-72611950I0J-243750D01*
G01*
X112421400Y-73524450D01*
G75*
G02*
X112177650Y-73768200I-243750J0D01*
G01*
X111690150Y-73768200D01*
G75*
G02*
X111446400Y-73524450I0J243750D01*
G01*
G37*
G36*
G01*
X109571400Y-73524450D02*
X109571400Y-72611950D01*
G75*
G02*
X109815150Y-72368200I243750J0D01*
G01*
X110302650Y-72368200D01*
G75*
G02*
X110546400Y-72611950I0J-243750D01*
G01*
X110546400Y-73524450D01*
G75*
G02*
X110302650Y-73768200I-243750J0D01*
G01*
X109815150Y-73768200D01*
G75*
G02*
X109571400Y-73524450I0J243750D01*
G01*
G37*
G36*
G01*
X120375750Y-53369300D02*
X121288250Y-53369300D01*
G75*
G02*
X121532000Y-53613050I0J-243750D01*
G01*
X121532000Y-54100550D01*
G75*
G02*
X121288250Y-54344300I-243750J0D01*
G01*
X120375750Y-54344300D01*
G75*
G02*
X120132000Y-54100550I0J243750D01*
G01*
X120132000Y-53613050D01*
G75*
G02*
X120375750Y-53369300I243750J0D01*
G01*
G37*
G36*
G01*
X120375750Y-55244300D02*
X121288250Y-55244300D01*
G75*
G02*
X121532000Y-55488050I0J-243750D01*
G01*
X121532000Y-55975550D01*
G75*
G02*
X121288250Y-56219300I-243750J0D01*
G01*
X120375750Y-56219300D01*
G75*
G02*
X120132000Y-55975550I0J243750D01*
G01*
X120132000Y-55488050D01*
G75*
G02*
X120375750Y-55244300I243750J0D01*
G01*
G37*
G36*
G01*
X110510050Y-62864600D02*
X109597550Y-62864600D01*
G75*
G02*
X109353800Y-62620850I0J243750D01*
G01*
X109353800Y-62133350D01*
G75*
G02*
X109597550Y-61889600I243750J0D01*
G01*
X110510050Y-61889600D01*
G75*
G02*
X110753800Y-62133350I0J-243750D01*
G01*
X110753800Y-62620850D01*
G75*
G02*
X110510050Y-62864600I-243750J0D01*
G01*
G37*
G36*
G01*
X110510050Y-64739600D02*
X109597550Y-64739600D01*
G75*
G02*
X109353800Y-64495850I0J243750D01*
G01*
X109353800Y-64008350D01*
G75*
G02*
X109597550Y-63764600I243750J0D01*
G01*
X110510050Y-63764600D01*
G75*
G02*
X110753800Y-64008350I0J-243750D01*
G01*
X110753800Y-64495850D01*
G75*
G02*
X110510050Y-64739600I-243750J0D01*
G01*
G37*
D15*
X155400000Y-82347200D03*
X152860000Y-82347200D03*
X150320000Y-82347200D03*
X147780000Y-82347200D03*
X145240000Y-82347200D03*
X142700000Y-82347200D03*
X140160000Y-82347200D03*
X137620000Y-82347200D03*
X135080000Y-82347200D03*
X132540000Y-82347200D03*
D16*
X130000000Y-82347200D03*
D15*
X148712600Y-55008800D03*
X148712600Y-52468800D03*
X146172600Y-55008800D03*
X146172600Y-52468800D03*
X143632600Y-55008800D03*
D16*
X143632600Y-52468800D03*
D24*
X120747200Y-82550400D03*
X120747200Y-81280400D03*
X119477200Y-82550400D03*
X119477200Y-81280400D03*
X118207200Y-82550400D03*
X118207200Y-81280400D03*
X116937200Y-82550400D03*
X116937200Y-81280400D03*
X115667200Y-82550400D03*
D25*
X115667200Y-81280400D03*
G36*
G01*
X99650000Y-65423750D02*
X99650000Y-66336250D01*
G75*
G02*
X99406250Y-66580000I-243750J0D01*
G01*
X98918750Y-66580000D01*
G75*
G02*
X98675000Y-66336250I0J243750D01*
G01*
X98675000Y-65423750D01*
G75*
G02*
X98918750Y-65180000I243750J0D01*
G01*
X99406250Y-65180000D01*
G75*
G02*
X99650000Y-65423750I0J-243750D01*
G01*
G37*
G36*
G01*
X101525000Y-65423750D02*
X101525000Y-66336250D01*
G75*
G02*
X101281250Y-66580000I-243750J0D01*
G01*
X100793750Y-66580000D01*
G75*
G02*
X100550000Y-66336250I0J243750D01*
G01*
X100550000Y-65423750D01*
G75*
G02*
X100793750Y-65180000I243750J0D01*
G01*
X101281250Y-65180000D01*
G75*
G02*
X101525000Y-65423750I0J-243750D01*
G01*
G37*
G36*
G01*
X128999600Y-76039050D02*
X128999600Y-75126550D01*
G75*
G02*
X129243350Y-74882800I243750J0D01*
G01*
X129730850Y-74882800D01*
G75*
G02*
X129974600Y-75126550I0J-243750D01*
G01*
X129974600Y-76039050D01*
G75*
G02*
X129730850Y-76282800I-243750J0D01*
G01*
X129243350Y-76282800D01*
G75*
G02*
X128999600Y-76039050I0J243750D01*
G01*
G37*
G36*
G01*
X130874600Y-76039050D02*
X130874600Y-75126550D01*
G75*
G02*
X131118350Y-74882800I243750J0D01*
G01*
X131605850Y-74882800D01*
G75*
G02*
X131849600Y-75126550I0J-243750D01*
G01*
X131849600Y-76039050D01*
G75*
G02*
X131605850Y-76282800I-243750J0D01*
G01*
X131118350Y-76282800D01*
G75*
G02*
X130874600Y-76039050I0J243750D01*
G01*
G37*
D26*
X116696400Y-74628000D03*
X117496400Y-74628000D03*
X118296400Y-74628000D03*
X119096400Y-74628000D03*
X119896400Y-74628000D03*
X120696400Y-74628000D03*
X121496400Y-74628000D03*
X122296400Y-74628000D03*
X123096400Y-74628000D03*
X123896400Y-74628000D03*
X124696400Y-74628000D03*
D27*
X126396400Y-72928000D03*
X126396400Y-72128000D03*
X126396400Y-71328000D03*
X126396400Y-70528000D03*
X126396400Y-69728000D03*
X126396400Y-68928000D03*
X126396400Y-68128000D03*
X126396400Y-67328000D03*
X126396400Y-66528000D03*
X126396400Y-65728000D03*
X126396400Y-64928000D03*
D26*
X124696400Y-63228000D03*
X123896400Y-63228000D03*
X123096400Y-63228000D03*
X122296400Y-63228000D03*
X121496400Y-63228000D03*
X120696400Y-63228000D03*
X119896400Y-63228000D03*
X119096400Y-63228000D03*
X118296400Y-63228000D03*
X117496400Y-63228000D03*
X116696400Y-63228000D03*
D27*
X114996400Y-64928000D03*
X114996400Y-65728000D03*
X114996400Y-66528000D03*
X114996400Y-67328000D03*
X114996400Y-68128000D03*
X114996400Y-68928000D03*
X114996400Y-69728000D03*
X114996400Y-70528000D03*
X114996400Y-71328000D03*
X114996400Y-72128000D03*
X114996400Y-72928000D03*
D28*
X131032000Y-53865800D03*
X126132000Y-53865800D03*
G36*
G01*
X130846900Y-66184250D02*
X130846900Y-65271750D01*
G75*
G02*
X131090650Y-65028000I243750J0D01*
G01*
X131578150Y-65028000D01*
G75*
G02*
X131821900Y-65271750I0J-243750D01*
G01*
X131821900Y-66184250D01*
G75*
G02*
X131578150Y-66428000I-243750J0D01*
G01*
X131090650Y-66428000D01*
G75*
G02*
X130846900Y-66184250I0J243750D01*
G01*
G37*
G36*
G01*
X128971900Y-66184250D02*
X128971900Y-65271750D01*
G75*
G02*
X129215650Y-65028000I243750J0D01*
G01*
X129703150Y-65028000D01*
G75*
G02*
X129946900Y-65271750I0J-243750D01*
G01*
X129946900Y-66184250D01*
G75*
G02*
X129703150Y-66428000I-243750J0D01*
G01*
X129215650Y-66428000D01*
G75*
G02*
X128971900Y-66184250I0J243750D01*
G01*
G37*
G36*
G01*
X124240150Y-76771700D02*
X125152650Y-76771700D01*
G75*
G02*
X125396400Y-77015450I0J-243750D01*
G01*
X125396400Y-77502950D01*
G75*
G02*
X125152650Y-77746700I-243750J0D01*
G01*
X124240150Y-77746700D01*
G75*
G02*
X123996400Y-77502950I0J243750D01*
G01*
X123996400Y-77015450D01*
G75*
G02*
X124240150Y-76771700I243750J0D01*
G01*
G37*
G36*
G01*
X124240150Y-78646700D02*
X125152650Y-78646700D01*
G75*
G02*
X125396400Y-78890450I0J-243750D01*
G01*
X125396400Y-79377950D01*
G75*
G02*
X125152650Y-79621700I-243750J0D01*
G01*
X124240150Y-79621700D01*
G75*
G02*
X123996400Y-79377950I0J243750D01*
G01*
X123996400Y-78890450D01*
G75*
G02*
X124240150Y-78646700I243750J0D01*
G01*
G37*
M02*
