G04 #@! TF.GenerationSoftware,KiCad,Pcbnew,(5.1.9)-1*
G04 #@! TF.CreationDate,2021-03-07T21:45:31-03:00*
G04 #@! TF.ProjectId,V0_Display,56305f44-6973-4706-9c61-792e6b696361,rev?*
G04 #@! TF.SameCoordinates,Original*
G04 #@! TF.FileFunction,Legend,Bot*
G04 #@! TF.FilePolarity,Positive*
%FSLAX46Y46*%
G04 Gerber Fmt 4.6, Leading zero omitted, Abs format (unit mm)*
G04 Created by KiCad (PCBNEW (5.1.9)-1) date 2021-03-07 21:45:31*
%MOMM*%
%LPD*%
G01*
G04 APERTURE LIST*
%ADD10C,0.150000*%
%ADD11C,0.200000*%
%ADD12C,0.100000*%
%ADD13C,0.120000*%
%ADD14C,0.300000*%
G04 #@! TA.AperFunction,Profile*
%ADD15C,0.050000*%
G04 #@! TD*
G04 APERTURE END LIST*
D10*
X114485714Y-83047619D02*
X114438095Y-83000000D01*
X114342857Y-82952380D01*
X114104761Y-82952380D01*
X114009523Y-83000000D01*
X113961904Y-83047619D01*
X113914285Y-83142857D01*
X113914285Y-83238095D01*
X113961904Y-83380952D01*
X114533333Y-83952380D01*
X113914285Y-83952380D01*
X113914285Y-80252380D02*
X114485714Y-80252380D01*
X114200000Y-80252380D02*
X114200000Y-79252380D01*
X114295238Y-79395238D01*
X114390476Y-79490476D01*
X114485714Y-79538095D01*
X119297666Y-78387980D02*
X119297666Y-79102266D01*
X119345285Y-79245123D01*
X119440523Y-79340361D01*
X119583380Y-79387980D01*
X119678619Y-79387980D01*
X118964333Y-78387980D02*
X118392904Y-78387980D01*
X118678619Y-79387980D02*
X118678619Y-78387980D01*
X118107190Y-79102266D02*
X117631000Y-79102266D01*
X118202428Y-79387980D02*
X117869095Y-78387980D01*
X117535761Y-79387980D01*
X116678619Y-78435600D02*
X116773857Y-78387980D01*
X116916714Y-78387980D01*
X117059571Y-78435600D01*
X117154809Y-78530838D01*
X117202428Y-78626076D01*
X117250047Y-78816552D01*
X117250047Y-78959409D01*
X117202428Y-79149885D01*
X117154809Y-79245123D01*
X117059571Y-79340361D01*
X116916714Y-79387980D01*
X116821476Y-79387980D01*
X116678619Y-79340361D01*
X116631000Y-79292742D01*
X116631000Y-78959409D01*
X116821476Y-78959409D01*
X141585714Y-56047619D02*
X141538095Y-56000000D01*
X141442857Y-55952380D01*
X141204761Y-55952380D01*
X141109523Y-56000000D01*
X141061904Y-56047619D01*
X141014285Y-56142857D01*
X141014285Y-56238095D01*
X141061904Y-56380952D01*
X141633333Y-56952380D01*
X141014285Y-56952380D01*
X140942857Y-51715476D02*
X141657142Y-51715476D01*
X141300000Y-51715476D02*
X141300000Y-50465476D01*
X141419047Y-50644047D01*
X141538095Y-50763095D01*
X141657142Y-50822619D01*
X155145862Y-79538755D02*
X155246877Y-79572427D01*
X155347892Y-79673442D01*
X155415236Y-79808129D01*
X155415236Y-79942816D01*
X155381564Y-80043831D01*
X155280549Y-80212190D01*
X155179534Y-80313205D01*
X155011175Y-80414221D01*
X154910160Y-80447892D01*
X154775473Y-80447892D01*
X154640786Y-80380549D01*
X154573442Y-80313205D01*
X154506099Y-80178518D01*
X154506099Y-80111175D01*
X154741801Y-79875473D01*
X154876488Y-80010160D01*
X154135709Y-79875473D02*
X154842816Y-79168366D01*
X154573442Y-78898992D01*
X154472427Y-78865320D01*
X154405083Y-78865320D01*
X154304068Y-78898992D01*
X154203053Y-79000007D01*
X154169381Y-79101022D01*
X154169381Y-79168366D01*
X154203053Y-79269381D01*
X154472427Y-79538755D01*
X153428603Y-79168366D02*
X154135709Y-78461259D01*
X153664305Y-77989855D02*
X153529618Y-77855168D01*
X153428603Y-77821496D01*
X153293916Y-77821496D01*
X153125557Y-77922511D01*
X152889855Y-78158213D01*
X152788839Y-78326572D01*
X152788839Y-78461259D01*
X152822511Y-78562274D01*
X152957198Y-78696961D01*
X153058213Y-78730633D01*
X153192900Y-78730633D01*
X153361259Y-78629618D01*
X153596961Y-78393916D01*
X153697977Y-78225557D01*
X153697977Y-78090870D01*
X153664305Y-77989855D01*
X151980717Y-77720481D02*
X152384778Y-78124542D01*
X152182748Y-77922511D02*
X152889855Y-77215404D01*
X152856183Y-77383763D01*
X152856183Y-77518450D01*
X152889855Y-77619465D01*
X151307282Y-77047046D02*
X151711343Y-77451107D01*
X151509313Y-77249076D02*
X152216420Y-76541969D01*
X152182748Y-76710328D01*
X152182748Y-76845015D01*
X152216420Y-76946030D01*
X152605862Y-79538755D02*
X152706877Y-79572427D01*
X152807892Y-79673442D01*
X152875236Y-79808129D01*
X152875236Y-79942816D01*
X152841564Y-80043831D01*
X152740549Y-80212190D01*
X152639534Y-80313205D01*
X152471175Y-80414221D01*
X152370160Y-80447892D01*
X152235473Y-80447892D01*
X152100786Y-80380549D01*
X152033442Y-80313205D01*
X151966099Y-80178518D01*
X151966099Y-80111175D01*
X152201801Y-79875473D01*
X152336488Y-80010160D01*
X151595709Y-79875473D02*
X152302816Y-79168366D01*
X152033442Y-78898992D01*
X151932427Y-78865320D01*
X151865083Y-78865320D01*
X151764068Y-78898992D01*
X151663053Y-79000007D01*
X151629381Y-79101022D01*
X151629381Y-79168366D01*
X151663053Y-79269381D01*
X151932427Y-79538755D01*
X150888603Y-79168366D02*
X151595709Y-78461259D01*
X151124305Y-77989855D02*
X150989618Y-77855168D01*
X150888603Y-77821496D01*
X150753916Y-77821496D01*
X150585557Y-77922511D01*
X150349855Y-78158213D01*
X150248839Y-78326572D01*
X150248839Y-78461259D01*
X150282511Y-78562274D01*
X150417198Y-78696961D01*
X150518213Y-78730633D01*
X150652900Y-78730633D01*
X150821259Y-78629618D01*
X151056961Y-78393916D01*
X151157977Y-78225557D01*
X151157977Y-78090870D01*
X151124305Y-77989855D01*
X149440717Y-77720481D02*
X149844778Y-78124542D01*
X149642748Y-77922511D02*
X150349855Y-77215404D01*
X150316183Y-77383763D01*
X150316183Y-77518450D01*
X150349855Y-77619465D01*
X149710091Y-76575641D02*
X149642748Y-76508298D01*
X149541733Y-76474626D01*
X149474389Y-76474626D01*
X149373374Y-76508298D01*
X149205015Y-76609313D01*
X149036656Y-76777672D01*
X148935641Y-76946030D01*
X148901969Y-77047046D01*
X148901969Y-77114389D01*
X148935641Y-77215404D01*
X149002985Y-77282748D01*
X149104000Y-77316420D01*
X149171343Y-77316420D01*
X149272359Y-77282748D01*
X149440717Y-77181733D01*
X149609076Y-77013374D01*
X149710091Y-76845015D01*
X149743763Y-76744000D01*
X149743763Y-76676656D01*
X149710091Y-76575641D01*
X150065862Y-79538755D02*
X150166877Y-79572427D01*
X150267892Y-79673442D01*
X150335236Y-79808129D01*
X150335236Y-79942816D01*
X150301564Y-80043831D01*
X150200549Y-80212190D01*
X150099534Y-80313205D01*
X149931175Y-80414221D01*
X149830160Y-80447892D01*
X149695473Y-80447892D01*
X149560786Y-80380549D01*
X149493442Y-80313205D01*
X149426099Y-80178518D01*
X149426099Y-80111175D01*
X149661801Y-79875473D01*
X149796488Y-80010160D01*
X149055709Y-79875473D02*
X149762816Y-79168366D01*
X149493442Y-78898992D01*
X149392427Y-78865320D01*
X149325083Y-78865320D01*
X149224068Y-78898992D01*
X149123053Y-79000007D01*
X149089381Y-79101022D01*
X149089381Y-79168366D01*
X149123053Y-79269381D01*
X149392427Y-79538755D01*
X148348603Y-79168366D02*
X149055709Y-78461259D01*
X148584305Y-77989855D02*
X148449618Y-77855168D01*
X148348603Y-77821496D01*
X148213916Y-77821496D01*
X148045557Y-77922511D01*
X147809855Y-78158213D01*
X147708839Y-78326572D01*
X147708839Y-78461259D01*
X147742511Y-78562274D01*
X147877198Y-78696961D01*
X147978213Y-78730633D01*
X148112900Y-78730633D01*
X148281259Y-78629618D01*
X148516961Y-78393916D01*
X148617977Y-78225557D01*
X148617977Y-78090870D01*
X148584305Y-77989855D01*
X147237435Y-78057198D02*
X147102748Y-77922511D01*
X147069076Y-77821496D01*
X147069076Y-77754152D01*
X147102748Y-77585794D01*
X147203763Y-77417435D01*
X147473137Y-77148061D01*
X147574152Y-77114389D01*
X147641496Y-77114389D01*
X147742511Y-77148061D01*
X147877198Y-77282748D01*
X147910870Y-77383763D01*
X147910870Y-77451107D01*
X147877198Y-77552122D01*
X147708839Y-77720481D01*
X147607824Y-77754152D01*
X147540481Y-77754152D01*
X147439465Y-77720481D01*
X147304778Y-77585794D01*
X147271107Y-77484778D01*
X147271107Y-77417435D01*
X147304778Y-77316420D01*
X147525862Y-79538755D02*
X147626877Y-79572427D01*
X147727892Y-79673442D01*
X147795236Y-79808129D01*
X147795236Y-79942816D01*
X147761564Y-80043831D01*
X147660549Y-80212190D01*
X147559534Y-80313205D01*
X147391175Y-80414221D01*
X147290160Y-80447892D01*
X147155473Y-80447892D01*
X147020786Y-80380549D01*
X146953442Y-80313205D01*
X146886099Y-80178518D01*
X146886099Y-80111175D01*
X147121801Y-79875473D01*
X147256488Y-80010160D01*
X146515709Y-79875473D02*
X147222816Y-79168366D01*
X146953442Y-78898992D01*
X146852427Y-78865320D01*
X146785083Y-78865320D01*
X146684068Y-78898992D01*
X146583053Y-79000007D01*
X146549381Y-79101022D01*
X146549381Y-79168366D01*
X146583053Y-79269381D01*
X146852427Y-79538755D01*
X145808603Y-79168366D02*
X146515709Y-78461259D01*
X146044305Y-77989855D02*
X145909618Y-77855168D01*
X145808603Y-77821496D01*
X145673916Y-77821496D01*
X145505557Y-77922511D01*
X145269855Y-78158213D01*
X145168839Y-78326572D01*
X145168839Y-78461259D01*
X145202511Y-78562274D01*
X145337198Y-78696961D01*
X145438213Y-78730633D01*
X145572900Y-78730633D01*
X145741259Y-78629618D01*
X145976961Y-78393916D01*
X146077977Y-78225557D01*
X146077977Y-78090870D01*
X146044305Y-77989855D01*
X145034152Y-77585794D02*
X145135168Y-77619465D01*
X145202511Y-77619465D01*
X145303526Y-77585794D01*
X145337198Y-77552122D01*
X145370870Y-77451107D01*
X145370870Y-77383763D01*
X145337198Y-77282748D01*
X145202511Y-77148061D01*
X145101496Y-77114389D01*
X145034152Y-77114389D01*
X144933137Y-77148061D01*
X144899465Y-77181733D01*
X144865794Y-77282748D01*
X144865794Y-77350091D01*
X144899465Y-77451107D01*
X145034152Y-77585794D01*
X145067824Y-77686809D01*
X145067824Y-77754152D01*
X145034152Y-77855168D01*
X144899465Y-77989855D01*
X144798450Y-78023526D01*
X144731107Y-78023526D01*
X144630091Y-77989855D01*
X144495404Y-77855168D01*
X144461733Y-77754152D01*
X144461733Y-77686809D01*
X144495404Y-77585794D01*
X144630091Y-77451107D01*
X144731107Y-77417435D01*
X144798450Y-77417435D01*
X144899465Y-77451107D01*
X144985862Y-79538755D02*
X145086877Y-79572427D01*
X145187892Y-79673442D01*
X145255236Y-79808129D01*
X145255236Y-79942816D01*
X145221564Y-80043831D01*
X145120549Y-80212190D01*
X145019534Y-80313205D01*
X144851175Y-80414221D01*
X144750160Y-80447892D01*
X144615473Y-80447892D01*
X144480786Y-80380549D01*
X144413442Y-80313205D01*
X144346099Y-80178518D01*
X144346099Y-80111175D01*
X144581801Y-79875473D01*
X144716488Y-80010160D01*
X143975709Y-79875473D02*
X144682816Y-79168366D01*
X144413442Y-78898992D01*
X144312427Y-78865320D01*
X144245083Y-78865320D01*
X144144068Y-78898992D01*
X144043053Y-79000007D01*
X144009381Y-79101022D01*
X144009381Y-79168366D01*
X144043053Y-79269381D01*
X144312427Y-79538755D01*
X143268603Y-79168366D02*
X143975709Y-78461259D01*
X143504305Y-77989855D02*
X143369618Y-77855168D01*
X143268603Y-77821496D01*
X143133916Y-77821496D01*
X142965557Y-77922511D01*
X142729855Y-78158213D01*
X142628839Y-78326572D01*
X142628839Y-78461259D01*
X142662511Y-78562274D01*
X142797198Y-78696961D01*
X142898213Y-78730633D01*
X143032900Y-78730633D01*
X143201259Y-78629618D01*
X143436961Y-78393916D01*
X143537977Y-78225557D01*
X143537977Y-78090870D01*
X143504305Y-77989855D01*
X142965557Y-77451107D02*
X142494152Y-76979702D01*
X142090091Y-77989855D01*
X142445862Y-79538755D02*
X142546877Y-79572427D01*
X142647892Y-79673442D01*
X142715236Y-79808129D01*
X142715236Y-79942816D01*
X142681564Y-80043831D01*
X142580549Y-80212190D01*
X142479534Y-80313205D01*
X142311175Y-80414221D01*
X142210160Y-80447892D01*
X142075473Y-80447892D01*
X141940786Y-80380549D01*
X141873442Y-80313205D01*
X141806099Y-80178518D01*
X141806099Y-80111175D01*
X142041801Y-79875473D01*
X142176488Y-80010160D01*
X141435709Y-79875473D02*
X142142816Y-79168366D01*
X141873442Y-78898992D01*
X141772427Y-78865320D01*
X141705083Y-78865320D01*
X141604068Y-78898992D01*
X141503053Y-79000007D01*
X141469381Y-79101022D01*
X141469381Y-79168366D01*
X141503053Y-79269381D01*
X141772427Y-79538755D01*
X140728603Y-79168366D02*
X141435709Y-78461259D01*
X140964305Y-77989855D02*
X140829618Y-77855168D01*
X140728603Y-77821496D01*
X140593916Y-77821496D01*
X140425557Y-77922511D01*
X140189855Y-78158213D01*
X140088839Y-78326572D01*
X140088839Y-78461259D01*
X140122511Y-78562274D01*
X140257198Y-78696961D01*
X140358213Y-78730633D01*
X140492900Y-78730633D01*
X140661259Y-78629618D01*
X140896961Y-78393916D01*
X140997977Y-78225557D01*
X140997977Y-78090870D01*
X140964305Y-77989855D01*
X140055168Y-77080717D02*
X140189855Y-77215404D01*
X140223526Y-77316420D01*
X140223526Y-77383763D01*
X140189855Y-77552122D01*
X140088839Y-77720481D01*
X139819465Y-77989855D01*
X139718450Y-78023526D01*
X139651107Y-78023526D01*
X139550091Y-77989855D01*
X139415404Y-77855168D01*
X139381733Y-77754152D01*
X139381733Y-77686809D01*
X139415404Y-77585794D01*
X139583763Y-77417435D01*
X139684778Y-77383763D01*
X139752122Y-77383763D01*
X139853137Y-77417435D01*
X139987824Y-77552122D01*
X140021496Y-77653137D01*
X140021496Y-77720481D01*
X139987824Y-77821496D01*
X139905862Y-79538755D02*
X140006877Y-79572427D01*
X140107892Y-79673442D01*
X140175236Y-79808129D01*
X140175236Y-79942816D01*
X140141564Y-80043831D01*
X140040549Y-80212190D01*
X139939534Y-80313205D01*
X139771175Y-80414221D01*
X139670160Y-80447892D01*
X139535473Y-80447892D01*
X139400786Y-80380549D01*
X139333442Y-80313205D01*
X139266099Y-80178518D01*
X139266099Y-80111175D01*
X139501801Y-79875473D01*
X139636488Y-80010160D01*
X138895709Y-79875473D02*
X139602816Y-79168366D01*
X139333442Y-78898992D01*
X139232427Y-78865320D01*
X139165083Y-78865320D01*
X139064068Y-78898992D01*
X138963053Y-79000007D01*
X138929381Y-79101022D01*
X138929381Y-79168366D01*
X138963053Y-79269381D01*
X139232427Y-79538755D01*
X138188603Y-79168366D02*
X138895709Y-78461259D01*
X138424305Y-77989855D02*
X138289618Y-77855168D01*
X138188603Y-77821496D01*
X138053916Y-77821496D01*
X137885557Y-77922511D01*
X137649855Y-78158213D01*
X137548839Y-78326572D01*
X137548839Y-78461259D01*
X137582511Y-78562274D01*
X137717198Y-78696961D01*
X137818213Y-78730633D01*
X137952900Y-78730633D01*
X138121259Y-78629618D01*
X138356961Y-78393916D01*
X138457977Y-78225557D01*
X138457977Y-78090870D01*
X138424305Y-77989855D01*
X137481496Y-77047046D02*
X137818213Y-77383763D01*
X137515168Y-77754152D01*
X137515168Y-77686809D01*
X137481496Y-77585794D01*
X137313137Y-77417435D01*
X137212122Y-77383763D01*
X137144778Y-77383763D01*
X137043763Y-77417435D01*
X136875404Y-77585794D01*
X136841733Y-77686809D01*
X136841733Y-77754152D01*
X136875404Y-77855168D01*
X137043763Y-78023526D01*
X137144778Y-78057198D01*
X137212122Y-78057198D01*
X137365862Y-79538755D02*
X137466877Y-79572427D01*
X137567892Y-79673442D01*
X137635236Y-79808129D01*
X137635236Y-79942816D01*
X137601564Y-80043831D01*
X137500549Y-80212190D01*
X137399534Y-80313205D01*
X137231175Y-80414221D01*
X137130160Y-80447892D01*
X136995473Y-80447892D01*
X136860786Y-80380549D01*
X136793442Y-80313205D01*
X136726099Y-80178518D01*
X136726099Y-80111175D01*
X136961801Y-79875473D01*
X137096488Y-80010160D01*
X136355709Y-79875473D02*
X137062816Y-79168366D01*
X136793442Y-78898992D01*
X136692427Y-78865320D01*
X136625083Y-78865320D01*
X136524068Y-78898992D01*
X136423053Y-79000007D01*
X136389381Y-79101022D01*
X136389381Y-79168366D01*
X136423053Y-79269381D01*
X136692427Y-79538755D01*
X135648603Y-79168366D02*
X136355709Y-78461259D01*
X135884305Y-77989855D02*
X135749618Y-77855168D01*
X135648603Y-77821496D01*
X135513916Y-77821496D01*
X135345557Y-77922511D01*
X135109855Y-78158213D01*
X135008839Y-78326572D01*
X135008839Y-78461259D01*
X135042511Y-78562274D01*
X135177198Y-78696961D01*
X135278213Y-78730633D01*
X135412900Y-78730633D01*
X135581259Y-78629618D01*
X135816961Y-78393916D01*
X135917977Y-78225557D01*
X135917977Y-78090870D01*
X135884305Y-77989855D01*
X134739465Y-77316420D02*
X134268061Y-77787824D01*
X135177198Y-77215404D02*
X134840481Y-77888839D01*
X134402748Y-77451107D01*
X134825862Y-79538755D02*
X134926877Y-79572427D01*
X135027892Y-79673442D01*
X135095236Y-79808129D01*
X135095236Y-79942816D01*
X135061564Y-80043831D01*
X134960549Y-80212190D01*
X134859534Y-80313205D01*
X134691175Y-80414221D01*
X134590160Y-80447892D01*
X134455473Y-80447892D01*
X134320786Y-80380549D01*
X134253442Y-80313205D01*
X134186099Y-80178518D01*
X134186099Y-80111175D01*
X134421801Y-79875473D01*
X134556488Y-80010160D01*
X133815709Y-79875473D02*
X134522816Y-79168366D01*
X134253442Y-78898992D01*
X134152427Y-78865320D01*
X134085083Y-78865320D01*
X133984068Y-78898992D01*
X133883053Y-79000007D01*
X133849381Y-79101022D01*
X133849381Y-79168366D01*
X133883053Y-79269381D01*
X134152427Y-79538755D01*
X133108603Y-79168366D02*
X133815709Y-78461259D01*
X133344305Y-77989855D02*
X133209618Y-77855168D01*
X133108603Y-77821496D01*
X132973916Y-77821496D01*
X132805557Y-77922511D01*
X132569855Y-78158213D01*
X132468839Y-78326572D01*
X132468839Y-78461259D01*
X132502511Y-78562274D01*
X132637198Y-78696961D01*
X132738213Y-78730633D01*
X132872900Y-78730633D01*
X133041259Y-78629618D01*
X133276961Y-78393916D01*
X133377977Y-78225557D01*
X133377977Y-78090870D01*
X133344305Y-77989855D01*
X132805557Y-77451107D02*
X132367824Y-77013374D01*
X132334152Y-77518450D01*
X132233137Y-77417435D01*
X132132122Y-77383763D01*
X132064778Y-77383763D01*
X131963763Y-77417435D01*
X131795404Y-77585794D01*
X131761733Y-77686809D01*
X131761733Y-77754152D01*
X131795404Y-77855168D01*
X131997435Y-78057198D01*
X132098450Y-78090870D01*
X132165794Y-78090870D01*
X132285862Y-79538755D02*
X132386877Y-79572427D01*
X132487892Y-79673442D01*
X132555236Y-79808129D01*
X132555236Y-79942816D01*
X132521564Y-80043831D01*
X132420549Y-80212190D01*
X132319534Y-80313205D01*
X132151175Y-80414221D01*
X132050160Y-80447892D01*
X131915473Y-80447892D01*
X131780786Y-80380549D01*
X131713442Y-80313205D01*
X131646099Y-80178518D01*
X131646099Y-80111175D01*
X131881801Y-79875473D01*
X132016488Y-80010160D01*
X131275709Y-79875473D02*
X131982816Y-79168366D01*
X131713442Y-78898992D01*
X131612427Y-78865320D01*
X131545083Y-78865320D01*
X131444068Y-78898992D01*
X131343053Y-79000007D01*
X131309381Y-79101022D01*
X131309381Y-79168366D01*
X131343053Y-79269381D01*
X131612427Y-79538755D01*
X130568603Y-79168366D02*
X131275709Y-78461259D01*
X130804305Y-77989855D02*
X130669618Y-77855168D01*
X130568603Y-77821496D01*
X130433916Y-77821496D01*
X130265557Y-77922511D01*
X130029855Y-78158213D01*
X129928839Y-78326572D01*
X129928839Y-78461259D01*
X129962511Y-78562274D01*
X130097198Y-78696961D01*
X130198213Y-78730633D01*
X130332900Y-78730633D01*
X130501259Y-78629618D01*
X130736961Y-78393916D01*
X130837977Y-78225557D01*
X130837977Y-78090870D01*
X130804305Y-77989855D01*
X130164542Y-77484778D02*
X130164542Y-77417435D01*
X130130870Y-77316420D01*
X129962511Y-77148061D01*
X129861496Y-77114389D01*
X129794152Y-77114389D01*
X129693137Y-77148061D01*
X129625794Y-77215404D01*
X129558450Y-77350091D01*
X129558450Y-78158213D01*
X129120717Y-77720481D01*
X129745862Y-79538755D02*
X129846877Y-79572427D01*
X129947892Y-79673442D01*
X130015236Y-79808129D01*
X130015236Y-79942816D01*
X129981564Y-80043831D01*
X129880549Y-80212190D01*
X129779534Y-80313205D01*
X129611175Y-80414221D01*
X129510160Y-80447892D01*
X129375473Y-80447892D01*
X129240786Y-80380549D01*
X129173442Y-80313205D01*
X129106099Y-80178518D01*
X129106099Y-80111175D01*
X129341801Y-79875473D01*
X129476488Y-80010160D01*
X128735709Y-79875473D02*
X129442816Y-79168366D01*
X129173442Y-78898992D01*
X129072427Y-78865320D01*
X129005083Y-78865320D01*
X128904068Y-78898992D01*
X128803053Y-79000007D01*
X128769381Y-79101022D01*
X128769381Y-79168366D01*
X128803053Y-79269381D01*
X129072427Y-79538755D01*
X128028603Y-79168366D02*
X128735709Y-78461259D01*
X128264305Y-77989855D02*
X128129618Y-77855168D01*
X128028603Y-77821496D01*
X127893916Y-77821496D01*
X127725557Y-77922511D01*
X127489855Y-78158213D01*
X127388839Y-78326572D01*
X127388839Y-78461259D01*
X127422511Y-78562274D01*
X127557198Y-78696961D01*
X127658213Y-78730633D01*
X127792900Y-78730633D01*
X127961259Y-78629618D01*
X128196961Y-78393916D01*
X128297977Y-78225557D01*
X128297977Y-78090870D01*
X128264305Y-77989855D01*
X126580717Y-77720481D02*
X126984778Y-78124542D01*
X126782748Y-77922511D02*
X127489855Y-77215404D01*
X127456183Y-77383763D01*
X127456183Y-77518450D01*
X127489855Y-77619465D01*
D11*
X162580409Y-62082980D02*
X162008980Y-62082980D01*
X162419695Y-63082980D02*
X162294695Y-62082980D01*
X161788742Y-62987742D02*
X161747076Y-63035361D01*
X161800647Y-63082980D01*
X161842314Y-63035361D01*
X161788742Y-62987742D01*
X161800647Y-63082980D01*
X160574457Y-62797266D02*
X160098266Y-62797266D01*
X160705409Y-63082980D02*
X160247076Y-62082980D01*
X160038742Y-63082980D01*
X159705409Y-63082980D02*
X159580409Y-62082980D01*
X159628028Y-62463933D02*
X159526838Y-62416314D01*
X159336361Y-62416314D01*
X159247076Y-62463933D01*
X159205409Y-62511552D01*
X159169695Y-62606790D01*
X159205409Y-62892504D01*
X159264933Y-62987742D01*
X159318504Y-63035361D01*
X159419695Y-63082980D01*
X159610171Y-63082980D01*
X159699457Y-63035361D01*
X158800647Y-63082980D02*
X158717314Y-62416314D01*
X158741123Y-62606790D02*
X158681600Y-62511552D01*
X158628028Y-62463933D01*
X158526838Y-62416314D01*
X158431600Y-62416314D01*
X157753028Y-63082980D02*
X157687552Y-62559171D01*
X157723266Y-62463933D01*
X157812552Y-62416314D01*
X158003028Y-62416314D01*
X158104219Y-62463933D01*
X157747076Y-63035361D02*
X157848266Y-63082980D01*
X158086361Y-63082980D01*
X158175647Y-63035361D01*
X158211361Y-62940123D01*
X158199457Y-62844885D01*
X158139933Y-62749647D01*
X158038742Y-62702028D01*
X157800647Y-62702028D01*
X157699457Y-62654409D01*
X157276838Y-63082980D02*
X157151838Y-62082980D01*
X156848266Y-63082980D02*
X156782790Y-62559171D01*
X156818504Y-62463933D01*
X156907790Y-62416314D01*
X157050647Y-62416314D01*
X157151838Y-62463933D01*
X157205409Y-62511552D01*
X155943504Y-63082980D02*
X155878028Y-62559171D01*
X155913742Y-62463933D01*
X156003028Y-62416314D01*
X156193504Y-62416314D01*
X156294695Y-62463933D01*
X155937552Y-63035361D02*
X156038742Y-63082980D01*
X156276838Y-63082980D01*
X156366123Y-63035361D01*
X156401838Y-62940123D01*
X156389933Y-62844885D01*
X156330409Y-62749647D01*
X156229219Y-62702028D01*
X155991123Y-62702028D01*
X155889933Y-62654409D01*
X155467314Y-63082980D02*
X155383980Y-62416314D01*
X155395885Y-62511552D02*
X155342314Y-62463933D01*
X155241123Y-62416314D01*
X155098266Y-62416314D01*
X155008980Y-62463933D01*
X154973266Y-62559171D01*
X155038742Y-63082980D01*
X154973266Y-62559171D02*
X154913742Y-62463933D01*
X154812552Y-62416314D01*
X154669695Y-62416314D01*
X154580409Y-62463933D01*
X154544695Y-62559171D01*
X154610171Y-63082980D01*
X152526838Y-62035361D02*
X153544695Y-63321076D01*
X151580409Y-62082980D02*
X151372076Y-63082980D01*
X150913742Y-62082980D01*
X150693504Y-62987742D02*
X150651838Y-63035361D01*
X150705409Y-63082980D01*
X150747076Y-63035361D01*
X150693504Y-62987742D01*
X150705409Y-63082980D01*
X148883980Y-62987742D02*
X148937552Y-63035361D01*
X149086361Y-63082980D01*
X149181600Y-63082980D01*
X149318504Y-63035361D01*
X149401838Y-62940123D01*
X149437552Y-62844885D01*
X149461361Y-62654409D01*
X149443504Y-62511552D01*
X149372076Y-62321076D01*
X149312552Y-62225838D01*
X149205409Y-62130600D01*
X149056600Y-62082980D01*
X148961361Y-62082980D01*
X148824457Y-62130600D01*
X148782790Y-62178219D01*
X148324457Y-63082980D02*
X148413742Y-63035361D01*
X148455409Y-62987742D01*
X148491123Y-62892504D01*
X148455409Y-62606790D01*
X148395885Y-62511552D01*
X148342314Y-62463933D01*
X148241123Y-62416314D01*
X148098266Y-62416314D01*
X148008980Y-62463933D01*
X147967314Y-62511552D01*
X147931600Y-62606790D01*
X147967314Y-62892504D01*
X148026838Y-62987742D01*
X148080409Y-63035361D01*
X148181600Y-63082980D01*
X148324457Y-63082980D01*
X147562552Y-63082980D02*
X147479219Y-62416314D01*
X147503028Y-62606790D02*
X147443504Y-62511552D01*
X147389933Y-62463933D01*
X147288742Y-62416314D01*
X147193504Y-62416314D01*
X146514933Y-63082980D02*
X146389933Y-62082980D01*
X146508980Y-63035361D02*
X146610171Y-63082980D01*
X146800647Y-63082980D01*
X146889933Y-63035361D01*
X146931600Y-62987742D01*
X146967314Y-62892504D01*
X146931600Y-62606790D01*
X146872076Y-62511552D01*
X146818504Y-62463933D01*
X146717314Y-62416314D01*
X146526838Y-62416314D01*
X146437552Y-62463933D01*
X145651838Y-63035361D02*
X145753028Y-63082980D01*
X145943504Y-63082980D01*
X146032790Y-63035361D01*
X146068504Y-62940123D01*
X146020885Y-62559171D01*
X145961361Y-62463933D01*
X145860171Y-62416314D01*
X145669695Y-62416314D01*
X145580409Y-62463933D01*
X145544695Y-62559171D01*
X145556600Y-62654409D01*
X146044695Y-62749647D01*
X145181600Y-63082980D02*
X145098266Y-62416314D01*
X145056600Y-62082980D02*
X145110171Y-62130600D01*
X145068504Y-62178219D01*
X145014933Y-62130600D01*
X145056600Y-62082980D01*
X145068504Y-62178219D01*
X144705409Y-63082980D02*
X144622076Y-62416314D01*
X144645885Y-62606790D02*
X144586361Y-62511552D01*
X144532790Y-62463933D01*
X144431600Y-62416314D01*
X144336361Y-62416314D01*
X143943504Y-63082980D02*
X144032790Y-63035361D01*
X144074457Y-62987742D01*
X144110171Y-62892504D01*
X144074457Y-62606790D01*
X144014933Y-62511552D01*
X143961361Y-62463933D01*
X143860171Y-62416314D01*
X143717314Y-62416314D01*
X143628028Y-62463933D01*
X143586361Y-62511552D01*
X143550647Y-62606790D01*
X143586361Y-62892504D01*
X143645885Y-62987742D01*
X143699457Y-63035361D01*
X143800647Y-63082980D01*
X143943504Y-63082980D01*
X162580409Y-63782980D02*
X162372076Y-64782980D01*
X161913742Y-63782980D01*
X161389933Y-63782980D02*
X161294695Y-63782980D01*
X161205409Y-63830600D01*
X161163742Y-63878219D01*
X161128028Y-63973457D01*
X161104219Y-64163933D01*
X161133980Y-64402028D01*
X161205409Y-64592504D01*
X161264933Y-64687742D01*
X161318504Y-64735361D01*
X161419695Y-64782980D01*
X161514933Y-64782980D01*
X161604219Y-64735361D01*
X161645885Y-64687742D01*
X161681600Y-64592504D01*
X161705409Y-64402028D01*
X161675647Y-64163933D01*
X161604219Y-63973457D01*
X161544695Y-63878219D01*
X161491123Y-63830600D01*
X161389933Y-63782980D01*
X160705409Y-64402028D02*
X159943504Y-64402028D01*
X159514933Y-64782980D02*
X159389933Y-63782980D01*
X159151838Y-63782980D01*
X159014933Y-63830600D01*
X158931599Y-63925838D01*
X158895885Y-64021076D01*
X158872076Y-64211552D01*
X158889933Y-64354409D01*
X158961361Y-64544885D01*
X159020885Y-64640123D01*
X159128028Y-64735361D01*
X159276838Y-64782980D01*
X159514933Y-64782980D01*
X158514933Y-64782980D02*
X158431599Y-64116314D01*
X158389933Y-63782980D02*
X158443504Y-63830600D01*
X158401838Y-63878219D01*
X158348266Y-63830600D01*
X158389933Y-63782980D01*
X158401838Y-63878219D01*
X158080409Y-64735361D02*
X157991123Y-64782980D01*
X157800647Y-64782980D01*
X157699457Y-64735361D01*
X157639933Y-64640123D01*
X157633980Y-64592504D01*
X157669695Y-64497266D01*
X157758980Y-64449647D01*
X157901838Y-64449647D01*
X157991123Y-64402028D01*
X158026838Y-64306790D01*
X158020885Y-64259171D01*
X157961361Y-64163933D01*
X157860171Y-64116314D01*
X157717314Y-64116314D01*
X157628028Y-64163933D01*
X157145885Y-64116314D02*
X157270885Y-65116314D01*
X157151838Y-64163933D02*
X157050647Y-64116314D01*
X156860171Y-64116314D01*
X156770885Y-64163933D01*
X156729219Y-64211552D01*
X156693504Y-64306790D01*
X156729219Y-64592504D01*
X156788742Y-64687742D01*
X156842314Y-64735361D01*
X156943504Y-64782980D01*
X157133980Y-64782980D01*
X157223266Y-64735361D01*
X156181600Y-64782980D02*
X156270885Y-64735361D01*
X156306599Y-64640123D01*
X156199457Y-63782980D01*
X155372076Y-64782980D02*
X155306600Y-64259171D01*
X155342314Y-64163933D01*
X155431599Y-64116314D01*
X155622076Y-64116314D01*
X155723266Y-64163933D01*
X155366123Y-64735361D02*
X155467314Y-64782980D01*
X155705409Y-64782980D01*
X155794695Y-64735361D01*
X155830409Y-64640123D01*
X155818504Y-64544885D01*
X155758980Y-64449647D01*
X155657790Y-64402028D01*
X155419695Y-64402028D01*
X155318504Y-64354409D01*
X154907790Y-64116314D02*
X154753028Y-64782980D01*
X154431599Y-64116314D02*
X154753028Y-64782980D01*
X154878028Y-65021076D01*
X154931599Y-65068695D01*
X155032790Y-65116314D01*
X153324457Y-64402028D02*
X152562552Y-64402028D01*
X151383980Y-64497266D02*
X150907790Y-64497266D01*
X151514933Y-64782980D02*
X151056600Y-63782980D01*
X150848266Y-64782980D01*
X150532790Y-63782980D02*
X150324457Y-64782980D01*
X149866123Y-63782980D01*
X149086361Y-64782980D02*
X149360171Y-64306790D01*
X149657790Y-64782980D02*
X149532790Y-63782980D01*
X149151838Y-63782980D01*
X149062552Y-63830600D01*
X149020885Y-63878219D01*
X148985171Y-63973457D01*
X149003028Y-64116314D01*
X149062552Y-64211552D01*
X149116123Y-64259171D01*
X149217314Y-64306790D01*
X149598266Y-64306790D01*
X147508980Y-64735361D02*
X147610171Y-64782980D01*
X147800647Y-64782980D01*
X147889933Y-64735361D01*
X147925647Y-64640123D01*
X147878028Y-64259171D01*
X147818504Y-64163933D01*
X147717314Y-64116314D01*
X147526838Y-64116314D01*
X147437552Y-64163933D01*
X147401838Y-64259171D01*
X147413742Y-64354409D01*
X147901838Y-64449647D01*
X146610171Y-64782980D02*
X146485171Y-63782980D01*
X146604219Y-64735361D02*
X146705409Y-64782980D01*
X146895885Y-64782980D01*
X146985171Y-64735361D01*
X147026838Y-64687742D01*
X147062552Y-64592504D01*
X147026838Y-64306790D01*
X146967314Y-64211552D01*
X146913742Y-64163933D01*
X146812552Y-64116314D01*
X146622076Y-64116314D01*
X146532790Y-64163933D01*
X146133980Y-64782980D02*
X146050647Y-64116314D01*
X146008980Y-63782980D02*
X146062552Y-63830600D01*
X146020885Y-63878219D01*
X145967314Y-63830600D01*
X146008980Y-63782980D01*
X146020885Y-63878219D01*
X145717314Y-64116314D02*
X145336361Y-64116314D01*
X145532790Y-63782980D02*
X145639933Y-64640123D01*
X145604219Y-64735361D01*
X145514933Y-64782980D01*
X145419695Y-64782980D01*
X145086361Y-64782980D02*
X145003028Y-64116314D01*
X144961361Y-63782980D02*
X145014933Y-63830600D01*
X144973266Y-63878219D01*
X144919695Y-63830600D01*
X144961361Y-63782980D01*
X144973266Y-63878219D01*
X144467314Y-64782980D02*
X144556599Y-64735361D01*
X144598266Y-64687742D01*
X144633980Y-64592504D01*
X144598266Y-64306790D01*
X144538742Y-64211552D01*
X144485171Y-64163933D01*
X144383980Y-64116314D01*
X144241123Y-64116314D01*
X144151838Y-64163933D01*
X144110171Y-64211552D01*
X144074457Y-64306790D01*
X144110171Y-64592504D01*
X144169695Y-64687742D01*
X144223266Y-64735361D01*
X144324457Y-64782980D01*
X144467314Y-64782980D01*
X143622076Y-64116314D02*
X143705409Y-64782980D01*
X143633980Y-64211552D02*
X143580409Y-64163933D01*
X143479219Y-64116314D01*
X143336361Y-64116314D01*
X143247076Y-64163933D01*
X143211361Y-64259171D01*
X143276838Y-64782980D01*
X161991123Y-66482980D02*
X162264933Y-66006790D01*
X162562552Y-66482980D02*
X162437552Y-65482980D01*
X162056600Y-65482980D01*
X161967314Y-65530600D01*
X161925647Y-65578219D01*
X161889933Y-65673457D01*
X161907790Y-65816314D01*
X161967314Y-65911552D01*
X162020885Y-65959171D01*
X162122076Y-66006790D01*
X162503028Y-66006790D01*
X161175647Y-66435361D02*
X161276838Y-66482980D01*
X161467314Y-66482980D01*
X161556600Y-66435361D01*
X161592314Y-66340123D01*
X161544695Y-65959171D01*
X161485171Y-65863933D01*
X161383980Y-65816314D01*
X161193504Y-65816314D01*
X161104219Y-65863933D01*
X161068504Y-65959171D01*
X161080409Y-66054409D01*
X161568504Y-66149647D01*
X160717314Y-65816314D02*
X160562552Y-66482980D01*
X160241123Y-65816314D01*
X159931600Y-66387742D02*
X159889933Y-66435361D01*
X159943504Y-66482980D01*
X159985171Y-66435361D01*
X159931600Y-66387742D01*
X159943504Y-66482980D01*
X158389933Y-65482980D02*
X158294695Y-65482980D01*
X158205409Y-65530600D01*
X158163742Y-65578219D01*
X158128028Y-65673457D01*
X158104219Y-65863933D01*
X158133980Y-66102028D01*
X158205409Y-66292504D01*
X158264933Y-66387742D01*
X158318504Y-66435361D01*
X158419695Y-66482980D01*
X158514933Y-66482980D01*
X158604219Y-66435361D01*
X158645885Y-66387742D01*
X158681600Y-66292504D01*
X158705409Y-66102028D01*
X158675647Y-65863933D01*
X158604219Y-65673457D01*
X158544695Y-65578219D01*
X158491123Y-65530600D01*
X158389933Y-65482980D01*
X157741123Y-66387742D02*
X157699457Y-66435361D01*
X157753028Y-66482980D01*
X157794695Y-66435361D01*
X157741123Y-66387742D01*
X157753028Y-66482980D01*
X156753028Y-66482980D02*
X157324457Y-66482980D01*
X157038742Y-66482980D02*
X156913742Y-65482980D01*
X157026838Y-65625838D01*
X157133980Y-65721076D01*
X157235171Y-65768695D01*
D12*
X154621666Y-58791190D02*
X154621666Y-58291190D01*
X154335952Y-58791190D01*
X154335952Y-58291190D01*
X153907380Y-58767380D02*
X153955000Y-58791190D01*
X154050238Y-58791190D01*
X154097857Y-58767380D01*
X154121666Y-58719761D01*
X154121666Y-58529285D01*
X154097857Y-58481666D01*
X154050238Y-58457857D01*
X153955000Y-58457857D01*
X153907380Y-58481666D01*
X153883571Y-58529285D01*
X153883571Y-58576904D01*
X154121666Y-58624523D01*
X153597857Y-58791190D02*
X153645476Y-58767380D01*
X153669285Y-58743571D01*
X153693095Y-58695952D01*
X153693095Y-58553095D01*
X153669285Y-58505476D01*
X153645476Y-58481666D01*
X153597857Y-58457857D01*
X153526428Y-58457857D01*
X153478809Y-58481666D01*
X153455000Y-58505476D01*
X153431190Y-58553095D01*
X153431190Y-58695952D01*
X153455000Y-58743571D01*
X153478809Y-58767380D01*
X153526428Y-58791190D01*
X153597857Y-58791190D01*
X153216904Y-58600714D02*
X152835952Y-58600714D01*
X152502619Y-58291190D02*
X152407380Y-58291190D01*
X152359761Y-58315000D01*
X152312142Y-58362619D01*
X152288333Y-58457857D01*
X152288333Y-58624523D01*
X152312142Y-58719761D01*
X152359761Y-58767380D01*
X152407380Y-58791190D01*
X152502619Y-58791190D01*
X152550238Y-58767380D01*
X152597857Y-58719761D01*
X152621666Y-58624523D01*
X152621666Y-58457857D01*
X152597857Y-58362619D01*
X152550238Y-58315000D01*
X152502619Y-58291190D01*
X151859761Y-58457857D02*
X151859761Y-58791190D01*
X152074047Y-58457857D02*
X152074047Y-58719761D01*
X152050238Y-58767380D01*
X152002619Y-58791190D01*
X151931190Y-58791190D01*
X151883571Y-58767380D01*
X151859761Y-58743571D01*
X151693095Y-58457857D02*
X151502619Y-58457857D01*
X151621666Y-58291190D02*
X151621666Y-58719761D01*
X151597857Y-58767380D01*
X151550238Y-58791190D01*
X151502619Y-58791190D01*
X150693095Y-58315000D02*
X150740714Y-58291190D01*
X150812142Y-58291190D01*
X150883571Y-58315000D01*
X150931190Y-58362619D01*
X150955000Y-58410238D01*
X150978809Y-58505476D01*
X150978809Y-58576904D01*
X150955000Y-58672142D01*
X150931190Y-58719761D01*
X150883571Y-58767380D01*
X150812142Y-58791190D01*
X150764523Y-58791190D01*
X150693095Y-58767380D01*
X150669285Y-58743571D01*
X150669285Y-58576904D01*
X150764523Y-58576904D01*
X150455000Y-58457857D02*
X150455000Y-58791190D01*
X150455000Y-58505476D02*
X150431190Y-58481666D01*
X150383571Y-58457857D01*
X150312142Y-58457857D01*
X150264523Y-58481666D01*
X150240714Y-58529285D01*
X150240714Y-58791190D01*
X149788333Y-58791190D02*
X149788333Y-58291190D01*
X149788333Y-58767380D02*
X149835952Y-58791190D01*
X149931190Y-58791190D01*
X149978809Y-58767380D01*
X150002619Y-58743571D01*
X150026428Y-58695952D01*
X150026428Y-58553095D01*
X150002619Y-58505476D01*
X149978809Y-58481666D01*
X149931190Y-58457857D01*
X149835952Y-58457857D01*
X149788333Y-58481666D01*
D10*
X110410952Y-56817619D02*
X110363333Y-56770000D01*
X110268095Y-56722380D01*
X110030000Y-56722380D01*
X109934761Y-56770000D01*
X109887142Y-56817619D01*
X109839523Y-56912857D01*
X109839523Y-57008095D01*
X109887142Y-57150952D01*
X110458571Y-57722380D01*
X109839523Y-57722380D01*
X109125238Y-58103333D02*
X109172857Y-58055714D01*
X109268095Y-57912857D01*
X109315714Y-57817619D01*
X109363333Y-57674761D01*
X109410952Y-57436666D01*
X109410952Y-57246190D01*
X109363333Y-57008095D01*
X109315714Y-56865238D01*
X109268095Y-56770000D01*
X109172857Y-56627142D01*
X109125238Y-56579523D01*
X108887142Y-56722380D02*
X108553809Y-57722380D01*
X108220476Y-56722380D01*
X107315714Y-57627142D02*
X107363333Y-57674761D01*
X107506190Y-57722380D01*
X107601428Y-57722380D01*
X107744285Y-57674761D01*
X107839523Y-57579523D01*
X107887142Y-57484285D01*
X107934761Y-57293809D01*
X107934761Y-57150952D01*
X107887142Y-56960476D01*
X107839523Y-56865238D01*
X107744285Y-56770000D01*
X107601428Y-56722380D01*
X107506190Y-56722380D01*
X107363333Y-56770000D01*
X107315714Y-56817619D01*
X106315714Y-57627142D02*
X106363333Y-57674761D01*
X106506190Y-57722380D01*
X106601428Y-57722380D01*
X106744285Y-57674761D01*
X106839523Y-57579523D01*
X106887142Y-57484285D01*
X106934761Y-57293809D01*
X106934761Y-57150952D01*
X106887142Y-56960476D01*
X106839523Y-56865238D01*
X106744285Y-56770000D01*
X106601428Y-56722380D01*
X106506190Y-56722380D01*
X106363333Y-56770000D01*
X106315714Y-56817619D01*
X105982380Y-58103333D02*
X105934761Y-58055714D01*
X105839523Y-57912857D01*
X105791904Y-57817619D01*
X105744285Y-57674761D01*
X105696666Y-57436666D01*
X105696666Y-57246190D01*
X105744285Y-57008095D01*
X105791904Y-56865238D01*
X105839523Y-56770000D01*
X105934761Y-56627142D01*
X105982380Y-56579523D01*
X109839523Y-55182380D02*
X110410952Y-55182380D01*
X110125238Y-55182380D02*
X110125238Y-54182380D01*
X110220476Y-54325238D01*
X110315714Y-54420476D01*
X110410952Y-54468095D01*
X109125238Y-55563333D02*
X109172857Y-55515714D01*
X109268095Y-55372857D01*
X109315714Y-55277619D01*
X109363333Y-55134761D01*
X109410952Y-54896666D01*
X109410952Y-54706190D01*
X109363333Y-54468095D01*
X109315714Y-54325238D01*
X109268095Y-54230000D01*
X109172857Y-54087142D01*
X109125238Y-54039523D01*
X108887142Y-54182380D02*
X108553809Y-55182380D01*
X108220476Y-54182380D01*
X107315714Y-55087142D02*
X107363333Y-55134761D01*
X107506190Y-55182380D01*
X107601428Y-55182380D01*
X107744285Y-55134761D01*
X107839523Y-55039523D01*
X107887142Y-54944285D01*
X107934761Y-54753809D01*
X107934761Y-54610952D01*
X107887142Y-54420476D01*
X107839523Y-54325238D01*
X107744285Y-54230000D01*
X107601428Y-54182380D01*
X107506190Y-54182380D01*
X107363333Y-54230000D01*
X107315714Y-54277619D01*
X106315714Y-55087142D02*
X106363333Y-55134761D01*
X106506190Y-55182380D01*
X106601428Y-55182380D01*
X106744285Y-55134761D01*
X106839523Y-55039523D01*
X106887142Y-54944285D01*
X106934761Y-54753809D01*
X106934761Y-54610952D01*
X106887142Y-54420476D01*
X106839523Y-54325238D01*
X106744285Y-54230000D01*
X106601428Y-54182380D01*
X106506190Y-54182380D01*
X106363333Y-54230000D01*
X106315714Y-54277619D01*
X105982380Y-55563333D02*
X105934761Y-55515714D01*
X105839523Y-55372857D01*
X105791904Y-55277619D01*
X105744285Y-55134761D01*
X105696666Y-54896666D01*
X105696666Y-54706190D01*
X105744285Y-54468095D01*
X105791904Y-54325238D01*
X105839523Y-54230000D01*
X105934761Y-54087142D01*
X105982380Y-54039523D01*
X100346190Y-56817619D02*
X100298571Y-56770000D01*
X100203333Y-56722380D01*
X99965238Y-56722380D01*
X99870000Y-56770000D01*
X99822380Y-56817619D01*
X99774761Y-56912857D01*
X99774761Y-57008095D01*
X99822380Y-57150952D01*
X100393809Y-57722380D01*
X99774761Y-57722380D01*
X99060476Y-58103333D02*
X99108095Y-58055714D01*
X99203333Y-57912857D01*
X99250952Y-57817619D01*
X99298571Y-57674761D01*
X99346190Y-57436666D01*
X99346190Y-57246190D01*
X99298571Y-57008095D01*
X99250952Y-56865238D01*
X99203333Y-56770000D01*
X99108095Y-56627142D01*
X99060476Y-56579523D01*
X98155714Y-56770000D02*
X98250952Y-56722380D01*
X98393809Y-56722380D01*
X98536666Y-56770000D01*
X98631904Y-56865238D01*
X98679523Y-56960476D01*
X98727142Y-57150952D01*
X98727142Y-57293809D01*
X98679523Y-57484285D01*
X98631904Y-57579523D01*
X98536666Y-57674761D01*
X98393809Y-57722380D01*
X98298571Y-57722380D01*
X98155714Y-57674761D01*
X98108095Y-57627142D01*
X98108095Y-57293809D01*
X98298571Y-57293809D01*
X97679523Y-57722380D02*
X97679523Y-56722380D01*
X97108095Y-57722380D01*
X97108095Y-56722380D01*
X96631904Y-57722380D02*
X96631904Y-56722380D01*
X96393809Y-56722380D01*
X96250952Y-56770000D01*
X96155714Y-56865238D01*
X96108095Y-56960476D01*
X96060476Y-57150952D01*
X96060476Y-57293809D01*
X96108095Y-57484285D01*
X96155714Y-57579523D01*
X96250952Y-57674761D01*
X96393809Y-57722380D01*
X96631904Y-57722380D01*
X95727142Y-58103333D02*
X95679523Y-58055714D01*
X95584285Y-57912857D01*
X95536666Y-57817619D01*
X95489047Y-57674761D01*
X95441428Y-57436666D01*
X95441428Y-57246190D01*
X95489047Y-57008095D01*
X95536666Y-56865238D01*
X95584285Y-56770000D01*
X95679523Y-56627142D01*
X95727142Y-56579523D01*
X99774761Y-55182380D02*
X100346190Y-55182380D01*
X100060476Y-55182380D02*
X100060476Y-54182380D01*
X100155714Y-54325238D01*
X100250952Y-54420476D01*
X100346190Y-54468095D01*
X99060476Y-55563333D02*
X99108095Y-55515714D01*
X99203333Y-55372857D01*
X99250952Y-55277619D01*
X99298571Y-55134761D01*
X99346190Y-54896666D01*
X99346190Y-54706190D01*
X99298571Y-54468095D01*
X99250952Y-54325238D01*
X99203333Y-54230000D01*
X99108095Y-54087142D01*
X99060476Y-54039523D01*
X98155714Y-54230000D02*
X98250952Y-54182380D01*
X98393809Y-54182380D01*
X98536666Y-54230000D01*
X98631904Y-54325238D01*
X98679523Y-54420476D01*
X98727142Y-54610952D01*
X98727142Y-54753809D01*
X98679523Y-54944285D01*
X98631904Y-55039523D01*
X98536666Y-55134761D01*
X98393809Y-55182380D01*
X98298571Y-55182380D01*
X98155714Y-55134761D01*
X98108095Y-55087142D01*
X98108095Y-54753809D01*
X98298571Y-54753809D01*
X97679523Y-55182380D02*
X97679523Y-54182380D01*
X97108095Y-55182380D01*
X97108095Y-54182380D01*
X96631904Y-55182380D02*
X96631904Y-54182380D01*
X96393809Y-54182380D01*
X96250952Y-54230000D01*
X96155714Y-54325238D01*
X96108095Y-54420476D01*
X96060476Y-54610952D01*
X96060476Y-54753809D01*
X96108095Y-54944285D01*
X96155714Y-55039523D01*
X96250952Y-55134761D01*
X96393809Y-55182380D01*
X96631904Y-55182380D01*
X95727142Y-55563333D02*
X95679523Y-55515714D01*
X95584285Y-55372857D01*
X95536666Y-55277619D01*
X95489047Y-55134761D01*
X95441428Y-54896666D01*
X95441428Y-54706190D01*
X95489047Y-54468095D01*
X95536666Y-54325238D01*
X95584285Y-54230000D01*
X95679523Y-54087142D01*
X95727142Y-54039523D01*
X92270000Y-63207142D02*
X92231904Y-63130952D01*
X92231904Y-63016666D01*
X92270000Y-62902380D01*
X92346190Y-62826190D01*
X92422380Y-62788095D01*
X92574761Y-62750000D01*
X92689047Y-62750000D01*
X92841428Y-62788095D01*
X92917619Y-62826190D01*
X92993809Y-62902380D01*
X93031904Y-63016666D01*
X93031904Y-63092857D01*
X92993809Y-63207142D01*
X92955714Y-63245238D01*
X92689047Y-63245238D01*
X92689047Y-63092857D01*
X92498571Y-63588095D02*
X93031904Y-63588095D01*
X92574761Y-63588095D02*
X92536666Y-63626190D01*
X92498571Y-63702380D01*
X92498571Y-63816666D01*
X92536666Y-63892857D01*
X92612857Y-63930952D01*
X93031904Y-63930952D01*
X93031904Y-64654761D02*
X92231904Y-64654761D01*
X92993809Y-64654761D02*
X93031904Y-64578571D01*
X93031904Y-64426190D01*
X92993809Y-64350000D01*
X92955714Y-64311904D01*
X92879523Y-64273809D01*
X92650952Y-64273809D01*
X92574761Y-64311904D01*
X92536666Y-64350000D01*
X92498571Y-64426190D01*
X92498571Y-64578571D01*
X92536666Y-64654761D01*
X93031904Y-65645238D02*
X92231904Y-65645238D01*
X92231904Y-65835714D01*
X92270000Y-65950000D01*
X92346190Y-66026190D01*
X92422380Y-66064285D01*
X92574761Y-66102380D01*
X92689047Y-66102380D01*
X92841428Y-66064285D01*
X92917619Y-66026190D01*
X92993809Y-65950000D01*
X93031904Y-65835714D01*
X93031904Y-65645238D01*
X92727142Y-66445238D02*
X92727142Y-67054761D01*
X93031904Y-66750000D02*
X92422380Y-66750000D01*
X93031904Y-68045238D02*
X92231904Y-68045238D01*
X92231904Y-68235714D01*
X92270000Y-68350000D01*
X92346190Y-68426190D01*
X92422380Y-68464285D01*
X92574761Y-68502380D01*
X92689047Y-68502380D01*
X92841428Y-68464285D01*
X92917619Y-68426190D01*
X92993809Y-68350000D01*
X93031904Y-68235714D01*
X93031904Y-68045238D01*
X92727142Y-68845238D02*
X92727142Y-69454761D01*
X92231904Y-70826190D02*
X92231904Y-70445238D01*
X92612857Y-70407142D01*
X92574761Y-70445238D01*
X92536666Y-70521428D01*
X92536666Y-70711904D01*
X92574761Y-70788095D01*
X92612857Y-70826190D01*
X92689047Y-70864285D01*
X92879523Y-70864285D01*
X92955714Y-70826190D01*
X92993809Y-70788095D01*
X93031904Y-70711904D01*
X93031904Y-70521428D01*
X92993809Y-70445238D01*
X92955714Y-70407142D01*
X92231904Y-71092857D02*
X93031904Y-71359523D01*
X92231904Y-71626190D01*
D13*
X164564113Y-55650000D02*
G75*
G03*
X164564113Y-55650000I-3394113J0D01*
G01*
X164564113Y-80650000D02*
G75*
G03*
X164564113Y-80650000I-3394113J0D01*
G01*
X92564113Y-80650000D02*
G75*
G03*
X92564113Y-80650000I-3394113J0D01*
G01*
X92564113Y-55650000D02*
G75*
G03*
X92564113Y-55650000I-3394113J0D01*
G01*
D12*
X118473571Y-51651571D02*
X118366428Y-51687285D01*
X118187857Y-51687285D01*
X118116428Y-51651571D01*
X118080714Y-51615857D01*
X118045000Y-51544428D01*
X118045000Y-51473000D01*
X118080714Y-51401571D01*
X118116428Y-51365857D01*
X118187857Y-51330142D01*
X118330714Y-51294428D01*
X118402142Y-51258714D01*
X118437857Y-51223000D01*
X118473571Y-51151571D01*
X118473571Y-51080142D01*
X118437857Y-51008714D01*
X118402142Y-50973000D01*
X118330714Y-50937285D01*
X118152142Y-50937285D01*
X118045000Y-50973000D01*
X117723571Y-51687285D02*
X117723571Y-50937285D01*
X117545000Y-50937285D01*
X117437857Y-50973000D01*
X117366428Y-51044428D01*
X117330714Y-51115857D01*
X117295000Y-51258714D01*
X117295000Y-51365857D01*
X117330714Y-51508714D01*
X117366428Y-51580142D01*
X117437857Y-51651571D01*
X117545000Y-51687285D01*
X117723571Y-51687285D01*
X117009285Y-51473000D02*
X116652142Y-51473000D01*
X117080714Y-51687285D02*
X116830714Y-50937285D01*
X116580714Y-51687285D01*
X115795000Y-51651571D02*
X115687857Y-51687285D01*
X115509285Y-51687285D01*
X115437857Y-51651571D01*
X115402142Y-51615857D01*
X115366428Y-51544428D01*
X115366428Y-51473000D01*
X115402142Y-51401571D01*
X115437857Y-51365857D01*
X115509285Y-51330142D01*
X115652142Y-51294428D01*
X115723571Y-51258714D01*
X115759285Y-51223000D01*
X115795000Y-51151571D01*
X115795000Y-51080142D01*
X115759285Y-51008714D01*
X115723571Y-50973000D01*
X115652142Y-50937285D01*
X115473571Y-50937285D01*
X115366428Y-50973000D01*
X114616428Y-51615857D02*
X114652142Y-51651571D01*
X114759285Y-51687285D01*
X114830714Y-51687285D01*
X114937857Y-51651571D01*
X115009285Y-51580142D01*
X115045000Y-51508714D01*
X115080714Y-51365857D01*
X115080714Y-51258714D01*
X115045000Y-51115857D01*
X115009285Y-51044428D01*
X114937857Y-50973000D01*
X114830714Y-50937285D01*
X114759285Y-50937285D01*
X114652142Y-50973000D01*
X114616428Y-51008714D01*
X113937857Y-51687285D02*
X114295000Y-51687285D01*
X114295000Y-50937285D01*
X113116428Y-51687285D02*
X113116428Y-50937285D01*
X112830714Y-50937285D01*
X112759285Y-50973000D01*
X112723571Y-51008714D01*
X112687857Y-51080142D01*
X112687857Y-51187285D01*
X112723571Y-51258714D01*
X112759285Y-51294428D01*
X112830714Y-51330142D01*
X113116428Y-51330142D01*
X112366428Y-51687285D02*
X112366428Y-51187285D01*
X112366428Y-50937285D02*
X112402142Y-50973000D01*
X112366428Y-51008714D01*
X112330714Y-50973000D01*
X112366428Y-50937285D01*
X112366428Y-51008714D01*
X112009285Y-51187285D02*
X112009285Y-51687285D01*
X112009285Y-51258714D02*
X111973571Y-51223000D01*
X111902142Y-51187285D01*
X111795000Y-51187285D01*
X111723571Y-51223000D01*
X111687857Y-51294428D01*
X111687857Y-51687285D01*
X111366428Y-51008714D02*
X111330714Y-50973000D01*
X111259285Y-50937285D01*
X111080714Y-50937285D01*
X111009285Y-50973000D01*
X110973571Y-51008714D01*
X110937857Y-51080142D01*
X110937857Y-51151571D01*
X110973571Y-51258714D01*
X111402142Y-51687285D01*
X110937857Y-51687285D01*
X110045000Y-51687285D02*
X110045000Y-50937285D01*
X109759285Y-50937285D01*
X109687857Y-50973000D01*
X109652142Y-51008714D01*
X109616428Y-51080142D01*
X109616428Y-51187285D01*
X109652142Y-51258714D01*
X109687857Y-51294428D01*
X109759285Y-51330142D01*
X110045000Y-51330142D01*
X109295000Y-51687285D02*
X109295000Y-51187285D01*
X109295000Y-50937285D02*
X109330714Y-50973000D01*
X109295000Y-51008714D01*
X109259285Y-50973000D01*
X109295000Y-50937285D01*
X109295000Y-51008714D01*
X108937857Y-51187285D02*
X108937857Y-51687285D01*
X108937857Y-51258714D02*
X108902142Y-51223000D01*
X108830714Y-51187285D01*
X108723571Y-51187285D01*
X108652142Y-51223000D01*
X108616428Y-51294428D01*
X108616428Y-51687285D01*
X107866428Y-51687285D02*
X108295000Y-51687285D01*
X108080714Y-51687285D02*
X108080714Y-50937285D01*
X108152142Y-51044428D01*
X108223571Y-51115857D01*
X108295000Y-51151571D01*
D14*
X107457171Y-76439171D02*
X107957171Y-75724885D01*
X108314314Y-76439171D02*
X108314314Y-74939171D01*
X107742885Y-74939171D01*
X107600028Y-75010600D01*
X107528600Y-75082028D01*
X107457171Y-75224885D01*
X107457171Y-75439171D01*
X107528600Y-75582028D01*
X107600028Y-75653457D01*
X107742885Y-75724885D01*
X108314314Y-75724885D01*
X106814314Y-75653457D02*
X106314314Y-75653457D01*
X106100028Y-76439171D02*
X106814314Y-76439171D01*
X106814314Y-74939171D01*
X106100028Y-74939171D01*
X105528600Y-76367742D02*
X105314314Y-76439171D01*
X104957171Y-76439171D01*
X104814314Y-76367742D01*
X104742885Y-76296314D01*
X104671457Y-76153457D01*
X104671457Y-76010600D01*
X104742885Y-75867742D01*
X104814314Y-75796314D01*
X104957171Y-75724885D01*
X105242885Y-75653457D01*
X105385742Y-75582028D01*
X105457171Y-75510600D01*
X105528600Y-75367742D01*
X105528600Y-75224885D01*
X105457171Y-75082028D01*
X105385742Y-75010600D01*
X105242885Y-74939171D01*
X104885742Y-74939171D01*
X104671457Y-75010600D01*
X104028600Y-75653457D02*
X103528600Y-75653457D01*
X103314314Y-76439171D02*
X104028600Y-76439171D01*
X104028600Y-74939171D01*
X103314314Y-74939171D01*
X102885742Y-74939171D02*
X102028600Y-74939171D01*
X102457171Y-76439171D02*
X102457171Y-74939171D01*
D15*
X85170000Y-84650000D02*
X85170000Y-49650000D01*
X165170000Y-84650000D02*
X85170000Y-84650000D01*
X165170000Y-49650000D02*
X165170000Y-84650000D01*
X85170000Y-49650000D02*
X165170000Y-49650000D01*
D13*
X101602000Y-81605400D02*
X101602000Y-80105400D01*
X102852000Y-77605400D02*
X107352000Y-77605400D01*
X108602000Y-80105400D02*
X108602000Y-81605400D01*
X107352000Y-84105400D02*
X102852000Y-84105400D01*
X99841422Y-67710000D02*
X100358578Y-67710000D01*
X99841422Y-69130000D02*
X100358578Y-69130000D01*
X95380000Y-77409322D02*
X95380000Y-77926478D01*
X93960000Y-77409322D02*
X93960000Y-77926478D01*
X100900000Y-55730000D02*
X105000000Y-55730000D01*
X105000000Y-55730000D02*
X105000000Y-53730000D01*
X105000000Y-53730000D02*
X100900000Y-53730000D01*
X100900000Y-53730000D02*
X100900000Y-55730000D01*
X101650000Y-53530000D02*
X101350000Y-53230000D01*
X101350000Y-53230000D02*
X101950000Y-53230000D01*
X101650000Y-53530000D02*
X101950000Y-53230000D01*
X105000000Y-56270000D02*
X100900000Y-56270000D01*
X100900000Y-56270000D02*
X100900000Y-58270000D01*
X100900000Y-58270000D02*
X105000000Y-58270000D01*
X105000000Y-58270000D02*
X105000000Y-56270000D01*
X104250000Y-58470000D02*
X104550000Y-58770000D01*
X104550000Y-58770000D02*
X103950000Y-58770000D01*
X104250000Y-58470000D02*
X103950000Y-58770000D01*
X154445000Y-61775000D02*
X154445000Y-60445000D01*
X153115000Y-61775000D02*
X154445000Y-61775000D01*
X151845000Y-61775000D02*
X151845000Y-59115000D01*
X151845000Y-59115000D02*
X149245000Y-59115000D01*
X151845000Y-61775000D02*
X149245000Y-61775000D01*
X149245000Y-61775000D02*
X149245000Y-59115000D01*
X93340000Y-72290000D02*
X94670000Y-72290000D01*
X93340000Y-70960000D02*
X93340000Y-72290000D01*
X93340000Y-69690000D02*
X96000000Y-69690000D01*
X96000000Y-69690000D02*
X96000000Y-62010000D01*
X93340000Y-69690000D02*
X93340000Y-62010000D01*
X93340000Y-62010000D02*
X96000000Y-62010000D01*
X90232500Y-68850000D02*
X89782500Y-68850000D01*
X90232500Y-68850000D02*
X90232500Y-68400000D01*
X89682500Y-63250000D02*
X89682500Y-63700000D01*
X87832500Y-63250000D02*
X89682500Y-63250000D01*
X85282500Y-71050000D02*
X85532500Y-71050000D01*
X85282500Y-63250000D02*
X85532500Y-63250000D01*
X87832500Y-71050000D02*
X89682500Y-71050000D01*
X89682500Y-71050000D02*
X89682500Y-70600000D01*
X137042000Y-54535722D02*
X137042000Y-55052878D01*
X135622000Y-54535722D02*
X135622000Y-55052878D01*
X119006400Y-58541422D02*
X119006400Y-59058578D01*
X117586400Y-58541422D02*
X117586400Y-59058578D01*
X110737822Y-67418000D02*
X111254978Y-67418000D01*
X110737822Y-68838000D02*
X111254978Y-68838000D01*
X110737822Y-72358200D02*
X111254978Y-72358200D01*
X110737822Y-73778200D02*
X111254978Y-73778200D01*
X120122000Y-54535722D02*
X120122000Y-55052878D01*
X121542000Y-54535722D02*
X121542000Y-55052878D01*
X109343800Y-63573178D02*
X109343800Y-63056022D01*
X110763800Y-63573178D02*
X110763800Y-63056022D01*
X128670000Y-81017200D02*
X128670000Y-82347200D01*
X130000000Y-81017200D02*
X128670000Y-81017200D01*
X131270000Y-81017200D02*
X131270000Y-83677200D01*
X131270000Y-83677200D02*
X156730000Y-83677200D01*
X131270000Y-81017200D02*
X156730000Y-81017200D01*
X156730000Y-81017200D02*
X156730000Y-83677200D01*
X142302600Y-51138800D02*
X142302600Y-52468800D01*
X143632600Y-51138800D02*
X142302600Y-51138800D01*
X142302600Y-53738800D02*
X142302600Y-56338800D01*
X144902600Y-53738800D02*
X142302600Y-53738800D01*
X144902600Y-51138800D02*
X144902600Y-53738800D01*
X142302600Y-56338800D02*
X150042600Y-56338800D01*
X144902600Y-51138800D02*
X150042600Y-51138800D01*
X150042600Y-51138800D02*
X150042600Y-56338800D01*
X114907200Y-80150400D02*
X114907200Y-81280400D01*
X115667200Y-80150400D02*
X114907200Y-80150400D01*
X114972200Y-82857930D02*
X114972200Y-83680400D01*
X114972200Y-82040400D02*
X114972200Y-82242870D01*
X115103729Y-82040400D02*
X114972200Y-82040400D01*
X116373729Y-82040400D02*
X116230671Y-82040400D01*
X116427200Y-81843871D02*
X116427200Y-81986929D01*
X116427200Y-80150400D02*
X116427200Y-80716929D01*
X114972200Y-83680400D02*
X121442200Y-83680400D01*
X116427200Y-80150400D02*
X121442200Y-80150400D01*
X121442200Y-81587930D02*
X121442200Y-82242870D01*
X121442200Y-82857930D02*
X121442200Y-83680400D01*
X121442200Y-80150400D02*
X121442200Y-80972870D01*
X100358578Y-66590000D02*
X99841422Y-66590000D01*
X100358578Y-65170000D02*
X99841422Y-65170000D01*
X130166022Y-76292800D02*
X130683178Y-76292800D01*
X130166022Y-74872800D02*
X130683178Y-74872800D01*
D10*
X115521400Y-73528000D02*
X114246400Y-73528000D01*
X125871400Y-74103000D02*
X125196400Y-74103000D01*
X125871400Y-63753000D02*
X125196400Y-63753000D01*
X115521400Y-63753000D02*
X116196400Y-63753000D01*
X115521400Y-74103000D02*
X116196400Y-74103000D01*
X115521400Y-63753000D02*
X115521400Y-64428000D01*
X125871400Y-63753000D02*
X125871400Y-64428000D01*
X125871400Y-74103000D02*
X125871400Y-73428000D01*
X115521400Y-74103000D02*
X115521400Y-73528000D01*
D13*
X125382000Y-51340800D02*
X131782000Y-51340800D01*
X125382000Y-56390800D02*
X131782000Y-56390800D01*
X131782000Y-51340800D02*
G75*
G02*
X131782000Y-56390800I0J-2525000D01*
G01*
X125382000Y-51340800D02*
G75*
G03*
X125382000Y-56390800I0J-2525000D01*
G01*
X130138322Y-65018000D02*
X130655478Y-65018000D01*
X130138322Y-66438000D02*
X130655478Y-66438000D01*
X123986400Y-77938122D02*
X123986400Y-78455278D01*
X125406400Y-77938122D02*
X125406400Y-78455278D01*
D10*
X112684333Y-81397161D02*
X112541476Y-81444780D01*
X112303380Y-81444780D01*
X112208142Y-81397161D01*
X112160523Y-81349542D01*
X112112904Y-81254304D01*
X112112904Y-81159066D01*
X112160523Y-81063828D01*
X112208142Y-81016209D01*
X112303380Y-80968590D01*
X112493857Y-80920971D01*
X112589095Y-80873352D01*
X112636714Y-80825733D01*
X112684333Y-80730495D01*
X112684333Y-80635257D01*
X112636714Y-80540019D01*
X112589095Y-80492400D01*
X112493857Y-80444780D01*
X112255761Y-80444780D01*
X112112904Y-80492400D01*
X111779571Y-80444780D02*
X111541476Y-81444780D01*
X111351000Y-80730495D01*
X111160523Y-81444780D01*
X110922428Y-80444780D01*
X110017666Y-81444780D02*
X110589095Y-81444780D01*
X110303380Y-81444780D02*
X110303380Y-80444780D01*
X110398619Y-80587638D01*
X110493857Y-80682876D01*
X110589095Y-80730495D01*
X100314466Y-70828180D02*
X100647800Y-70351990D01*
X100885895Y-70828180D02*
X100885895Y-69828180D01*
X100504942Y-69828180D01*
X100409704Y-69875800D01*
X100362085Y-69923419D01*
X100314466Y-70018657D01*
X100314466Y-70161514D01*
X100362085Y-70256752D01*
X100409704Y-70304371D01*
X100504942Y-70351990D01*
X100885895Y-70351990D01*
X99981133Y-69828180D02*
X99362085Y-69828180D01*
X99695419Y-70209133D01*
X99552561Y-70209133D01*
X99457323Y-70256752D01*
X99409704Y-70304371D01*
X99362085Y-70399609D01*
X99362085Y-70637704D01*
X99409704Y-70732942D01*
X99457323Y-70780561D01*
X99552561Y-70828180D01*
X99838276Y-70828180D01*
X99933514Y-70780561D01*
X99981133Y-70732942D01*
X94320666Y-75146780D02*
X94654000Y-74670590D01*
X94892095Y-75146780D02*
X94892095Y-74146780D01*
X94511142Y-74146780D01*
X94415904Y-74194400D01*
X94368285Y-74242019D01*
X94320666Y-74337257D01*
X94320666Y-74480114D01*
X94368285Y-74575352D01*
X94415904Y-74622971D01*
X94511142Y-74670590D01*
X94892095Y-74670590D01*
X93368285Y-75146780D02*
X93939714Y-75146780D01*
X93654000Y-75146780D02*
X93654000Y-74146780D01*
X93749238Y-74289638D01*
X93844476Y-74384876D01*
X93939714Y-74432495D01*
X154897380Y-60111666D02*
X155611666Y-60111666D01*
X155754523Y-60064047D01*
X155849761Y-59968809D01*
X155897380Y-59825952D01*
X155897380Y-59730714D01*
X154897380Y-61064047D02*
X154897380Y-60587857D01*
X155373571Y-60540238D01*
X155325952Y-60587857D01*
X155278333Y-60683095D01*
X155278333Y-60921190D01*
X155325952Y-61016428D01*
X155373571Y-61064047D01*
X155468809Y-61111666D01*
X155706904Y-61111666D01*
X155802142Y-61064047D01*
X155849761Y-61016428D01*
X155897380Y-60921190D01*
X155897380Y-60683095D01*
X155849761Y-60587857D01*
X155802142Y-60540238D01*
X95003333Y-72742380D02*
X95003333Y-73456666D01*
X95050952Y-73599523D01*
X95146190Y-73694761D01*
X95289047Y-73742380D01*
X95384285Y-73742380D01*
X94574761Y-72837619D02*
X94527142Y-72790000D01*
X94431904Y-72742380D01*
X94193809Y-72742380D01*
X94098571Y-72790000D01*
X94050952Y-72837619D01*
X94003333Y-72932857D01*
X94003333Y-73028095D01*
X94050952Y-73170952D01*
X94622380Y-73742380D01*
X94003333Y-73742380D01*
X90484880Y-66816666D02*
X91199166Y-66816666D01*
X91342023Y-66769047D01*
X91437261Y-66673809D01*
X91484880Y-66530952D01*
X91484880Y-66435714D01*
X91484880Y-67816666D02*
X91484880Y-67245238D01*
X91484880Y-67530952D02*
X90484880Y-67530952D01*
X90627738Y-67435714D01*
X90722976Y-67340476D01*
X90770595Y-67245238D01*
X136781142Y-57557633D02*
X136828761Y-57510014D01*
X136876380Y-57367157D01*
X136876380Y-57271919D01*
X136828761Y-57129061D01*
X136733523Y-57033823D01*
X136638285Y-56986204D01*
X136447809Y-56938585D01*
X136304952Y-56938585D01*
X136114476Y-56986204D01*
X136019238Y-57033823D01*
X135924000Y-57129061D01*
X135876380Y-57271919D01*
X135876380Y-57367157D01*
X135924000Y-57510014D01*
X135971619Y-57557633D01*
X136209714Y-58414776D02*
X136876380Y-58414776D01*
X135828761Y-58176680D02*
X136543047Y-57938585D01*
X136543047Y-58557633D01*
X120177542Y-58453833D02*
X120225161Y-58406214D01*
X120272780Y-58263357D01*
X120272780Y-58168119D01*
X120225161Y-58025261D01*
X120129923Y-57930023D01*
X120034685Y-57882404D01*
X119844209Y-57834785D01*
X119701352Y-57834785D01*
X119510876Y-57882404D01*
X119415638Y-57930023D01*
X119320400Y-58025261D01*
X119272780Y-58168119D01*
X119272780Y-58263357D01*
X119320400Y-58406214D01*
X119368019Y-58453833D01*
X119272780Y-58787166D02*
X119272780Y-59406214D01*
X119653733Y-59072880D01*
X119653733Y-59215738D01*
X119701352Y-59310976D01*
X119748971Y-59358595D01*
X119844209Y-59406214D01*
X120082304Y-59406214D01*
X120177542Y-59358595D01*
X120225161Y-59310976D01*
X120272780Y-59215738D01*
X120272780Y-58930023D01*
X120225161Y-58834785D01*
X120177542Y-58787166D01*
X111264666Y-70110742D02*
X111312285Y-70158361D01*
X111455142Y-70205980D01*
X111550380Y-70205980D01*
X111693238Y-70158361D01*
X111788476Y-70063123D01*
X111836095Y-69967885D01*
X111883714Y-69777409D01*
X111883714Y-69634552D01*
X111836095Y-69444076D01*
X111788476Y-69348838D01*
X111693238Y-69253600D01*
X111550380Y-69205980D01*
X111455142Y-69205980D01*
X111312285Y-69253600D01*
X111264666Y-69301219D01*
X110883714Y-69301219D02*
X110836095Y-69253600D01*
X110740857Y-69205980D01*
X110502761Y-69205980D01*
X110407523Y-69253600D01*
X110359904Y-69301219D01*
X110312285Y-69396457D01*
X110312285Y-69491695D01*
X110359904Y-69634552D01*
X110931333Y-70205980D01*
X110312285Y-70205980D01*
X111165366Y-75152542D02*
X111212985Y-75200161D01*
X111355842Y-75247780D01*
X111451080Y-75247780D01*
X111593938Y-75200161D01*
X111689176Y-75104923D01*
X111736795Y-75009685D01*
X111784414Y-74819209D01*
X111784414Y-74676352D01*
X111736795Y-74485876D01*
X111689176Y-74390638D01*
X111593938Y-74295400D01*
X111451080Y-74247780D01*
X111355842Y-74247780D01*
X111212985Y-74295400D01*
X111165366Y-74343019D01*
X110212985Y-75247780D02*
X110784414Y-75247780D01*
X110498700Y-75247780D02*
X110498700Y-74247780D01*
X110593938Y-74390638D01*
X110689176Y-74485876D01*
X110784414Y-74533495D01*
X119539142Y-54627633D02*
X119586761Y-54580014D01*
X119634380Y-54437157D01*
X119634380Y-54341919D01*
X119586761Y-54199061D01*
X119491523Y-54103823D01*
X119396285Y-54056204D01*
X119205809Y-54008585D01*
X119062952Y-54008585D01*
X118872476Y-54056204D01*
X118777238Y-54103823D01*
X118682000Y-54199061D01*
X118634380Y-54341919D01*
X118634380Y-54437157D01*
X118682000Y-54580014D01*
X118729619Y-54627633D01*
X118634380Y-55532395D02*
X118634380Y-55056204D01*
X119110571Y-55008585D01*
X119062952Y-55056204D01*
X119015333Y-55151442D01*
X119015333Y-55389538D01*
X119062952Y-55484776D01*
X119110571Y-55532395D01*
X119205809Y-55580014D01*
X119443904Y-55580014D01*
X119539142Y-55532395D01*
X119586761Y-55484776D01*
X119634380Y-55389538D01*
X119634380Y-55151442D01*
X119586761Y-55056204D01*
X119539142Y-55008585D01*
X112060942Y-63147933D02*
X112108561Y-63100314D01*
X112156180Y-62957457D01*
X112156180Y-62862219D01*
X112108561Y-62719361D01*
X112013323Y-62624123D01*
X111918085Y-62576504D01*
X111727609Y-62528885D01*
X111584752Y-62528885D01*
X111394276Y-62576504D01*
X111299038Y-62624123D01*
X111203800Y-62719361D01*
X111156180Y-62862219D01*
X111156180Y-62957457D01*
X111203800Y-63100314D01*
X111251419Y-63147933D01*
X111156180Y-64005076D02*
X111156180Y-63814600D01*
X111203800Y-63719361D01*
X111251419Y-63671742D01*
X111394276Y-63576504D01*
X111584752Y-63528885D01*
X111965704Y-63528885D01*
X112060942Y-63576504D01*
X112108561Y-63624123D01*
X112156180Y-63719361D01*
X112156180Y-63909838D01*
X112108561Y-64005076D01*
X112060942Y-64052695D01*
X111965704Y-64100314D01*
X111727609Y-64100314D01*
X111632371Y-64052695D01*
X111584752Y-64005076D01*
X111537133Y-63909838D01*
X111537133Y-63719361D01*
X111584752Y-63624123D01*
X111632371Y-63576504D01*
X111727609Y-63528885D01*
X127122380Y-82013866D02*
X127836666Y-82013866D01*
X127979523Y-81966247D01*
X128074761Y-81871009D01*
X128122380Y-81728152D01*
X128122380Y-81632914D01*
X127122380Y-82394819D02*
X127122380Y-83013866D01*
X127503333Y-82680533D01*
X127503333Y-82823390D01*
X127550952Y-82918628D01*
X127598571Y-82966247D01*
X127693809Y-83013866D01*
X127931904Y-83013866D01*
X128027142Y-82966247D01*
X128074761Y-82918628D01*
X128122380Y-82823390D01*
X128122380Y-82537676D01*
X128074761Y-82442438D01*
X128027142Y-82394819D01*
X140754980Y-53405466D02*
X141469266Y-53405466D01*
X141612123Y-53357847D01*
X141707361Y-53262609D01*
X141754980Y-53119752D01*
X141754980Y-53024514D01*
X140754980Y-54310228D02*
X140754980Y-54119752D01*
X140802600Y-54024514D01*
X140850219Y-53976895D01*
X140993076Y-53881657D01*
X141183552Y-53834038D01*
X141564504Y-53834038D01*
X141659742Y-53881657D01*
X141707361Y-53929276D01*
X141754980Y-54024514D01*
X141754980Y-54214990D01*
X141707361Y-54310228D01*
X141659742Y-54357847D01*
X141564504Y-54405466D01*
X141326409Y-54405466D01*
X141231171Y-54357847D01*
X141183552Y-54310228D01*
X141135933Y-54214990D01*
X141135933Y-54024514D01*
X141183552Y-53929276D01*
X141231171Y-53881657D01*
X141326409Y-53834038D01*
X151494980Y-52262609D02*
X150494980Y-52262609D01*
X151399742Y-53310228D02*
X151447361Y-53262609D01*
X151494980Y-53119752D01*
X151494980Y-53024514D01*
X151447361Y-52881657D01*
X151352123Y-52786419D01*
X151256885Y-52738800D01*
X151066409Y-52691180D01*
X150923552Y-52691180D01*
X150733076Y-52738800D01*
X150637838Y-52786419D01*
X150542600Y-52881657D01*
X150494980Y-53024514D01*
X150494980Y-53119752D01*
X150542600Y-53262609D01*
X150590219Y-53310228D01*
X151447361Y-53691180D02*
X151494980Y-53834038D01*
X151494980Y-54072133D01*
X151447361Y-54167371D01*
X151399742Y-54214990D01*
X151304504Y-54262609D01*
X151209266Y-54262609D01*
X151114028Y-54214990D01*
X151066409Y-54167371D01*
X151018790Y-54072133D01*
X150971171Y-53881657D01*
X150923552Y-53786419D01*
X150875933Y-53738800D01*
X150780695Y-53691180D01*
X150685457Y-53691180D01*
X150590219Y-53738800D01*
X150542600Y-53786419D01*
X150494980Y-53881657D01*
X150494980Y-54119752D01*
X150542600Y-54262609D01*
X151494980Y-54691180D02*
X150494980Y-54691180D01*
X150494980Y-55072133D01*
X150542600Y-55167371D01*
X150590219Y-55214990D01*
X150685457Y-55262609D01*
X150828314Y-55262609D01*
X150923552Y-55214990D01*
X150971171Y-55167371D01*
X151018790Y-55072133D01*
X151018790Y-54691180D01*
X113424580Y-81582066D02*
X114138866Y-81582066D01*
X114281723Y-81534447D01*
X114376961Y-81439209D01*
X114424580Y-81296352D01*
X114424580Y-81201114D01*
X113424580Y-81963019D02*
X113424580Y-82629685D01*
X114424580Y-82201114D01*
X100266666Y-64682380D02*
X100600000Y-64206190D01*
X100838095Y-64682380D02*
X100838095Y-63682380D01*
X100457142Y-63682380D01*
X100361904Y-63730000D01*
X100314285Y-63777619D01*
X100266666Y-63872857D01*
X100266666Y-64015714D01*
X100314285Y-64110952D01*
X100361904Y-64158571D01*
X100457142Y-64206190D01*
X100838095Y-64206190D01*
X99885714Y-63777619D02*
X99838095Y-63730000D01*
X99742857Y-63682380D01*
X99504761Y-63682380D01*
X99409523Y-63730000D01*
X99361904Y-63777619D01*
X99314285Y-63872857D01*
X99314285Y-63968095D01*
X99361904Y-64110952D01*
X99933333Y-64682380D01*
X99314285Y-64682380D01*
X130591266Y-74307980D02*
X130924600Y-73831790D01*
X131162695Y-74307980D02*
X131162695Y-73307980D01*
X130781742Y-73307980D01*
X130686504Y-73355600D01*
X130638885Y-73403219D01*
X130591266Y-73498457D01*
X130591266Y-73641314D01*
X130638885Y-73736552D01*
X130686504Y-73784171D01*
X130781742Y-73831790D01*
X131162695Y-73831790D01*
X129734123Y-73641314D02*
X129734123Y-74307980D01*
X129972219Y-73260361D02*
X130210314Y-73974647D01*
X129591266Y-73974647D01*
X121458304Y-75830380D02*
X121458304Y-76639904D01*
X121410685Y-76735142D01*
X121363066Y-76782761D01*
X121267828Y-76830380D01*
X121077352Y-76830380D01*
X120982114Y-76782761D01*
X120934495Y-76735142D01*
X120886876Y-76639904D01*
X120886876Y-75830380D01*
X119886876Y-76830380D02*
X120458304Y-76830380D01*
X120172590Y-76830380D02*
X120172590Y-75830380D01*
X120267828Y-75973238D01*
X120363066Y-76068476D01*
X120458304Y-76116095D01*
X129058190Y-57366990D02*
X129058190Y-57843180D01*
X129391523Y-56843180D02*
X129058190Y-57366990D01*
X128724857Y-56843180D01*
X127867714Y-57843180D02*
X128439142Y-57843180D01*
X128153428Y-57843180D02*
X128153428Y-56843180D01*
X128248666Y-56986038D01*
X128343904Y-57081276D01*
X128439142Y-57128895D01*
X130563566Y-67735142D02*
X130611185Y-67782761D01*
X130754042Y-67830380D01*
X130849280Y-67830380D01*
X130992138Y-67782761D01*
X131087376Y-67687523D01*
X131134995Y-67592285D01*
X131182614Y-67401809D01*
X131182614Y-67258952D01*
X131134995Y-67068476D01*
X131087376Y-66973238D01*
X130992138Y-66878000D01*
X130849280Y-66830380D01*
X130754042Y-66830380D01*
X130611185Y-66878000D01*
X130563566Y-66925619D01*
X130230233Y-66830380D02*
X129563566Y-66830380D01*
X129992138Y-67830380D01*
X123403542Y-78030033D02*
X123451161Y-77982414D01*
X123498780Y-77839557D01*
X123498780Y-77744319D01*
X123451161Y-77601461D01*
X123355923Y-77506223D01*
X123260685Y-77458604D01*
X123070209Y-77410985D01*
X122927352Y-77410985D01*
X122736876Y-77458604D01*
X122641638Y-77506223D01*
X122546400Y-77601461D01*
X122498780Y-77744319D01*
X122498780Y-77839557D01*
X122546400Y-77982414D01*
X122594019Y-78030033D01*
X122927352Y-78601461D02*
X122879733Y-78506223D01*
X122832114Y-78458604D01*
X122736876Y-78410985D01*
X122689257Y-78410985D01*
X122594019Y-78458604D01*
X122546400Y-78506223D01*
X122498780Y-78601461D01*
X122498780Y-78791938D01*
X122546400Y-78887176D01*
X122594019Y-78934795D01*
X122689257Y-78982414D01*
X122736876Y-78982414D01*
X122832114Y-78934795D01*
X122879733Y-78887176D01*
X122927352Y-78791938D01*
X122927352Y-78601461D01*
X122974971Y-78506223D01*
X123022590Y-78458604D01*
X123117828Y-78410985D01*
X123308304Y-78410985D01*
X123403542Y-78458604D01*
X123451161Y-78506223D01*
X123498780Y-78601461D01*
X123498780Y-78791938D01*
X123451161Y-78887176D01*
X123403542Y-78934795D01*
X123308304Y-78982414D01*
X123117828Y-78982414D01*
X123022590Y-78934795D01*
X122974971Y-78887176D01*
X122927352Y-78791938D01*
M02*
