M48
; DRILL file {KiCad (5.1.9)-1} date 03/07/21 21:45:34
; FORMAT={-:-/ absolute / inch / decimal}
; #@! TF.CreationDate,2021-03-07T21:45:34-03:00
; #@! TF.GenerationSoftware,Kicad,Pcbnew,(5.1.9)-1
FMAT,2
INCH
T1C0.0157
T2C0.0197
T3C0.0236
T4C0.0256
T5C0.0300
T6C0.0394
T7C0.0433
T8C0.0591
T9C0.0787
T10C0.1260
%
G90
G05
T1
X4.1748Y-2.2047
X4.2478Y-2.1547
X4.3328Y-2.5967
X4.3878Y-2.6192
X4.4268Y-2.5877
X4.4558Y-2.6507
X4.4588Y-2.7297
X4.4618Y-2.5562
X4.5274Y-2.9607
X4.5928Y-2.6822
X4.5943Y-2.3858
X4.5943Y-2.8397
X4.6258Y-2.4232
X4.6573Y-2.5557
X4.6868Y-3.0047
X4.7108Y-3.0387
X4.7518Y-2.7137
X4.7668Y-3.1347
X4.7833Y-2.4232
X4.8148Y-2.3858
X4.8463Y-2.4232
X4.8778Y-2.3858
X4.9093Y-2.4232
X4.9093Y-2.8727
X4.9108Y-2.5877
X5.0438Y-2.6192
X5.0438Y-2.6822
X5.0438Y-2.8082
X5.0778Y-2.6507
X5.0778Y-2.8397
X5.4868Y-3.0607
X6.1996Y-2.2767
X6.3531Y-2.4547
X6.3925Y-2.2947
X6.4281Y-2.4547
T4
X4.5538Y-3.2
X4.5538Y-3.25
X4.6038Y-3.2
X4.6038Y-3.25
X4.6538Y-3.2
X4.6538Y-3.25
X4.7038Y-3.2
X4.7038Y-3.25
X4.7538Y-3.2
X4.7538Y-3.25
T5
X4.3173Y-2.0807
X4.4173Y-2.0807
X4.5173Y-2.0807
X4.6173Y-2.0807
T6
X3.7272Y-2.4937
X3.7272Y-2.5937
X3.7272Y-2.6937
X3.7272Y-2.7937
X5.1181Y-3.242
X5.2181Y-3.242
X5.3181Y-3.242
X5.4181Y-3.242
X5.5181Y-3.242
X5.6181Y-3.242
X5.6548Y-2.0657
X5.6548Y-2.1657
X5.7181Y-3.242
X5.7548Y-2.0657
X5.7548Y-2.1657
X5.8181Y-3.242
X5.8548Y-2.0657
X5.8548Y-2.1657
X5.9181Y-3.242
X5.9281Y-2.3797
X6.0181Y-3.242
X6.0281Y-2.3797
X6.1181Y-3.242
T7
X4.0099Y-3.0947
X4.0099Y-3.2719
X4.2658Y-3.0947
X4.2658Y-3.2719
X5.5874Y-2.3681
X5.5874Y-2.939
X5.6858Y-2.939
X5.7843Y-2.3681
X5.7843Y-2.939
X6.1681Y-2.752
X6.1681Y-2.9291
X6.424Y-2.752
X6.424Y-2.9291
T8
X4.9658Y-2.1207
X5.1587Y-2.1207
T10
X3.5106Y-2.1909
X3.5106Y-3.1752
X6.3453Y-2.1909
X6.3453Y-3.1752
T2
G00X3.439Y-2.6654
M15
G01X3.439Y-2.622
M16
G05
G00X3.519Y-2.5514
M15
G01X3.519Y-2.516
M16
G05
G00X3.519Y-2.7714
M15
G01X3.519Y-2.736
M16
G05
T3
G00X3.3989Y-2.5059
M15
G01X3.4265Y-2.5059
M16
G05
G00X3.4265Y-2.7815
M15
G01X3.3989Y-2.7815
M16
G05
T9
G00X5.4858Y-2.624
M15
G01X5.4858Y-2.6634
M16
G05
G00X5.8858Y-2.6634
M15
G01X5.8858Y-2.624
M16
G05
T0
M30
