G04 #@! TF.GenerationSoftware,KiCad,Pcbnew,(5.1.9)-1*
G04 #@! TF.CreationDate,2021-03-07T21:45:31-03:00*
G04 #@! TF.ProjectId,V0_Display,56305f44-6973-4706-9c61-792e6b696361,rev?*
G04 #@! TF.SameCoordinates,Original*
G04 #@! TF.FileFunction,Copper,L2,Inr*
G04 #@! TF.FilePolarity,Positive*
%FSLAX46Y46*%
G04 Gerber Fmt 4.6, Leading zero omitted, Abs format (unit mm)*
G04 Created by KiCad (PCBNEW (5.1.9)-1) date 2021-03-07 21:45:31*
%MOMM*%
%LPD*%
G01*
G04 APERTURE LIST*
G04 #@! TA.AperFunction,Profile*
%ADD10C,0.050000*%
G04 #@! TD*
G04 #@! TA.AperFunction,ComponentPad*
%ADD11C,1.524000*%
G04 #@! TD*
G04 #@! TA.AperFunction,ComponentPad*
%ADD12O,2.500000X4.000000*%
G04 #@! TD*
G04 #@! TA.AperFunction,ComponentPad*
%ADD13C,2.000000*%
G04 #@! TD*
G04 #@! TA.AperFunction,ComponentPad*
%ADD14O,1.700000X1.700000*%
G04 #@! TD*
G04 #@! TA.AperFunction,ComponentPad*
%ADD15R,1.700000X1.700000*%
G04 #@! TD*
G04 #@! TA.AperFunction,ComponentPad*
%ADD16O,1.100000X2.200000*%
G04 #@! TD*
G04 #@! TA.AperFunction,ComponentPad*
%ADD17O,1.100000X2.000000*%
G04 #@! TD*
G04 #@! TA.AperFunction,ComponentPad*
%ADD18O,1.900000X1.200000*%
G04 #@! TD*
G04 #@! TA.AperFunction,ComponentPad*
%ADD19O,1.000000X1.000000*%
G04 #@! TD*
G04 #@! TA.AperFunction,ComponentPad*
%ADD20R,1.000000X1.000000*%
G04 #@! TD*
G04 #@! TA.AperFunction,ComponentPad*
%ADD21C,2.300000*%
G04 #@! TD*
G04 #@! TA.AperFunction,ViaPad*
%ADD22C,0.800000*%
G04 #@! TD*
G04 #@! TA.AperFunction,Conductor*
%ADD23C,0.250000*%
G04 #@! TD*
G04 #@! TA.AperFunction,Conductor*
%ADD24C,0.254000*%
G04 #@! TD*
G04 #@! TA.AperFunction,Conductor*
%ADD25C,0.100000*%
G04 #@! TD*
G04 APERTURE END LIST*
D10*
X85170000Y-84650000D02*
X85170000Y-49650000D01*
X165170000Y-84650000D02*
X85170000Y-84650000D01*
X165170000Y-49650000D02*
X165170000Y-84650000D01*
X85170000Y-49650000D02*
X165170000Y-49650000D01*
D11*
X117280000Y-52850000D03*
X114740000Y-52850000D03*
X112200000Y-52850000D03*
X109660000Y-52850000D03*
D12*
X149500000Y-67150000D03*
X139340000Y-67150000D03*
D13*
X146920000Y-60150000D03*
X141920000Y-60150000D03*
X146920000Y-74650000D03*
X144420000Y-74650000D03*
X141920000Y-74650000D03*
X163170000Y-69900000D03*
X163170000Y-74400000D03*
X156670000Y-69900000D03*
X156670000Y-74400000D03*
X101852000Y-78605400D03*
X101852000Y-83105400D03*
X108352000Y-78605400D03*
X108352000Y-83105400D03*
D14*
X150575000Y-60445000D03*
D15*
X153115000Y-60445000D03*
D14*
X94670000Y-63340000D03*
X94670000Y-65880000D03*
X94670000Y-68420000D03*
D15*
X94670000Y-70960000D03*
D16*
X87350500Y-67150000D03*
D17*
X89382500Y-69944000D03*
D18*
X86682500Y-63650000D03*
X86682500Y-70650000D03*
D17*
X89382500Y-64356000D03*
D14*
X155400000Y-82347200D03*
X152860000Y-82347200D03*
X150320000Y-82347200D03*
X147780000Y-82347200D03*
X145240000Y-82347200D03*
X142700000Y-82347200D03*
X140160000Y-82347200D03*
X137620000Y-82347200D03*
X135080000Y-82347200D03*
X132540000Y-82347200D03*
D15*
X130000000Y-82347200D03*
D14*
X148712600Y-55008800D03*
X148712600Y-52468800D03*
X146172600Y-55008800D03*
X146172600Y-52468800D03*
X143632600Y-55008800D03*
D15*
X143632600Y-52468800D03*
D19*
X120747200Y-82550400D03*
X120747200Y-81280400D03*
X119477200Y-82550400D03*
X119477200Y-81280400D03*
X118207200Y-82550400D03*
X118207200Y-81280400D03*
X116937200Y-82550400D03*
X116937200Y-81280400D03*
X115667200Y-82550400D03*
D20*
X115667200Y-81280400D03*
D21*
X131032000Y-53865800D03*
X126132000Y-53865800D03*
D22*
X120696400Y-68928000D03*
X161370000Y-62350000D03*
X163275000Y-62350000D03*
X106040600Y-55999400D03*
X157470000Y-57828200D03*
X118296400Y-64914800D03*
X124735000Y-65728000D03*
X116657800Y-68128000D03*
X124696400Y-72966600D03*
X116696400Y-72128000D03*
X122296400Y-60600000D03*
X121496400Y-61550000D03*
X113178000Y-67328000D03*
X114996400Y-75201800D03*
X162370000Y-58285400D03*
X117496400Y-61550000D03*
X128976800Y-72128000D03*
X128113200Y-71328000D03*
X116696400Y-60600000D03*
X113254200Y-69334400D03*
X110053800Y-65956200D03*
X119655000Y-77183000D03*
X119045400Y-76319400D03*
X128113200Y-68128000D03*
X128976800Y-67328000D03*
X139365400Y-77741800D03*
X124696400Y-61550000D03*
X128113200Y-66528000D03*
X123896400Y-60600000D03*
X123096400Y-61550000D03*
X112441400Y-65728000D03*
X111450800Y-66528000D03*
X107894800Y-54729400D03*
X113330400Y-64928000D03*
X121077400Y-79621400D03*
D23*
X116657800Y-72089400D02*
X116696400Y-72128000D01*
X116657800Y-68128000D02*
X116657800Y-72089400D01*
X110974798Y-68128000D02*
X116657800Y-68128000D01*
X109328799Y-66482001D02*
X110974798Y-68128000D01*
X109328799Y-65608199D02*
X109328799Y-66482001D01*
X110733999Y-64202999D02*
X109328799Y-65608199D01*
X117584599Y-64202999D02*
X110733999Y-64202999D01*
X118296400Y-64914800D02*
X117584599Y-64202999D01*
X155594999Y-73324999D02*
X156670000Y-74400000D01*
X136046801Y-73324999D02*
X155594999Y-73324999D01*
X128524801Y-65802999D02*
X136046801Y-73324999D01*
X127765199Y-65802999D02*
X128524801Y-65802999D01*
X126240198Y-67328000D02*
X127765199Y-65802999D01*
X113178000Y-67328000D02*
X126240198Y-67328000D01*
X135080000Y-78231200D02*
X128976800Y-72128000D01*
X135080000Y-82347200D02*
X135080000Y-78231200D01*
X128113200Y-77920400D02*
X128113200Y-71328000D01*
X132540000Y-82347200D02*
X128113200Y-77920400D01*
X155400000Y-82347200D02*
X154224999Y-83522201D01*
X119712002Y-77183000D02*
X119655000Y-77183000D01*
X126051203Y-83522201D02*
X119712002Y-77183000D01*
X154224999Y-83522201D02*
X126051203Y-83522201D01*
X150320000Y-82347200D02*
X144825600Y-76852800D01*
X136838000Y-76852800D02*
X128113200Y-68128000D01*
X144825600Y-76852800D02*
X136838000Y-76852800D01*
X143174600Y-77741800D02*
X139365400Y-77741800D01*
X147780000Y-82347200D02*
X143174600Y-77741800D01*
X143558482Y-58824999D02*
X146172600Y-56210881D01*
X129130813Y-58824999D02*
X143558482Y-58824999D01*
X146172600Y-56210881D02*
X146172600Y-55008800D01*
X112651002Y-65728000D02*
X112441400Y-65728000D01*
X121866001Y-66089811D02*
X129130813Y-58824999D01*
X112803211Y-66089811D02*
X121866001Y-66089811D01*
X112441400Y-65728000D02*
X112803211Y-66089811D01*
X144732600Y-52468800D02*
X143632600Y-52468800D01*
X144807601Y-52543801D02*
X144732600Y-52468800D01*
X144807601Y-56018199D02*
X144807601Y-52543801D01*
X143607200Y-57218600D02*
X144807601Y-56018199D01*
X130100802Y-57218600D02*
X143607200Y-57218600D01*
X113330400Y-64928000D02*
X114042201Y-65639801D01*
X121679601Y-65639801D02*
X130100802Y-57218600D01*
X114042201Y-65639801D02*
X121679601Y-65639801D01*
D24*
X164510001Y-68962531D02*
X164439987Y-68857748D01*
X164212252Y-68630013D01*
X163944463Y-68451082D01*
X163646912Y-68327832D01*
X163331033Y-68265000D01*
X163008967Y-68265000D01*
X162693088Y-68327832D01*
X162395537Y-68451082D01*
X162127748Y-68630013D01*
X161900013Y-68857748D01*
X161721082Y-69125537D01*
X161597832Y-69423088D01*
X161535000Y-69738967D01*
X161535000Y-70061033D01*
X161597832Y-70376912D01*
X161721082Y-70674463D01*
X161900013Y-70942252D01*
X162127748Y-71169987D01*
X162395537Y-71348918D01*
X162693088Y-71472168D01*
X163008967Y-71535000D01*
X163331033Y-71535000D01*
X163646912Y-71472168D01*
X163944463Y-71348918D01*
X164212252Y-71169987D01*
X164439987Y-70942252D01*
X164510001Y-70837469D01*
X164510001Y-73462531D01*
X164439987Y-73357748D01*
X164212252Y-73130013D01*
X163944463Y-72951082D01*
X163646912Y-72827832D01*
X163331033Y-72765000D01*
X163008967Y-72765000D01*
X162693088Y-72827832D01*
X162395537Y-72951082D01*
X162127748Y-73130013D01*
X161900013Y-73357748D01*
X161721082Y-73625537D01*
X161597832Y-73923088D01*
X161535000Y-74238967D01*
X161535000Y-74561033D01*
X161597832Y-74876912D01*
X161721082Y-75174463D01*
X161900013Y-75442252D01*
X162127748Y-75669987D01*
X162395537Y-75848918D01*
X162693088Y-75972168D01*
X163008967Y-76035000D01*
X163331033Y-76035000D01*
X163646912Y-75972168D01*
X163944463Y-75848918D01*
X164212252Y-75669987D01*
X164439987Y-75442252D01*
X164510001Y-75337469D01*
X164510001Y-83990000D01*
X154832001Y-83990000D01*
X155033592Y-83788409D01*
X155253740Y-83832200D01*
X155546260Y-83832200D01*
X155833158Y-83775132D01*
X156103411Y-83663190D01*
X156346632Y-83500675D01*
X156553475Y-83293832D01*
X156715990Y-83050611D01*
X156827932Y-82780358D01*
X156885000Y-82493460D01*
X156885000Y-82200940D01*
X156827932Y-81914042D01*
X156715990Y-81643789D01*
X156553475Y-81400568D01*
X156346632Y-81193725D01*
X156103411Y-81031210D01*
X155833158Y-80919268D01*
X155546260Y-80862200D01*
X155253740Y-80862200D01*
X154966842Y-80919268D01*
X154696589Y-81031210D01*
X154453368Y-81193725D01*
X154246525Y-81400568D01*
X154130000Y-81574960D01*
X154013475Y-81400568D01*
X153806632Y-81193725D01*
X153563411Y-81031210D01*
X153293158Y-80919268D01*
X153006260Y-80862200D01*
X152713740Y-80862200D01*
X152426842Y-80919268D01*
X152156589Y-81031210D01*
X151913368Y-81193725D01*
X151706525Y-81400568D01*
X151590000Y-81574960D01*
X151473475Y-81400568D01*
X151266632Y-81193725D01*
X151023411Y-81031210D01*
X150753158Y-80919268D01*
X150466260Y-80862200D01*
X150173740Y-80862200D01*
X149953592Y-80905990D01*
X149477474Y-80429872D01*
X158935000Y-80429872D01*
X158935000Y-80870128D01*
X159020890Y-81301925D01*
X159189369Y-81708669D01*
X159433962Y-82074729D01*
X159745271Y-82386038D01*
X160111331Y-82630631D01*
X160518075Y-82799110D01*
X160949872Y-82885000D01*
X161390128Y-82885000D01*
X161821925Y-82799110D01*
X162228669Y-82630631D01*
X162594729Y-82386038D01*
X162906038Y-82074729D01*
X163150631Y-81708669D01*
X163319110Y-81301925D01*
X163405000Y-80870128D01*
X163405000Y-80429872D01*
X163319110Y-79998075D01*
X163150631Y-79591331D01*
X162906038Y-79225271D01*
X162594729Y-78913962D01*
X162228669Y-78669369D01*
X161821925Y-78500890D01*
X161390128Y-78415000D01*
X160949872Y-78415000D01*
X160518075Y-78500890D01*
X160111331Y-78669369D01*
X159745271Y-78913962D01*
X159433962Y-79225271D01*
X159189369Y-79591331D01*
X159020890Y-79998075D01*
X158935000Y-80429872D01*
X149477474Y-80429872D01*
X145389404Y-76341803D01*
X145365601Y-76312799D01*
X145249876Y-76217826D01*
X145117847Y-76147254D01*
X145094712Y-76140236D01*
X145194463Y-76098918D01*
X145462252Y-75919987D01*
X145670000Y-75712239D01*
X145877748Y-75919987D01*
X146145537Y-76098918D01*
X146443088Y-76222168D01*
X146758967Y-76285000D01*
X147081033Y-76285000D01*
X147396912Y-76222168D01*
X147694463Y-76098918D01*
X147962252Y-75919987D01*
X148189987Y-75692252D01*
X148368918Y-75424463D01*
X148492168Y-75126912D01*
X148555000Y-74811033D01*
X148555000Y-74488967D01*
X148492168Y-74173088D01*
X148455680Y-74084999D01*
X155065626Y-74084999D01*
X155035000Y-74238967D01*
X155035000Y-74561033D01*
X155097832Y-74876912D01*
X155221082Y-75174463D01*
X155400013Y-75442252D01*
X155627748Y-75669987D01*
X155895537Y-75848918D01*
X156193088Y-75972168D01*
X156508967Y-76035000D01*
X156831033Y-76035000D01*
X157146912Y-75972168D01*
X157444463Y-75848918D01*
X157712252Y-75669987D01*
X157939987Y-75442252D01*
X158118918Y-75174463D01*
X158242168Y-74876912D01*
X158305000Y-74561033D01*
X158305000Y-74238967D01*
X158242168Y-73923088D01*
X158118918Y-73625537D01*
X157939987Y-73357748D01*
X157712252Y-73130013D01*
X157444463Y-72951082D01*
X157146912Y-72827832D01*
X156831033Y-72765000D01*
X156508967Y-72765000D01*
X156193088Y-72827832D01*
X156178624Y-72833823D01*
X156158803Y-72814001D01*
X156135000Y-72784998D01*
X156019275Y-72690025D01*
X155887246Y-72619453D01*
X155743985Y-72575996D01*
X155632332Y-72564999D01*
X155632321Y-72564999D01*
X155594999Y-72561323D01*
X155557677Y-72564999D01*
X136361604Y-72564999D01*
X130104008Y-66307404D01*
X137455000Y-66307404D01*
X137455000Y-67992597D01*
X137482275Y-68269524D01*
X137590062Y-68624848D01*
X137765098Y-68952317D01*
X138000656Y-69239345D01*
X138287684Y-69474903D01*
X138615153Y-69649939D01*
X138970477Y-69757725D01*
X139340000Y-69794120D01*
X139709524Y-69757725D01*
X140064848Y-69649939D01*
X140392317Y-69474903D01*
X140679345Y-69239345D01*
X140914903Y-68952317D01*
X141089939Y-68624848D01*
X141197725Y-68269524D01*
X141225000Y-67992597D01*
X141225000Y-66307403D01*
X147615000Y-66307403D01*
X147615000Y-67992596D01*
X147642275Y-68269523D01*
X147750061Y-68624847D01*
X147925097Y-68952317D01*
X148160655Y-69239345D01*
X148447683Y-69474903D01*
X148775152Y-69649939D01*
X149130476Y-69757725D01*
X149500000Y-69794120D01*
X149869523Y-69757725D01*
X149931360Y-69738967D01*
X155035000Y-69738967D01*
X155035000Y-70061033D01*
X155097832Y-70376912D01*
X155221082Y-70674463D01*
X155400013Y-70942252D01*
X155627748Y-71169987D01*
X155895537Y-71348918D01*
X156193088Y-71472168D01*
X156508967Y-71535000D01*
X156831033Y-71535000D01*
X157146912Y-71472168D01*
X157444463Y-71348918D01*
X157712252Y-71169987D01*
X157939987Y-70942252D01*
X158118918Y-70674463D01*
X158242168Y-70376912D01*
X158305000Y-70061033D01*
X158305000Y-69738967D01*
X158242168Y-69423088D01*
X158118918Y-69125537D01*
X157939987Y-68857748D01*
X157712252Y-68630013D01*
X157444463Y-68451082D01*
X157146912Y-68327832D01*
X156831033Y-68265000D01*
X156508967Y-68265000D01*
X156193088Y-68327832D01*
X155895537Y-68451082D01*
X155627748Y-68630013D01*
X155400013Y-68857748D01*
X155221082Y-69125537D01*
X155097832Y-69423088D01*
X155035000Y-69738967D01*
X149931360Y-69738967D01*
X150224847Y-69649939D01*
X150552317Y-69474903D01*
X150839345Y-69239345D01*
X151074903Y-68952317D01*
X151249939Y-68624848D01*
X151357725Y-68269524D01*
X151385000Y-67992597D01*
X151385000Y-66307403D01*
X151357725Y-66030476D01*
X151249939Y-65675152D01*
X151074903Y-65347683D01*
X150839345Y-65060655D01*
X150552317Y-64825097D01*
X150224848Y-64650061D01*
X149869524Y-64542275D01*
X149500000Y-64505880D01*
X149130477Y-64542275D01*
X148775153Y-64650061D01*
X148447684Y-64825097D01*
X148160656Y-65060655D01*
X147925098Y-65347683D01*
X147750062Y-65675152D01*
X147642275Y-66030476D01*
X147615000Y-66307403D01*
X141225000Y-66307403D01*
X141197725Y-66030476D01*
X141089939Y-65675152D01*
X140914903Y-65347683D01*
X140679345Y-65060655D01*
X140392317Y-64825097D01*
X140064847Y-64650061D01*
X139709523Y-64542275D01*
X139340000Y-64505880D01*
X138970476Y-64542275D01*
X138615152Y-64650061D01*
X138287683Y-64825097D01*
X138000655Y-65060655D01*
X137765097Y-65347683D01*
X137590061Y-65675153D01*
X137482275Y-66030477D01*
X137455000Y-66307404D01*
X130104008Y-66307404D01*
X129088605Y-65292002D01*
X129064802Y-65262998D01*
X128949077Y-65168025D01*
X128817048Y-65097453D01*
X128673787Y-65053996D01*
X128562134Y-65042999D01*
X128562123Y-65042999D01*
X128524801Y-65039323D01*
X128487479Y-65042999D01*
X127802521Y-65042999D01*
X127765198Y-65039323D01*
X127727875Y-65042999D01*
X127727866Y-65042999D01*
X127616213Y-65053996D01*
X127487546Y-65093026D01*
X127472952Y-65097453D01*
X127340922Y-65168025D01*
X127283044Y-65215525D01*
X127225198Y-65262998D01*
X127201400Y-65291996D01*
X125925397Y-66568000D01*
X122462613Y-66568000D01*
X126782552Y-62248061D01*
X160335000Y-62248061D01*
X160335000Y-62451939D01*
X160374774Y-62651898D01*
X160452795Y-62840256D01*
X160566063Y-63009774D01*
X160710226Y-63153937D01*
X160879744Y-63267205D01*
X161068102Y-63345226D01*
X161268061Y-63385000D01*
X161471939Y-63385000D01*
X161671898Y-63345226D01*
X161860256Y-63267205D01*
X162029774Y-63153937D01*
X162173937Y-63009774D01*
X162287205Y-62840256D01*
X162322500Y-62755047D01*
X162357795Y-62840256D01*
X162471063Y-63009774D01*
X162615226Y-63153937D01*
X162784744Y-63267205D01*
X162973102Y-63345226D01*
X163173061Y-63385000D01*
X163376939Y-63385000D01*
X163576898Y-63345226D01*
X163765256Y-63267205D01*
X163934774Y-63153937D01*
X164078937Y-63009774D01*
X164192205Y-62840256D01*
X164270226Y-62651898D01*
X164310000Y-62451939D01*
X164310000Y-62248061D01*
X164270226Y-62048102D01*
X164192205Y-61859744D01*
X164078937Y-61690226D01*
X163934774Y-61546063D01*
X163765256Y-61432795D01*
X163576898Y-61354774D01*
X163376939Y-61315000D01*
X163173061Y-61315000D01*
X162973102Y-61354774D01*
X162784744Y-61432795D01*
X162615226Y-61546063D01*
X162471063Y-61690226D01*
X162357795Y-61859744D01*
X162322500Y-61944953D01*
X162287205Y-61859744D01*
X162173937Y-61690226D01*
X162029774Y-61546063D01*
X161860256Y-61432795D01*
X161671898Y-61354774D01*
X161471939Y-61315000D01*
X161268061Y-61315000D01*
X161068102Y-61354774D01*
X160879744Y-61432795D01*
X160710226Y-61546063D01*
X160566063Y-61690226D01*
X160452795Y-61859744D01*
X160374774Y-62048102D01*
X160335000Y-62248061D01*
X126782552Y-62248061D01*
X129445615Y-59584999D01*
X140384320Y-59584999D01*
X140347832Y-59673088D01*
X140285000Y-59988967D01*
X140285000Y-60311033D01*
X140347832Y-60626912D01*
X140471082Y-60924463D01*
X140650013Y-61192252D01*
X140877748Y-61419987D01*
X141145537Y-61598918D01*
X141443088Y-61722168D01*
X141758967Y-61785000D01*
X142081033Y-61785000D01*
X142396912Y-61722168D01*
X142694463Y-61598918D01*
X142962252Y-61419987D01*
X143189987Y-61192252D01*
X143368918Y-60924463D01*
X143492168Y-60626912D01*
X143555000Y-60311033D01*
X143555000Y-59988967D01*
X145285000Y-59988967D01*
X145285000Y-60311033D01*
X145347832Y-60626912D01*
X145471082Y-60924463D01*
X145650013Y-61192252D01*
X145877748Y-61419987D01*
X146145537Y-61598918D01*
X146443088Y-61722168D01*
X146758967Y-61785000D01*
X147081033Y-61785000D01*
X147396912Y-61722168D01*
X147694463Y-61598918D01*
X147962252Y-61419987D01*
X148189987Y-61192252D01*
X148368918Y-60924463D01*
X148492168Y-60626912D01*
X148555000Y-60311033D01*
X148555000Y-60298740D01*
X149090000Y-60298740D01*
X149090000Y-60591260D01*
X149147068Y-60878158D01*
X149259010Y-61148411D01*
X149421525Y-61391632D01*
X149628368Y-61598475D01*
X149871589Y-61760990D01*
X150141842Y-61872932D01*
X150428740Y-61930000D01*
X150721260Y-61930000D01*
X151008158Y-61872932D01*
X151278411Y-61760990D01*
X151521632Y-61598475D01*
X151653487Y-61466620D01*
X151675498Y-61539180D01*
X151734463Y-61649494D01*
X151813815Y-61746185D01*
X151910506Y-61825537D01*
X152020820Y-61884502D01*
X152140518Y-61920812D01*
X152265000Y-61933072D01*
X153965000Y-61933072D01*
X154089482Y-61920812D01*
X154209180Y-61884502D01*
X154319494Y-61825537D01*
X154416185Y-61746185D01*
X154495537Y-61649494D01*
X154554502Y-61539180D01*
X154590812Y-61419482D01*
X154603072Y-61295000D01*
X154603072Y-59595000D01*
X154590812Y-59470518D01*
X154554502Y-59350820D01*
X154495537Y-59240506D01*
X154416185Y-59143815D01*
X154319494Y-59064463D01*
X154209180Y-59005498D01*
X154089482Y-58969188D01*
X153965000Y-58956928D01*
X152265000Y-58956928D01*
X152140518Y-58969188D01*
X152020820Y-59005498D01*
X151910506Y-59064463D01*
X151813815Y-59143815D01*
X151734463Y-59240506D01*
X151675498Y-59350820D01*
X151653487Y-59423380D01*
X151521632Y-59291525D01*
X151278411Y-59129010D01*
X151008158Y-59017068D01*
X150721260Y-58960000D01*
X150428740Y-58960000D01*
X150141842Y-59017068D01*
X149871589Y-59129010D01*
X149628368Y-59291525D01*
X149421525Y-59498368D01*
X149259010Y-59741589D01*
X149147068Y-60011842D01*
X149090000Y-60298740D01*
X148555000Y-60298740D01*
X148555000Y-59988967D01*
X148492168Y-59673088D01*
X148368918Y-59375537D01*
X148189987Y-59107748D01*
X147962252Y-58880013D01*
X147694463Y-58701082D01*
X147396912Y-58577832D01*
X147081033Y-58515000D01*
X146758967Y-58515000D01*
X146443088Y-58577832D01*
X146145537Y-58701082D01*
X145877748Y-58880013D01*
X145650013Y-59107748D01*
X145471082Y-59375537D01*
X145347832Y-59673088D01*
X145285000Y-59988967D01*
X143555000Y-59988967D01*
X143492168Y-59673088D01*
X143455680Y-59584999D01*
X143521160Y-59584999D01*
X143558482Y-59588675D01*
X143595804Y-59584999D01*
X143595815Y-59584999D01*
X143707468Y-59574002D01*
X143850729Y-59530545D01*
X143982758Y-59459973D01*
X144098483Y-59365000D01*
X144122286Y-59335996D01*
X146683604Y-56774679D01*
X146712601Y-56750882D01*
X146792789Y-56653173D01*
X146807574Y-56635158D01*
X146878146Y-56503128D01*
X146896544Y-56442476D01*
X146921603Y-56359867D01*
X146928513Y-56289709D01*
X147119232Y-56162275D01*
X147326075Y-55955432D01*
X147442600Y-55781040D01*
X147559125Y-55955432D01*
X147765968Y-56162275D01*
X148009189Y-56324790D01*
X148279442Y-56436732D01*
X148566340Y-56493800D01*
X148858860Y-56493800D01*
X149145758Y-56436732D01*
X149416011Y-56324790D01*
X149659232Y-56162275D01*
X149866075Y-55955432D01*
X150028590Y-55712211D01*
X150140532Y-55441958D01*
X150142936Y-55429872D01*
X158935000Y-55429872D01*
X158935000Y-55870128D01*
X159020890Y-56301925D01*
X159189369Y-56708669D01*
X159433962Y-57074729D01*
X159745271Y-57386038D01*
X160111331Y-57630631D01*
X160518075Y-57799110D01*
X160949872Y-57885000D01*
X161390128Y-57885000D01*
X161417860Y-57879484D01*
X161374774Y-57983502D01*
X161335000Y-58183461D01*
X161335000Y-58387339D01*
X161374774Y-58587298D01*
X161452795Y-58775656D01*
X161566063Y-58945174D01*
X161710226Y-59089337D01*
X161879744Y-59202605D01*
X162068102Y-59280626D01*
X162268061Y-59320400D01*
X162471939Y-59320400D01*
X162671898Y-59280626D01*
X162860256Y-59202605D01*
X163029774Y-59089337D01*
X163173937Y-58945174D01*
X163287205Y-58775656D01*
X163365226Y-58587298D01*
X163405000Y-58387339D01*
X163405000Y-58183461D01*
X163365226Y-57983502D01*
X163287205Y-57795144D01*
X163173937Y-57625626D01*
X163029774Y-57481463D01*
X162860256Y-57368195D01*
X162685117Y-57295650D01*
X162906038Y-57074729D01*
X163150631Y-56708669D01*
X163319110Y-56301925D01*
X163405000Y-55870128D01*
X163405000Y-55429872D01*
X163319110Y-54998075D01*
X163150631Y-54591331D01*
X162906038Y-54225271D01*
X162594729Y-53913962D01*
X162228669Y-53669369D01*
X161821925Y-53500890D01*
X161390128Y-53415000D01*
X160949872Y-53415000D01*
X160518075Y-53500890D01*
X160111331Y-53669369D01*
X159745271Y-53913962D01*
X159433962Y-54225271D01*
X159189369Y-54591331D01*
X159020890Y-54998075D01*
X158935000Y-55429872D01*
X150142936Y-55429872D01*
X150197600Y-55155060D01*
X150197600Y-54862540D01*
X150140532Y-54575642D01*
X150028590Y-54305389D01*
X149866075Y-54062168D01*
X149659232Y-53855325D01*
X149484840Y-53738800D01*
X149659232Y-53622275D01*
X149866075Y-53415432D01*
X150028590Y-53172211D01*
X150140532Y-52901958D01*
X150197600Y-52615060D01*
X150197600Y-52322540D01*
X150140532Y-52035642D01*
X150028590Y-51765389D01*
X149866075Y-51522168D01*
X149659232Y-51315325D01*
X149416011Y-51152810D01*
X149145758Y-51040868D01*
X148858860Y-50983800D01*
X148566340Y-50983800D01*
X148279442Y-51040868D01*
X148009189Y-51152810D01*
X147765968Y-51315325D01*
X147559125Y-51522168D01*
X147442600Y-51696560D01*
X147326075Y-51522168D01*
X147119232Y-51315325D01*
X146876011Y-51152810D01*
X146605758Y-51040868D01*
X146318860Y-50983800D01*
X146026340Y-50983800D01*
X145739442Y-51040868D01*
X145469189Y-51152810D01*
X145225968Y-51315325D01*
X145094113Y-51447180D01*
X145072102Y-51374620D01*
X145013137Y-51264306D01*
X144933785Y-51167615D01*
X144837094Y-51088263D01*
X144726780Y-51029298D01*
X144607082Y-50992988D01*
X144482600Y-50980728D01*
X142782600Y-50980728D01*
X142658118Y-50992988D01*
X142538420Y-51029298D01*
X142428106Y-51088263D01*
X142331415Y-51167615D01*
X142252063Y-51264306D01*
X142193098Y-51374620D01*
X142156788Y-51494318D01*
X142144528Y-51618800D01*
X142144528Y-53318800D01*
X142156788Y-53443282D01*
X142193098Y-53562980D01*
X142252063Y-53673294D01*
X142331415Y-53769985D01*
X142428106Y-53849337D01*
X142538420Y-53908302D01*
X142614226Y-53931298D01*
X142437422Y-54127445D01*
X142288443Y-54377548D01*
X142191119Y-54651909D01*
X142311786Y-54881800D01*
X143505600Y-54881800D01*
X143505600Y-54861800D01*
X143759600Y-54861800D01*
X143759600Y-54881800D01*
X143779600Y-54881800D01*
X143779600Y-55135800D01*
X143759600Y-55135800D01*
X143759600Y-55155800D01*
X143505600Y-55155800D01*
X143505600Y-55135800D01*
X142311786Y-55135800D01*
X142191119Y-55365691D01*
X142288443Y-55640052D01*
X142437422Y-55890155D01*
X142632331Y-56106388D01*
X142865680Y-56280441D01*
X143128501Y-56405625D01*
X143275710Y-56450276D01*
X143328673Y-56422326D01*
X143292399Y-56458600D01*
X130138127Y-56458600D01*
X130100802Y-56454924D01*
X130063477Y-56458600D01*
X130063469Y-56458600D01*
X129951816Y-56469597D01*
X129808555Y-56513054D01*
X129676526Y-56583626D01*
X129560801Y-56678599D01*
X129537003Y-56707597D01*
X125427356Y-60817245D01*
X125356174Y-60746063D01*
X125186656Y-60632795D01*
X124998298Y-60554774D01*
X124931400Y-60541467D01*
X124931400Y-60498061D01*
X124891626Y-60298102D01*
X124813605Y-60109744D01*
X124700337Y-59940226D01*
X124556174Y-59796063D01*
X124386656Y-59682795D01*
X124198298Y-59604774D01*
X123998339Y-59565000D01*
X123794461Y-59565000D01*
X123594502Y-59604774D01*
X123406144Y-59682795D01*
X123236626Y-59796063D01*
X123096400Y-59936289D01*
X122956174Y-59796063D01*
X122786656Y-59682795D01*
X122598298Y-59604774D01*
X122398339Y-59565000D01*
X122194461Y-59565000D01*
X121994502Y-59604774D01*
X121806144Y-59682795D01*
X121636626Y-59796063D01*
X121492463Y-59940226D01*
X121379195Y-60109744D01*
X121301174Y-60298102D01*
X121261400Y-60498061D01*
X121261400Y-60541467D01*
X121194502Y-60554774D01*
X121006144Y-60632795D01*
X120836626Y-60746063D01*
X120692463Y-60890226D01*
X120579195Y-61059744D01*
X120501174Y-61248102D01*
X120461400Y-61448061D01*
X120461400Y-61651939D01*
X120501174Y-61851898D01*
X120579195Y-62040256D01*
X120692463Y-62209774D01*
X120836626Y-62353937D01*
X121006144Y-62467205D01*
X121194502Y-62545226D01*
X121394461Y-62585000D01*
X121598339Y-62585000D01*
X121798298Y-62545226D01*
X121986656Y-62467205D01*
X122156174Y-62353937D01*
X122296400Y-62213711D01*
X122436626Y-62353937D01*
X122606144Y-62467205D01*
X122794502Y-62545226D01*
X122994461Y-62585000D01*
X123198339Y-62585000D01*
X123398298Y-62545226D01*
X123586656Y-62467205D01*
X123756174Y-62353937D01*
X123896400Y-62213711D01*
X123963645Y-62280956D01*
X121364800Y-64879801D01*
X114365400Y-64879801D01*
X114365400Y-64826061D01*
X114325626Y-64626102D01*
X114247605Y-64437744D01*
X114134337Y-64268226D01*
X113990174Y-64124063D01*
X113820656Y-64010795D01*
X113632298Y-63932774D01*
X113432339Y-63893000D01*
X113228461Y-63893000D01*
X113028502Y-63932774D01*
X112840144Y-64010795D01*
X112670626Y-64124063D01*
X112526463Y-64268226D01*
X112413195Y-64437744D01*
X112335174Y-64626102D01*
X112321142Y-64696644D01*
X112139502Y-64732774D01*
X111951144Y-64810795D01*
X111781626Y-64924063D01*
X111637463Y-65068226D01*
X111524195Y-65237744D01*
X111446174Y-65426102D01*
X111432867Y-65493000D01*
X111348861Y-65493000D01*
X111148902Y-65532774D01*
X111020686Y-65585883D01*
X110971005Y-65465944D01*
X110857737Y-65296426D01*
X110713574Y-65152263D01*
X110544056Y-65038995D01*
X110355698Y-64960974D01*
X110155739Y-64921200D01*
X109951861Y-64921200D01*
X109751902Y-64960974D01*
X109563544Y-65038995D01*
X109394026Y-65152263D01*
X109249863Y-65296426D01*
X109136595Y-65465944D01*
X109058574Y-65654302D01*
X109018800Y-65854261D01*
X109018800Y-66058139D01*
X109058574Y-66258098D01*
X109136595Y-66446456D01*
X109249863Y-66615974D01*
X109394026Y-66760137D01*
X109563544Y-66873405D01*
X109751902Y-66951426D01*
X109951861Y-66991200D01*
X110155739Y-66991200D01*
X110355698Y-66951426D01*
X110483914Y-66898317D01*
X110533595Y-67018256D01*
X110646863Y-67187774D01*
X110791026Y-67331937D01*
X110960544Y-67445205D01*
X111148902Y-67523226D01*
X111348861Y-67563000D01*
X111552739Y-67563000D01*
X111752698Y-67523226D01*
X111941056Y-67445205D01*
X112110574Y-67331937D01*
X112143000Y-67299511D01*
X112143000Y-67429939D01*
X112182774Y-67629898D01*
X112260795Y-67818256D01*
X112374063Y-67987774D01*
X112518226Y-68131937D01*
X112687744Y-68245205D01*
X112876102Y-68323226D01*
X112954290Y-68338779D01*
X112952302Y-68339174D01*
X112763944Y-68417195D01*
X112594426Y-68530463D01*
X112450263Y-68674626D01*
X112336995Y-68844144D01*
X112258974Y-69032502D01*
X112219200Y-69232461D01*
X112219200Y-69436339D01*
X112258974Y-69636298D01*
X112336995Y-69824656D01*
X112450263Y-69994174D01*
X112594426Y-70138337D01*
X112763944Y-70251605D01*
X112952302Y-70329626D01*
X113152261Y-70369400D01*
X113356139Y-70369400D01*
X113556098Y-70329626D01*
X113744456Y-70251605D01*
X113913974Y-70138337D01*
X114058137Y-69994174D01*
X114171405Y-69824656D01*
X114249426Y-69636298D01*
X114289200Y-69436339D01*
X114289200Y-69232461D01*
X114249426Y-69032502D01*
X114171405Y-68844144D01*
X114058137Y-68674626D01*
X113913974Y-68530463D01*
X113744456Y-68417195D01*
X113556098Y-68339174D01*
X113477910Y-68323621D01*
X113479898Y-68323226D01*
X113668256Y-68245205D01*
X113837774Y-68131937D01*
X113881711Y-68088000D01*
X120090598Y-68088000D01*
X120036626Y-68124063D01*
X119892463Y-68268226D01*
X119779195Y-68437744D01*
X119701174Y-68626102D01*
X119661400Y-68826061D01*
X119661400Y-69029939D01*
X119701174Y-69229898D01*
X119779195Y-69418256D01*
X119892463Y-69587774D01*
X120036626Y-69731937D01*
X120206144Y-69845205D01*
X120394502Y-69923226D01*
X120594461Y-69963000D01*
X120798339Y-69963000D01*
X120998298Y-69923226D01*
X121186656Y-69845205D01*
X121356174Y-69731937D01*
X121500337Y-69587774D01*
X121613605Y-69418256D01*
X121691626Y-69229898D01*
X121731400Y-69029939D01*
X121731400Y-68826061D01*
X121691626Y-68626102D01*
X121613605Y-68437744D01*
X121500337Y-68268226D01*
X121356174Y-68124063D01*
X121302202Y-68088000D01*
X126202876Y-68088000D01*
X126240198Y-68091676D01*
X126277520Y-68088000D01*
X126277531Y-68088000D01*
X126389184Y-68077003D01*
X126532445Y-68033546D01*
X126664474Y-67962974D01*
X126780199Y-67868001D01*
X126804002Y-67838997D01*
X127382244Y-67260755D01*
X127449489Y-67328000D01*
X127309263Y-67468226D01*
X127195995Y-67637744D01*
X127117974Y-67826102D01*
X127078200Y-68026061D01*
X127078200Y-68229939D01*
X127117974Y-68429898D01*
X127195995Y-68618256D01*
X127309263Y-68787774D01*
X127453426Y-68931937D01*
X127622944Y-69045205D01*
X127811302Y-69123226D01*
X128011261Y-69163000D01*
X128073399Y-69163000D01*
X136274205Y-77363808D01*
X136297999Y-77392801D01*
X136326992Y-77416595D01*
X136326996Y-77416599D01*
X136389048Y-77467523D01*
X136413724Y-77487774D01*
X136545753Y-77558346D01*
X136689014Y-77601803D01*
X136800667Y-77612800D01*
X136800676Y-77612800D01*
X136837999Y-77616476D01*
X136875322Y-77612800D01*
X138335783Y-77612800D01*
X138330400Y-77639861D01*
X138330400Y-77843739D01*
X138370174Y-78043698D01*
X138448195Y-78232056D01*
X138561463Y-78401574D01*
X138705626Y-78545737D01*
X138875144Y-78659005D01*
X139063502Y-78737026D01*
X139263461Y-78776800D01*
X139467339Y-78776800D01*
X139667298Y-78737026D01*
X139855656Y-78659005D01*
X140025174Y-78545737D01*
X140069111Y-78501800D01*
X142859799Y-78501800D01*
X145220198Y-80862200D01*
X145093740Y-80862200D01*
X144806842Y-80919268D01*
X144536589Y-81031210D01*
X144293368Y-81193725D01*
X144086525Y-81400568D01*
X143970000Y-81574960D01*
X143853475Y-81400568D01*
X143646632Y-81193725D01*
X143403411Y-81031210D01*
X143133158Y-80919268D01*
X142846260Y-80862200D01*
X142553740Y-80862200D01*
X142266842Y-80919268D01*
X141996589Y-81031210D01*
X141753368Y-81193725D01*
X141546525Y-81400568D01*
X141430000Y-81574960D01*
X141313475Y-81400568D01*
X141106632Y-81193725D01*
X140863411Y-81031210D01*
X140593158Y-80919268D01*
X140306260Y-80862200D01*
X140013740Y-80862200D01*
X139726842Y-80919268D01*
X139456589Y-81031210D01*
X139213368Y-81193725D01*
X139006525Y-81400568D01*
X138890000Y-81574960D01*
X138773475Y-81400568D01*
X138566632Y-81193725D01*
X138323411Y-81031210D01*
X138053158Y-80919268D01*
X137766260Y-80862200D01*
X137473740Y-80862200D01*
X137186842Y-80919268D01*
X136916589Y-81031210D01*
X136673368Y-81193725D01*
X136466525Y-81400568D01*
X136350000Y-81574960D01*
X136233475Y-81400568D01*
X136026632Y-81193725D01*
X135840000Y-81069022D01*
X135840000Y-78268522D01*
X135843676Y-78231199D01*
X135840000Y-78193876D01*
X135840000Y-78193867D01*
X135829003Y-78082214D01*
X135785546Y-77938953D01*
X135714974Y-77806924D01*
X135620001Y-77691199D01*
X135591003Y-77667401D01*
X130011800Y-72088199D01*
X130011800Y-72026061D01*
X129972026Y-71826102D01*
X129894005Y-71637744D01*
X129780737Y-71468226D01*
X129636574Y-71324063D01*
X129467056Y-71210795D01*
X129278698Y-71132774D01*
X129123504Y-71101904D01*
X129108426Y-71026102D01*
X129030405Y-70837744D01*
X128917137Y-70668226D01*
X128772974Y-70524063D01*
X128603456Y-70410795D01*
X128415098Y-70332774D01*
X128215139Y-70293000D01*
X128011261Y-70293000D01*
X127811302Y-70332774D01*
X127622944Y-70410795D01*
X127453426Y-70524063D01*
X127309263Y-70668226D01*
X127195995Y-70837744D01*
X127117974Y-71026102D01*
X127078200Y-71226061D01*
X127078200Y-71429939D01*
X127117974Y-71629898D01*
X127195995Y-71818256D01*
X127309263Y-71987774D01*
X127353201Y-72031712D01*
X127353200Y-77883077D01*
X127349524Y-77920400D01*
X127353200Y-77957722D01*
X127353200Y-77957732D01*
X127364197Y-78069385D01*
X127397213Y-78178226D01*
X127407654Y-78212646D01*
X127478226Y-78344676D01*
X127507368Y-78380185D01*
X127573199Y-78460401D01*
X127602203Y-78484204D01*
X129977126Y-80859128D01*
X129150000Y-80859128D01*
X129025518Y-80871388D01*
X128905820Y-80907698D01*
X128795506Y-80966663D01*
X128698815Y-81046015D01*
X128619463Y-81142706D01*
X128560498Y-81253020D01*
X128524188Y-81372718D01*
X128511928Y-81497200D01*
X128511928Y-82762201D01*
X126366005Y-82762201D01*
X120690000Y-77086197D01*
X120690000Y-77081061D01*
X120650226Y-76881102D01*
X120572205Y-76692744D01*
X120458937Y-76523226D01*
X120314774Y-76379063D01*
X120145256Y-76265795D01*
X120080400Y-76238931D01*
X120080400Y-76217461D01*
X120040626Y-76017502D01*
X119962605Y-75829144D01*
X119849337Y-75659626D01*
X119705174Y-75515463D01*
X119535656Y-75402195D01*
X119347298Y-75324174D01*
X119147339Y-75284400D01*
X118943461Y-75284400D01*
X118743502Y-75324174D01*
X118555144Y-75402195D01*
X118385626Y-75515463D01*
X118241463Y-75659626D01*
X118128195Y-75829144D01*
X118050174Y-76017502D01*
X118010400Y-76217461D01*
X118010400Y-76421339D01*
X118050174Y-76621298D01*
X118128195Y-76809656D01*
X118241463Y-76979174D01*
X118385626Y-77123337D01*
X118555144Y-77236605D01*
X118620000Y-77263469D01*
X118620000Y-77284939D01*
X118659774Y-77484898D01*
X118737795Y-77673256D01*
X118851063Y-77842774D01*
X118995226Y-77986937D01*
X119164744Y-78100205D01*
X119353102Y-78178226D01*
X119553061Y-78218000D01*
X119672201Y-78218000D01*
X120344645Y-78890444D01*
X120273463Y-78961626D01*
X120160195Y-79131144D01*
X120082174Y-79319502D01*
X120042400Y-79519461D01*
X120042400Y-79723339D01*
X120082174Y-79923298D01*
X120160195Y-80111656D01*
X120256161Y-80255280D01*
X120209576Y-80274576D01*
X120112200Y-80339641D01*
X120014824Y-80274576D01*
X119808267Y-80189017D01*
X119588988Y-80145400D01*
X119365412Y-80145400D01*
X119146133Y-80189017D01*
X118939576Y-80274576D01*
X118842200Y-80339641D01*
X118744824Y-80274576D01*
X118538267Y-80189017D01*
X118318988Y-80145400D01*
X118095412Y-80145400D01*
X117876133Y-80189017D01*
X117669576Y-80274576D01*
X117572200Y-80339641D01*
X117474824Y-80274576D01*
X117268267Y-80189017D01*
X117048988Y-80145400D01*
X116825412Y-80145400D01*
X116606133Y-80189017D01*
X116494426Y-80235288D01*
X116411380Y-80190898D01*
X116291682Y-80154588D01*
X116167200Y-80142328D01*
X115167200Y-80142328D01*
X115042718Y-80154588D01*
X114923020Y-80190898D01*
X114812706Y-80249863D01*
X114716015Y-80329215D01*
X114636663Y-80425906D01*
X114577698Y-80536220D01*
X114541388Y-80655918D01*
X114529128Y-80780400D01*
X114529128Y-81780400D01*
X114541388Y-81904882D01*
X114577698Y-82024580D01*
X114622088Y-82107626D01*
X114575817Y-82219333D01*
X114532200Y-82438612D01*
X114532200Y-82662188D01*
X114575817Y-82881467D01*
X114661376Y-83088024D01*
X114785588Y-83273920D01*
X114943680Y-83432012D01*
X115129576Y-83556224D01*
X115336133Y-83641783D01*
X115555412Y-83685400D01*
X115778988Y-83685400D01*
X115998267Y-83641783D01*
X116204824Y-83556224D01*
X116306858Y-83488047D01*
X116376994Y-83537523D01*
X116580336Y-83627846D01*
X116635326Y-83644519D01*
X116810200Y-83518354D01*
X116810200Y-82677400D01*
X116799174Y-82677400D01*
X116802200Y-82662188D01*
X116802200Y-82438612D01*
X116799174Y-82423400D01*
X116810200Y-82423400D01*
X116810200Y-82412374D01*
X116825412Y-82415400D01*
X117048988Y-82415400D01*
X117064200Y-82412374D01*
X117064200Y-82423400D01*
X117075226Y-82423400D01*
X117072200Y-82438612D01*
X117072200Y-82662188D01*
X117075226Y-82677400D01*
X117064200Y-82677400D01*
X117064200Y-83518354D01*
X117239074Y-83644519D01*
X117294064Y-83627846D01*
X117497406Y-83537523D01*
X117567542Y-83488047D01*
X117669576Y-83556224D01*
X117876133Y-83641783D01*
X118095412Y-83685400D01*
X118318988Y-83685400D01*
X118538267Y-83641783D01*
X118744824Y-83556224D01*
X118842200Y-83491159D01*
X118939576Y-83556224D01*
X119146133Y-83641783D01*
X119365412Y-83685400D01*
X119588988Y-83685400D01*
X119808267Y-83641783D01*
X120014824Y-83556224D01*
X120112200Y-83491159D01*
X120209576Y-83556224D01*
X120416133Y-83641783D01*
X120635412Y-83685400D01*
X120858988Y-83685400D01*
X121078267Y-83641783D01*
X121284824Y-83556224D01*
X121470720Y-83432012D01*
X121628812Y-83273920D01*
X121753024Y-83088024D01*
X121838583Y-82881467D01*
X121882200Y-82662188D01*
X121882200Y-82438612D01*
X121838583Y-82219333D01*
X121753024Y-82012776D01*
X121687959Y-81915400D01*
X121753024Y-81818024D01*
X121838583Y-81611467D01*
X121882200Y-81392188D01*
X121882200Y-81168612D01*
X121838583Y-80949333D01*
X121753024Y-80742776D01*
X121628812Y-80556880D01*
X121593361Y-80521429D01*
X121737174Y-80425337D01*
X121808356Y-80354155D01*
X125444200Y-83990000D01*
X109727327Y-83990000D01*
X109800918Y-83879863D01*
X109924168Y-83582312D01*
X109987000Y-83266433D01*
X109987000Y-82944367D01*
X109924168Y-82628488D01*
X109800918Y-82330937D01*
X109621987Y-82063148D01*
X109394252Y-81835413D01*
X109126463Y-81656482D01*
X108828912Y-81533232D01*
X108513033Y-81470400D01*
X108190967Y-81470400D01*
X107875088Y-81533232D01*
X107577537Y-81656482D01*
X107309748Y-81835413D01*
X107082013Y-82063148D01*
X106903082Y-82330937D01*
X106779832Y-82628488D01*
X106717000Y-82944367D01*
X106717000Y-83266433D01*
X106779832Y-83582312D01*
X106903082Y-83879863D01*
X106976673Y-83990000D01*
X103227327Y-83990000D01*
X103300918Y-83879863D01*
X103424168Y-83582312D01*
X103487000Y-83266433D01*
X103487000Y-82944367D01*
X103424168Y-82628488D01*
X103300918Y-82330937D01*
X103121987Y-82063148D01*
X102894252Y-81835413D01*
X102626463Y-81656482D01*
X102328912Y-81533232D01*
X102013033Y-81470400D01*
X101690967Y-81470400D01*
X101375088Y-81533232D01*
X101077537Y-81656482D01*
X100809748Y-81835413D01*
X100582013Y-82063148D01*
X100403082Y-82330937D01*
X100279832Y-82628488D01*
X100217000Y-82944367D01*
X100217000Y-83266433D01*
X100279832Y-83582312D01*
X100403082Y-83879863D01*
X100476673Y-83990000D01*
X85830000Y-83990000D01*
X85830000Y-80429872D01*
X86935000Y-80429872D01*
X86935000Y-80870128D01*
X87020890Y-81301925D01*
X87189369Y-81708669D01*
X87433962Y-82074729D01*
X87745271Y-82386038D01*
X88111331Y-82630631D01*
X88518075Y-82799110D01*
X88949872Y-82885000D01*
X89390128Y-82885000D01*
X89821925Y-82799110D01*
X90228669Y-82630631D01*
X90594729Y-82386038D01*
X90906038Y-82074729D01*
X91150631Y-81708669D01*
X91319110Y-81301925D01*
X91405000Y-80870128D01*
X91405000Y-80429872D01*
X91319110Y-79998075D01*
X91150631Y-79591331D01*
X90906038Y-79225271D01*
X90594729Y-78913962D01*
X90228669Y-78669369D01*
X89821925Y-78500890D01*
X89537766Y-78444367D01*
X100217000Y-78444367D01*
X100217000Y-78766433D01*
X100279832Y-79082312D01*
X100403082Y-79379863D01*
X100582013Y-79647652D01*
X100809748Y-79875387D01*
X101077537Y-80054318D01*
X101375088Y-80177568D01*
X101690967Y-80240400D01*
X102013033Y-80240400D01*
X102328912Y-80177568D01*
X102626463Y-80054318D01*
X102894252Y-79875387D01*
X103121987Y-79647652D01*
X103300918Y-79379863D01*
X103424168Y-79082312D01*
X103487000Y-78766433D01*
X103487000Y-78444367D01*
X106717000Y-78444367D01*
X106717000Y-78766433D01*
X106779832Y-79082312D01*
X106903082Y-79379863D01*
X107082013Y-79647652D01*
X107309748Y-79875387D01*
X107577537Y-80054318D01*
X107875088Y-80177568D01*
X108190967Y-80240400D01*
X108513033Y-80240400D01*
X108828912Y-80177568D01*
X109126463Y-80054318D01*
X109394252Y-79875387D01*
X109621987Y-79647652D01*
X109800918Y-79379863D01*
X109924168Y-79082312D01*
X109987000Y-78766433D01*
X109987000Y-78444367D01*
X109924168Y-78128488D01*
X109800918Y-77830937D01*
X109621987Y-77563148D01*
X109394252Y-77335413D01*
X109126463Y-77156482D01*
X108828912Y-77033232D01*
X108513033Y-76970400D01*
X108190967Y-76970400D01*
X107875088Y-77033232D01*
X107577537Y-77156482D01*
X107309748Y-77335413D01*
X107082013Y-77563148D01*
X106903082Y-77830937D01*
X106779832Y-78128488D01*
X106717000Y-78444367D01*
X103487000Y-78444367D01*
X103424168Y-78128488D01*
X103300918Y-77830937D01*
X103121987Y-77563148D01*
X102894252Y-77335413D01*
X102626463Y-77156482D01*
X102328912Y-77033232D01*
X102013033Y-76970400D01*
X101690967Y-76970400D01*
X101375088Y-77033232D01*
X101077537Y-77156482D01*
X100809748Y-77335413D01*
X100582013Y-77563148D01*
X100403082Y-77830937D01*
X100279832Y-78128488D01*
X100217000Y-78444367D01*
X89537766Y-78444367D01*
X89390128Y-78415000D01*
X88949872Y-78415000D01*
X88518075Y-78500890D01*
X88111331Y-78669369D01*
X87745271Y-78913962D01*
X87433962Y-79225271D01*
X87189369Y-79591331D01*
X87020890Y-79998075D01*
X86935000Y-80429872D01*
X85830000Y-80429872D01*
X85830000Y-75099861D01*
X113961400Y-75099861D01*
X113961400Y-75303739D01*
X114001174Y-75503698D01*
X114079195Y-75692056D01*
X114192463Y-75861574D01*
X114336626Y-76005737D01*
X114506144Y-76119005D01*
X114694502Y-76197026D01*
X114894461Y-76236800D01*
X115098339Y-76236800D01*
X115298298Y-76197026D01*
X115486656Y-76119005D01*
X115656174Y-76005737D01*
X115800337Y-75861574D01*
X115913605Y-75692056D01*
X115991626Y-75503698D01*
X116031400Y-75303739D01*
X116031400Y-75099861D01*
X115991626Y-74899902D01*
X115913605Y-74711544D01*
X115800337Y-74542026D01*
X115656174Y-74397863D01*
X115486656Y-74284595D01*
X115298298Y-74206574D01*
X115098339Y-74166800D01*
X114894461Y-74166800D01*
X114694502Y-74206574D01*
X114506144Y-74284595D01*
X114336626Y-74397863D01*
X114192463Y-74542026D01*
X114079195Y-74711544D01*
X114001174Y-74899902D01*
X113961400Y-75099861D01*
X85830000Y-75099861D01*
X85830000Y-71781759D01*
X85857599Y-71796511D01*
X86090398Y-71867130D01*
X86271835Y-71885000D01*
X87093165Y-71885000D01*
X87274602Y-71867130D01*
X87462933Y-71810000D01*
X93181928Y-71810000D01*
X93194188Y-71934482D01*
X93230498Y-72054180D01*
X93289463Y-72164494D01*
X93368815Y-72261185D01*
X93465506Y-72340537D01*
X93575820Y-72399502D01*
X93695518Y-72435812D01*
X93820000Y-72448072D01*
X94384250Y-72445000D01*
X94543000Y-72286250D01*
X94543000Y-71087000D01*
X94797000Y-71087000D01*
X94797000Y-72286250D01*
X94955750Y-72445000D01*
X95520000Y-72448072D01*
X95644482Y-72435812D01*
X95764180Y-72399502D01*
X95874494Y-72340537D01*
X95971185Y-72261185D01*
X96050537Y-72164494D01*
X96109502Y-72054180D01*
X96145812Y-71934482D01*
X96158072Y-71810000D01*
X96155000Y-71245750D01*
X95996250Y-71087000D01*
X94797000Y-71087000D01*
X94543000Y-71087000D01*
X93343750Y-71087000D01*
X93185000Y-71245750D01*
X93181928Y-71810000D01*
X87462933Y-71810000D01*
X87507401Y-71796511D01*
X87721949Y-71681833D01*
X87910002Y-71527502D01*
X88064333Y-71339449D01*
X88179011Y-71124901D01*
X88249630Y-70892102D01*
X88260818Y-70778507D01*
X88282406Y-70849674D01*
X88392443Y-71055536D01*
X88540526Y-71235975D01*
X88720965Y-71384058D01*
X88926827Y-71494094D01*
X89150201Y-71561853D01*
X89382500Y-71584733D01*
X89614800Y-71561853D01*
X89838174Y-71494094D01*
X90044036Y-71384058D01*
X90224475Y-71235975D01*
X90372558Y-71055536D01*
X90482594Y-70849674D01*
X90550353Y-70626300D01*
X90567500Y-70452206D01*
X90567500Y-70110000D01*
X93181928Y-70110000D01*
X93185000Y-70674250D01*
X93343750Y-70833000D01*
X94543000Y-70833000D01*
X94543000Y-70813000D01*
X94797000Y-70813000D01*
X94797000Y-70833000D01*
X95996250Y-70833000D01*
X96155000Y-70674250D01*
X96158072Y-70110000D01*
X96145812Y-69985518D01*
X96109502Y-69865820D01*
X96050537Y-69755506D01*
X95971185Y-69658815D01*
X95874494Y-69579463D01*
X95764180Y-69520498D01*
X95691620Y-69498487D01*
X95823475Y-69366632D01*
X95985990Y-69123411D01*
X96097932Y-68853158D01*
X96155000Y-68566260D01*
X96155000Y-68273740D01*
X96097932Y-67986842D01*
X95985990Y-67716589D01*
X95823475Y-67473368D01*
X95616632Y-67266525D01*
X95442240Y-67150000D01*
X95616632Y-67033475D01*
X95823475Y-66826632D01*
X95985990Y-66583411D01*
X96097932Y-66313158D01*
X96155000Y-66026260D01*
X96155000Y-65733740D01*
X96097932Y-65446842D01*
X95985990Y-65176589D01*
X95823475Y-64933368D01*
X95616632Y-64726525D01*
X95442240Y-64610000D01*
X95616632Y-64493475D01*
X95823475Y-64286632D01*
X95985990Y-64043411D01*
X96097932Y-63773158D01*
X96155000Y-63486260D01*
X96155000Y-63193740D01*
X96097932Y-62906842D01*
X95985990Y-62636589D01*
X95823475Y-62393368D01*
X95616632Y-62186525D01*
X95373411Y-62024010D01*
X95103158Y-61912068D01*
X94816260Y-61855000D01*
X94523740Y-61855000D01*
X94236842Y-61912068D01*
X93966589Y-62024010D01*
X93723368Y-62186525D01*
X93516525Y-62393368D01*
X93354010Y-62636589D01*
X93242068Y-62906842D01*
X93185000Y-63193740D01*
X93185000Y-63486260D01*
X93242068Y-63773158D01*
X93354010Y-64043411D01*
X93516525Y-64286632D01*
X93723368Y-64493475D01*
X93897760Y-64610000D01*
X93723368Y-64726525D01*
X93516525Y-64933368D01*
X93354010Y-65176589D01*
X93242068Y-65446842D01*
X93185000Y-65733740D01*
X93185000Y-66026260D01*
X93242068Y-66313158D01*
X93354010Y-66583411D01*
X93516525Y-66826632D01*
X93723368Y-67033475D01*
X93897760Y-67150000D01*
X93723368Y-67266525D01*
X93516525Y-67473368D01*
X93354010Y-67716589D01*
X93242068Y-67986842D01*
X93185000Y-68273740D01*
X93185000Y-68566260D01*
X93242068Y-68853158D01*
X93354010Y-69123411D01*
X93516525Y-69366632D01*
X93648380Y-69498487D01*
X93575820Y-69520498D01*
X93465506Y-69579463D01*
X93368815Y-69658815D01*
X93289463Y-69755506D01*
X93230498Y-69865820D01*
X93194188Y-69985518D01*
X93181928Y-70110000D01*
X90567500Y-70110000D01*
X90567500Y-69435793D01*
X90550353Y-69261700D01*
X90482594Y-69038326D01*
X90372558Y-68832464D01*
X90224475Y-68652025D01*
X90044035Y-68503942D01*
X89838173Y-68393906D01*
X89614799Y-68326147D01*
X89382500Y-68303267D01*
X89150200Y-68326147D01*
X88926826Y-68393906D01*
X88720964Y-68503942D01*
X88540525Y-68652025D01*
X88392442Y-68832465D01*
X88282406Y-69038327D01*
X88214647Y-69261701D01*
X88197500Y-69435794D01*
X88197500Y-70236049D01*
X88179011Y-70175099D01*
X88064333Y-69960551D01*
X87910002Y-69772498D01*
X87721949Y-69618167D01*
X87507401Y-69503489D01*
X87274602Y-69432870D01*
X87093165Y-69415000D01*
X86271835Y-69415000D01*
X86090398Y-69432870D01*
X85857599Y-69503489D01*
X85830000Y-69518241D01*
X85830000Y-66541794D01*
X86165500Y-66541794D01*
X86165500Y-67758207D01*
X86182647Y-67932300D01*
X86250406Y-68155674D01*
X86360443Y-68361536D01*
X86508526Y-68541975D01*
X86688965Y-68690058D01*
X86894827Y-68800094D01*
X87118201Y-68867853D01*
X87350500Y-68890733D01*
X87582800Y-68867853D01*
X87806174Y-68800094D01*
X88012036Y-68690058D01*
X88192475Y-68541975D01*
X88340558Y-68361536D01*
X88450594Y-68155674D01*
X88518353Y-67932300D01*
X88535500Y-67758207D01*
X88535500Y-66541793D01*
X88518353Y-66367700D01*
X88450594Y-66144326D01*
X88340558Y-65938464D01*
X88192475Y-65758025D01*
X88012035Y-65609942D01*
X87806173Y-65499906D01*
X87582799Y-65432147D01*
X87350500Y-65409267D01*
X87118200Y-65432147D01*
X86894826Y-65499906D01*
X86688964Y-65609942D01*
X86508525Y-65758025D01*
X86360442Y-65938465D01*
X86250406Y-66144327D01*
X86182647Y-66367701D01*
X86165500Y-66541794D01*
X85830000Y-66541794D01*
X85830000Y-64781759D01*
X85857599Y-64796511D01*
X86090398Y-64867130D01*
X86271835Y-64885000D01*
X87093165Y-64885000D01*
X87274602Y-64867130D01*
X87507401Y-64796511D01*
X87721949Y-64681833D01*
X87910002Y-64527502D01*
X88064333Y-64339449D01*
X88179011Y-64124901D01*
X88197500Y-64063951D01*
X88197500Y-64864207D01*
X88214647Y-65038300D01*
X88282406Y-65261674D01*
X88392443Y-65467536D01*
X88540526Y-65647975D01*
X88720965Y-65796058D01*
X88926827Y-65906094D01*
X89150201Y-65973853D01*
X89382500Y-65996733D01*
X89614800Y-65973853D01*
X89838174Y-65906094D01*
X90044036Y-65796058D01*
X90224475Y-65647975D01*
X90372558Y-65467536D01*
X90482594Y-65261674D01*
X90550353Y-65038300D01*
X90567500Y-64864206D01*
X90567500Y-63847793D01*
X90550353Y-63673700D01*
X90482594Y-63450326D01*
X90372558Y-63244464D01*
X90224475Y-63064025D01*
X90044035Y-62915942D01*
X89838173Y-62805906D01*
X89614799Y-62738147D01*
X89382500Y-62715267D01*
X89150200Y-62738147D01*
X88926826Y-62805906D01*
X88720964Y-62915942D01*
X88540525Y-63064025D01*
X88392442Y-63244465D01*
X88282406Y-63450327D01*
X88260818Y-63521493D01*
X88249630Y-63407898D01*
X88179011Y-63175099D01*
X88064333Y-62960551D01*
X87910002Y-62772498D01*
X87721949Y-62618167D01*
X87507401Y-62503489D01*
X87274602Y-62432870D01*
X87093165Y-62415000D01*
X86271835Y-62415000D01*
X86090398Y-62432870D01*
X85857599Y-62503489D01*
X85830000Y-62518241D01*
X85830000Y-60498061D01*
X115661400Y-60498061D01*
X115661400Y-60701939D01*
X115701174Y-60901898D01*
X115779195Y-61090256D01*
X115892463Y-61259774D01*
X116036626Y-61403937D01*
X116206144Y-61517205D01*
X116394502Y-61595226D01*
X116461400Y-61608533D01*
X116461400Y-61651939D01*
X116501174Y-61851898D01*
X116579195Y-62040256D01*
X116692463Y-62209774D01*
X116836626Y-62353937D01*
X117006144Y-62467205D01*
X117194502Y-62545226D01*
X117394461Y-62585000D01*
X117598339Y-62585000D01*
X117798298Y-62545226D01*
X117986656Y-62467205D01*
X118156174Y-62353937D01*
X118300337Y-62209774D01*
X118413605Y-62040256D01*
X118491626Y-61851898D01*
X118531400Y-61651939D01*
X118531400Y-61448061D01*
X118491626Y-61248102D01*
X118413605Y-61059744D01*
X118300337Y-60890226D01*
X118156174Y-60746063D01*
X117986656Y-60632795D01*
X117798298Y-60554774D01*
X117731400Y-60541467D01*
X117731400Y-60498061D01*
X117691626Y-60298102D01*
X117613605Y-60109744D01*
X117500337Y-59940226D01*
X117356174Y-59796063D01*
X117186656Y-59682795D01*
X116998298Y-59604774D01*
X116798339Y-59565000D01*
X116594461Y-59565000D01*
X116394502Y-59604774D01*
X116206144Y-59682795D01*
X116036626Y-59796063D01*
X115892463Y-59940226D01*
X115779195Y-60109744D01*
X115701174Y-60298102D01*
X115661400Y-60498061D01*
X85830000Y-60498061D01*
X85830000Y-55429872D01*
X86935000Y-55429872D01*
X86935000Y-55870128D01*
X87020890Y-56301925D01*
X87189369Y-56708669D01*
X87433962Y-57074729D01*
X87745271Y-57386038D01*
X88111331Y-57630631D01*
X88518075Y-57799110D01*
X88949872Y-57885000D01*
X89390128Y-57885000D01*
X89821925Y-57799110D01*
X90228669Y-57630631D01*
X90594729Y-57386038D01*
X90906038Y-57074729D01*
X91150631Y-56708669D01*
X91319110Y-56301925D01*
X91405000Y-55870128D01*
X91405000Y-55429872D01*
X91319110Y-54998075D01*
X91165597Y-54627461D01*
X106859800Y-54627461D01*
X106859800Y-54831339D01*
X106899574Y-55031298D01*
X106977595Y-55219656D01*
X107090863Y-55389174D01*
X107235026Y-55533337D01*
X107404544Y-55646605D01*
X107592902Y-55724626D01*
X107792861Y-55764400D01*
X107996739Y-55764400D01*
X108196698Y-55724626D01*
X108385056Y-55646605D01*
X108554574Y-55533337D01*
X108698737Y-55389174D01*
X108812005Y-55219656D01*
X108890026Y-55031298D01*
X108929800Y-54831339D01*
X108929800Y-54627461D01*
X108890026Y-54427502D01*
X108812005Y-54239144D01*
X108698737Y-54069626D01*
X108554574Y-53925463D01*
X108385056Y-53812195D01*
X108196698Y-53734174D01*
X107996739Y-53694400D01*
X107792861Y-53694400D01*
X107592902Y-53734174D01*
X107404544Y-53812195D01*
X107235026Y-53925463D01*
X107090863Y-54069626D01*
X106977595Y-54239144D01*
X106899574Y-54427502D01*
X106859800Y-54627461D01*
X91165597Y-54627461D01*
X91150631Y-54591331D01*
X90906038Y-54225271D01*
X90594729Y-53913962D01*
X90228669Y-53669369D01*
X89821925Y-53500890D01*
X89390128Y-53415000D01*
X88949872Y-53415000D01*
X88518075Y-53500890D01*
X88111331Y-53669369D01*
X87745271Y-53913962D01*
X87433962Y-54225271D01*
X87189369Y-54591331D01*
X87020890Y-54998075D01*
X86935000Y-55429872D01*
X85830000Y-55429872D01*
X85830000Y-52712408D01*
X108263000Y-52712408D01*
X108263000Y-52987592D01*
X108316686Y-53257490D01*
X108421995Y-53511727D01*
X108574880Y-53740535D01*
X108769465Y-53935120D01*
X108998273Y-54088005D01*
X109252510Y-54193314D01*
X109522408Y-54247000D01*
X109797592Y-54247000D01*
X110067490Y-54193314D01*
X110321727Y-54088005D01*
X110550535Y-53935120D01*
X110745120Y-53740535D01*
X110898005Y-53511727D01*
X110930000Y-53434485D01*
X110961995Y-53511727D01*
X111114880Y-53740535D01*
X111309465Y-53935120D01*
X111538273Y-54088005D01*
X111792510Y-54193314D01*
X112062408Y-54247000D01*
X112337592Y-54247000D01*
X112607490Y-54193314D01*
X112861727Y-54088005D01*
X113090535Y-53935120D01*
X113285120Y-53740535D01*
X113438005Y-53511727D01*
X113470000Y-53434485D01*
X113501995Y-53511727D01*
X113654880Y-53740535D01*
X113849465Y-53935120D01*
X114078273Y-54088005D01*
X114332510Y-54193314D01*
X114602408Y-54247000D01*
X114877592Y-54247000D01*
X115147490Y-54193314D01*
X115401727Y-54088005D01*
X115630535Y-53935120D01*
X115825120Y-53740535D01*
X115978005Y-53511727D01*
X116010000Y-53434485D01*
X116041995Y-53511727D01*
X116194880Y-53740535D01*
X116389465Y-53935120D01*
X116618273Y-54088005D01*
X116872510Y-54193314D01*
X117142408Y-54247000D01*
X117417592Y-54247000D01*
X117687490Y-54193314D01*
X117941727Y-54088005D01*
X118170535Y-53935120D01*
X118365120Y-53740535D01*
X118398891Y-53689993D01*
X124347000Y-53689993D01*
X124347000Y-54041607D01*
X124415596Y-54386465D01*
X124550153Y-54711315D01*
X124745500Y-55003671D01*
X124994129Y-55252300D01*
X125286485Y-55447647D01*
X125611335Y-55582204D01*
X125956193Y-55650800D01*
X126307807Y-55650800D01*
X126652665Y-55582204D01*
X126977515Y-55447647D01*
X127269871Y-55252300D01*
X127518500Y-55003671D01*
X127713847Y-54711315D01*
X127848404Y-54386465D01*
X127917000Y-54041607D01*
X127917000Y-53689993D01*
X129247000Y-53689993D01*
X129247000Y-54041607D01*
X129315596Y-54386465D01*
X129450153Y-54711315D01*
X129645500Y-55003671D01*
X129894129Y-55252300D01*
X130186485Y-55447647D01*
X130511335Y-55582204D01*
X130856193Y-55650800D01*
X131207807Y-55650800D01*
X131552665Y-55582204D01*
X131877515Y-55447647D01*
X132169871Y-55252300D01*
X132418500Y-55003671D01*
X132613847Y-54711315D01*
X132748404Y-54386465D01*
X132817000Y-54041607D01*
X132817000Y-53689993D01*
X132748404Y-53345135D01*
X132613847Y-53020285D01*
X132418500Y-52727929D01*
X132169871Y-52479300D01*
X131877515Y-52283953D01*
X131552665Y-52149396D01*
X131207807Y-52080800D01*
X130856193Y-52080800D01*
X130511335Y-52149396D01*
X130186485Y-52283953D01*
X129894129Y-52479300D01*
X129645500Y-52727929D01*
X129450153Y-53020285D01*
X129315596Y-53345135D01*
X129247000Y-53689993D01*
X127917000Y-53689993D01*
X127848404Y-53345135D01*
X127713847Y-53020285D01*
X127518500Y-52727929D01*
X127269871Y-52479300D01*
X126977515Y-52283953D01*
X126652665Y-52149396D01*
X126307807Y-52080800D01*
X125956193Y-52080800D01*
X125611335Y-52149396D01*
X125286485Y-52283953D01*
X124994129Y-52479300D01*
X124745500Y-52727929D01*
X124550153Y-53020285D01*
X124415596Y-53345135D01*
X124347000Y-53689993D01*
X118398891Y-53689993D01*
X118518005Y-53511727D01*
X118623314Y-53257490D01*
X118677000Y-52987592D01*
X118677000Y-52712408D01*
X118623314Y-52442510D01*
X118518005Y-52188273D01*
X118365120Y-51959465D01*
X118170535Y-51764880D01*
X117941727Y-51611995D01*
X117687490Y-51506686D01*
X117417592Y-51453000D01*
X117142408Y-51453000D01*
X116872510Y-51506686D01*
X116618273Y-51611995D01*
X116389465Y-51764880D01*
X116194880Y-51959465D01*
X116041995Y-52188273D01*
X116010000Y-52265515D01*
X115978005Y-52188273D01*
X115825120Y-51959465D01*
X115630535Y-51764880D01*
X115401727Y-51611995D01*
X115147490Y-51506686D01*
X114877592Y-51453000D01*
X114602408Y-51453000D01*
X114332510Y-51506686D01*
X114078273Y-51611995D01*
X113849465Y-51764880D01*
X113654880Y-51959465D01*
X113501995Y-52188273D01*
X113470000Y-52265515D01*
X113438005Y-52188273D01*
X113285120Y-51959465D01*
X113090535Y-51764880D01*
X112861727Y-51611995D01*
X112607490Y-51506686D01*
X112337592Y-51453000D01*
X112062408Y-51453000D01*
X111792510Y-51506686D01*
X111538273Y-51611995D01*
X111309465Y-51764880D01*
X111114880Y-51959465D01*
X110961995Y-52188273D01*
X110930000Y-52265515D01*
X110898005Y-52188273D01*
X110745120Y-51959465D01*
X110550535Y-51764880D01*
X110321727Y-51611995D01*
X110067490Y-51506686D01*
X109797592Y-51453000D01*
X109522408Y-51453000D01*
X109252510Y-51506686D01*
X108998273Y-51611995D01*
X108769465Y-51764880D01*
X108574880Y-51959465D01*
X108421995Y-52188273D01*
X108316686Y-52442510D01*
X108263000Y-52712408D01*
X85830000Y-52712408D01*
X85830000Y-50310000D01*
X164510000Y-50310000D01*
X164510001Y-68962531D01*
G04 #@! TA.AperFunction,Conductor*
D25*
G36*
X164510001Y-68962531D02*
G01*
X164439987Y-68857748D01*
X164212252Y-68630013D01*
X163944463Y-68451082D01*
X163646912Y-68327832D01*
X163331033Y-68265000D01*
X163008967Y-68265000D01*
X162693088Y-68327832D01*
X162395537Y-68451082D01*
X162127748Y-68630013D01*
X161900013Y-68857748D01*
X161721082Y-69125537D01*
X161597832Y-69423088D01*
X161535000Y-69738967D01*
X161535000Y-70061033D01*
X161597832Y-70376912D01*
X161721082Y-70674463D01*
X161900013Y-70942252D01*
X162127748Y-71169987D01*
X162395537Y-71348918D01*
X162693088Y-71472168D01*
X163008967Y-71535000D01*
X163331033Y-71535000D01*
X163646912Y-71472168D01*
X163944463Y-71348918D01*
X164212252Y-71169987D01*
X164439987Y-70942252D01*
X164510001Y-70837469D01*
X164510001Y-73462531D01*
X164439987Y-73357748D01*
X164212252Y-73130013D01*
X163944463Y-72951082D01*
X163646912Y-72827832D01*
X163331033Y-72765000D01*
X163008967Y-72765000D01*
X162693088Y-72827832D01*
X162395537Y-72951082D01*
X162127748Y-73130013D01*
X161900013Y-73357748D01*
X161721082Y-73625537D01*
X161597832Y-73923088D01*
X161535000Y-74238967D01*
X161535000Y-74561033D01*
X161597832Y-74876912D01*
X161721082Y-75174463D01*
X161900013Y-75442252D01*
X162127748Y-75669987D01*
X162395537Y-75848918D01*
X162693088Y-75972168D01*
X163008967Y-76035000D01*
X163331033Y-76035000D01*
X163646912Y-75972168D01*
X163944463Y-75848918D01*
X164212252Y-75669987D01*
X164439987Y-75442252D01*
X164510001Y-75337469D01*
X164510001Y-83990000D01*
X154832001Y-83990000D01*
X155033592Y-83788409D01*
X155253740Y-83832200D01*
X155546260Y-83832200D01*
X155833158Y-83775132D01*
X156103411Y-83663190D01*
X156346632Y-83500675D01*
X156553475Y-83293832D01*
X156715990Y-83050611D01*
X156827932Y-82780358D01*
X156885000Y-82493460D01*
X156885000Y-82200940D01*
X156827932Y-81914042D01*
X156715990Y-81643789D01*
X156553475Y-81400568D01*
X156346632Y-81193725D01*
X156103411Y-81031210D01*
X155833158Y-80919268D01*
X155546260Y-80862200D01*
X155253740Y-80862200D01*
X154966842Y-80919268D01*
X154696589Y-81031210D01*
X154453368Y-81193725D01*
X154246525Y-81400568D01*
X154130000Y-81574960D01*
X154013475Y-81400568D01*
X153806632Y-81193725D01*
X153563411Y-81031210D01*
X153293158Y-80919268D01*
X153006260Y-80862200D01*
X152713740Y-80862200D01*
X152426842Y-80919268D01*
X152156589Y-81031210D01*
X151913368Y-81193725D01*
X151706525Y-81400568D01*
X151590000Y-81574960D01*
X151473475Y-81400568D01*
X151266632Y-81193725D01*
X151023411Y-81031210D01*
X150753158Y-80919268D01*
X150466260Y-80862200D01*
X150173740Y-80862200D01*
X149953592Y-80905990D01*
X149477474Y-80429872D01*
X158935000Y-80429872D01*
X158935000Y-80870128D01*
X159020890Y-81301925D01*
X159189369Y-81708669D01*
X159433962Y-82074729D01*
X159745271Y-82386038D01*
X160111331Y-82630631D01*
X160518075Y-82799110D01*
X160949872Y-82885000D01*
X161390128Y-82885000D01*
X161821925Y-82799110D01*
X162228669Y-82630631D01*
X162594729Y-82386038D01*
X162906038Y-82074729D01*
X163150631Y-81708669D01*
X163319110Y-81301925D01*
X163405000Y-80870128D01*
X163405000Y-80429872D01*
X163319110Y-79998075D01*
X163150631Y-79591331D01*
X162906038Y-79225271D01*
X162594729Y-78913962D01*
X162228669Y-78669369D01*
X161821925Y-78500890D01*
X161390128Y-78415000D01*
X160949872Y-78415000D01*
X160518075Y-78500890D01*
X160111331Y-78669369D01*
X159745271Y-78913962D01*
X159433962Y-79225271D01*
X159189369Y-79591331D01*
X159020890Y-79998075D01*
X158935000Y-80429872D01*
X149477474Y-80429872D01*
X145389404Y-76341803D01*
X145365601Y-76312799D01*
X145249876Y-76217826D01*
X145117847Y-76147254D01*
X145094712Y-76140236D01*
X145194463Y-76098918D01*
X145462252Y-75919987D01*
X145670000Y-75712239D01*
X145877748Y-75919987D01*
X146145537Y-76098918D01*
X146443088Y-76222168D01*
X146758967Y-76285000D01*
X147081033Y-76285000D01*
X147396912Y-76222168D01*
X147694463Y-76098918D01*
X147962252Y-75919987D01*
X148189987Y-75692252D01*
X148368918Y-75424463D01*
X148492168Y-75126912D01*
X148555000Y-74811033D01*
X148555000Y-74488967D01*
X148492168Y-74173088D01*
X148455680Y-74084999D01*
X155065626Y-74084999D01*
X155035000Y-74238967D01*
X155035000Y-74561033D01*
X155097832Y-74876912D01*
X155221082Y-75174463D01*
X155400013Y-75442252D01*
X155627748Y-75669987D01*
X155895537Y-75848918D01*
X156193088Y-75972168D01*
X156508967Y-76035000D01*
X156831033Y-76035000D01*
X157146912Y-75972168D01*
X157444463Y-75848918D01*
X157712252Y-75669987D01*
X157939987Y-75442252D01*
X158118918Y-75174463D01*
X158242168Y-74876912D01*
X158305000Y-74561033D01*
X158305000Y-74238967D01*
X158242168Y-73923088D01*
X158118918Y-73625537D01*
X157939987Y-73357748D01*
X157712252Y-73130013D01*
X157444463Y-72951082D01*
X157146912Y-72827832D01*
X156831033Y-72765000D01*
X156508967Y-72765000D01*
X156193088Y-72827832D01*
X156178624Y-72833823D01*
X156158803Y-72814001D01*
X156135000Y-72784998D01*
X156019275Y-72690025D01*
X155887246Y-72619453D01*
X155743985Y-72575996D01*
X155632332Y-72564999D01*
X155632321Y-72564999D01*
X155594999Y-72561323D01*
X155557677Y-72564999D01*
X136361604Y-72564999D01*
X130104008Y-66307404D01*
X137455000Y-66307404D01*
X137455000Y-67992597D01*
X137482275Y-68269524D01*
X137590062Y-68624848D01*
X137765098Y-68952317D01*
X138000656Y-69239345D01*
X138287684Y-69474903D01*
X138615153Y-69649939D01*
X138970477Y-69757725D01*
X139340000Y-69794120D01*
X139709524Y-69757725D01*
X140064848Y-69649939D01*
X140392317Y-69474903D01*
X140679345Y-69239345D01*
X140914903Y-68952317D01*
X141089939Y-68624848D01*
X141197725Y-68269524D01*
X141225000Y-67992597D01*
X141225000Y-66307403D01*
X147615000Y-66307403D01*
X147615000Y-67992596D01*
X147642275Y-68269523D01*
X147750061Y-68624847D01*
X147925097Y-68952317D01*
X148160655Y-69239345D01*
X148447683Y-69474903D01*
X148775152Y-69649939D01*
X149130476Y-69757725D01*
X149500000Y-69794120D01*
X149869523Y-69757725D01*
X149931360Y-69738967D01*
X155035000Y-69738967D01*
X155035000Y-70061033D01*
X155097832Y-70376912D01*
X155221082Y-70674463D01*
X155400013Y-70942252D01*
X155627748Y-71169987D01*
X155895537Y-71348918D01*
X156193088Y-71472168D01*
X156508967Y-71535000D01*
X156831033Y-71535000D01*
X157146912Y-71472168D01*
X157444463Y-71348918D01*
X157712252Y-71169987D01*
X157939987Y-70942252D01*
X158118918Y-70674463D01*
X158242168Y-70376912D01*
X158305000Y-70061033D01*
X158305000Y-69738967D01*
X158242168Y-69423088D01*
X158118918Y-69125537D01*
X157939987Y-68857748D01*
X157712252Y-68630013D01*
X157444463Y-68451082D01*
X157146912Y-68327832D01*
X156831033Y-68265000D01*
X156508967Y-68265000D01*
X156193088Y-68327832D01*
X155895537Y-68451082D01*
X155627748Y-68630013D01*
X155400013Y-68857748D01*
X155221082Y-69125537D01*
X155097832Y-69423088D01*
X155035000Y-69738967D01*
X149931360Y-69738967D01*
X150224847Y-69649939D01*
X150552317Y-69474903D01*
X150839345Y-69239345D01*
X151074903Y-68952317D01*
X151249939Y-68624848D01*
X151357725Y-68269524D01*
X151385000Y-67992597D01*
X151385000Y-66307403D01*
X151357725Y-66030476D01*
X151249939Y-65675152D01*
X151074903Y-65347683D01*
X150839345Y-65060655D01*
X150552317Y-64825097D01*
X150224848Y-64650061D01*
X149869524Y-64542275D01*
X149500000Y-64505880D01*
X149130477Y-64542275D01*
X148775153Y-64650061D01*
X148447684Y-64825097D01*
X148160656Y-65060655D01*
X147925098Y-65347683D01*
X147750062Y-65675152D01*
X147642275Y-66030476D01*
X147615000Y-66307403D01*
X141225000Y-66307403D01*
X141197725Y-66030476D01*
X141089939Y-65675152D01*
X140914903Y-65347683D01*
X140679345Y-65060655D01*
X140392317Y-64825097D01*
X140064847Y-64650061D01*
X139709523Y-64542275D01*
X139340000Y-64505880D01*
X138970476Y-64542275D01*
X138615152Y-64650061D01*
X138287683Y-64825097D01*
X138000655Y-65060655D01*
X137765097Y-65347683D01*
X137590061Y-65675153D01*
X137482275Y-66030477D01*
X137455000Y-66307404D01*
X130104008Y-66307404D01*
X129088605Y-65292002D01*
X129064802Y-65262998D01*
X128949077Y-65168025D01*
X128817048Y-65097453D01*
X128673787Y-65053996D01*
X128562134Y-65042999D01*
X128562123Y-65042999D01*
X128524801Y-65039323D01*
X128487479Y-65042999D01*
X127802521Y-65042999D01*
X127765198Y-65039323D01*
X127727875Y-65042999D01*
X127727866Y-65042999D01*
X127616213Y-65053996D01*
X127487546Y-65093026D01*
X127472952Y-65097453D01*
X127340922Y-65168025D01*
X127283044Y-65215525D01*
X127225198Y-65262998D01*
X127201400Y-65291996D01*
X125925397Y-66568000D01*
X122462613Y-66568000D01*
X126782552Y-62248061D01*
X160335000Y-62248061D01*
X160335000Y-62451939D01*
X160374774Y-62651898D01*
X160452795Y-62840256D01*
X160566063Y-63009774D01*
X160710226Y-63153937D01*
X160879744Y-63267205D01*
X161068102Y-63345226D01*
X161268061Y-63385000D01*
X161471939Y-63385000D01*
X161671898Y-63345226D01*
X161860256Y-63267205D01*
X162029774Y-63153937D01*
X162173937Y-63009774D01*
X162287205Y-62840256D01*
X162322500Y-62755047D01*
X162357795Y-62840256D01*
X162471063Y-63009774D01*
X162615226Y-63153937D01*
X162784744Y-63267205D01*
X162973102Y-63345226D01*
X163173061Y-63385000D01*
X163376939Y-63385000D01*
X163576898Y-63345226D01*
X163765256Y-63267205D01*
X163934774Y-63153937D01*
X164078937Y-63009774D01*
X164192205Y-62840256D01*
X164270226Y-62651898D01*
X164310000Y-62451939D01*
X164310000Y-62248061D01*
X164270226Y-62048102D01*
X164192205Y-61859744D01*
X164078937Y-61690226D01*
X163934774Y-61546063D01*
X163765256Y-61432795D01*
X163576898Y-61354774D01*
X163376939Y-61315000D01*
X163173061Y-61315000D01*
X162973102Y-61354774D01*
X162784744Y-61432795D01*
X162615226Y-61546063D01*
X162471063Y-61690226D01*
X162357795Y-61859744D01*
X162322500Y-61944953D01*
X162287205Y-61859744D01*
X162173937Y-61690226D01*
X162029774Y-61546063D01*
X161860256Y-61432795D01*
X161671898Y-61354774D01*
X161471939Y-61315000D01*
X161268061Y-61315000D01*
X161068102Y-61354774D01*
X160879744Y-61432795D01*
X160710226Y-61546063D01*
X160566063Y-61690226D01*
X160452795Y-61859744D01*
X160374774Y-62048102D01*
X160335000Y-62248061D01*
X126782552Y-62248061D01*
X129445615Y-59584999D01*
X140384320Y-59584999D01*
X140347832Y-59673088D01*
X140285000Y-59988967D01*
X140285000Y-60311033D01*
X140347832Y-60626912D01*
X140471082Y-60924463D01*
X140650013Y-61192252D01*
X140877748Y-61419987D01*
X141145537Y-61598918D01*
X141443088Y-61722168D01*
X141758967Y-61785000D01*
X142081033Y-61785000D01*
X142396912Y-61722168D01*
X142694463Y-61598918D01*
X142962252Y-61419987D01*
X143189987Y-61192252D01*
X143368918Y-60924463D01*
X143492168Y-60626912D01*
X143555000Y-60311033D01*
X143555000Y-59988967D01*
X145285000Y-59988967D01*
X145285000Y-60311033D01*
X145347832Y-60626912D01*
X145471082Y-60924463D01*
X145650013Y-61192252D01*
X145877748Y-61419987D01*
X146145537Y-61598918D01*
X146443088Y-61722168D01*
X146758967Y-61785000D01*
X147081033Y-61785000D01*
X147396912Y-61722168D01*
X147694463Y-61598918D01*
X147962252Y-61419987D01*
X148189987Y-61192252D01*
X148368918Y-60924463D01*
X148492168Y-60626912D01*
X148555000Y-60311033D01*
X148555000Y-60298740D01*
X149090000Y-60298740D01*
X149090000Y-60591260D01*
X149147068Y-60878158D01*
X149259010Y-61148411D01*
X149421525Y-61391632D01*
X149628368Y-61598475D01*
X149871589Y-61760990D01*
X150141842Y-61872932D01*
X150428740Y-61930000D01*
X150721260Y-61930000D01*
X151008158Y-61872932D01*
X151278411Y-61760990D01*
X151521632Y-61598475D01*
X151653487Y-61466620D01*
X151675498Y-61539180D01*
X151734463Y-61649494D01*
X151813815Y-61746185D01*
X151910506Y-61825537D01*
X152020820Y-61884502D01*
X152140518Y-61920812D01*
X152265000Y-61933072D01*
X153965000Y-61933072D01*
X154089482Y-61920812D01*
X154209180Y-61884502D01*
X154319494Y-61825537D01*
X154416185Y-61746185D01*
X154495537Y-61649494D01*
X154554502Y-61539180D01*
X154590812Y-61419482D01*
X154603072Y-61295000D01*
X154603072Y-59595000D01*
X154590812Y-59470518D01*
X154554502Y-59350820D01*
X154495537Y-59240506D01*
X154416185Y-59143815D01*
X154319494Y-59064463D01*
X154209180Y-59005498D01*
X154089482Y-58969188D01*
X153965000Y-58956928D01*
X152265000Y-58956928D01*
X152140518Y-58969188D01*
X152020820Y-59005498D01*
X151910506Y-59064463D01*
X151813815Y-59143815D01*
X151734463Y-59240506D01*
X151675498Y-59350820D01*
X151653487Y-59423380D01*
X151521632Y-59291525D01*
X151278411Y-59129010D01*
X151008158Y-59017068D01*
X150721260Y-58960000D01*
X150428740Y-58960000D01*
X150141842Y-59017068D01*
X149871589Y-59129010D01*
X149628368Y-59291525D01*
X149421525Y-59498368D01*
X149259010Y-59741589D01*
X149147068Y-60011842D01*
X149090000Y-60298740D01*
X148555000Y-60298740D01*
X148555000Y-59988967D01*
X148492168Y-59673088D01*
X148368918Y-59375537D01*
X148189987Y-59107748D01*
X147962252Y-58880013D01*
X147694463Y-58701082D01*
X147396912Y-58577832D01*
X147081033Y-58515000D01*
X146758967Y-58515000D01*
X146443088Y-58577832D01*
X146145537Y-58701082D01*
X145877748Y-58880013D01*
X145650013Y-59107748D01*
X145471082Y-59375537D01*
X145347832Y-59673088D01*
X145285000Y-59988967D01*
X143555000Y-59988967D01*
X143492168Y-59673088D01*
X143455680Y-59584999D01*
X143521160Y-59584999D01*
X143558482Y-59588675D01*
X143595804Y-59584999D01*
X143595815Y-59584999D01*
X143707468Y-59574002D01*
X143850729Y-59530545D01*
X143982758Y-59459973D01*
X144098483Y-59365000D01*
X144122286Y-59335996D01*
X146683604Y-56774679D01*
X146712601Y-56750882D01*
X146792789Y-56653173D01*
X146807574Y-56635158D01*
X146878146Y-56503128D01*
X146896544Y-56442476D01*
X146921603Y-56359867D01*
X146928513Y-56289709D01*
X147119232Y-56162275D01*
X147326075Y-55955432D01*
X147442600Y-55781040D01*
X147559125Y-55955432D01*
X147765968Y-56162275D01*
X148009189Y-56324790D01*
X148279442Y-56436732D01*
X148566340Y-56493800D01*
X148858860Y-56493800D01*
X149145758Y-56436732D01*
X149416011Y-56324790D01*
X149659232Y-56162275D01*
X149866075Y-55955432D01*
X150028590Y-55712211D01*
X150140532Y-55441958D01*
X150142936Y-55429872D01*
X158935000Y-55429872D01*
X158935000Y-55870128D01*
X159020890Y-56301925D01*
X159189369Y-56708669D01*
X159433962Y-57074729D01*
X159745271Y-57386038D01*
X160111331Y-57630631D01*
X160518075Y-57799110D01*
X160949872Y-57885000D01*
X161390128Y-57885000D01*
X161417860Y-57879484D01*
X161374774Y-57983502D01*
X161335000Y-58183461D01*
X161335000Y-58387339D01*
X161374774Y-58587298D01*
X161452795Y-58775656D01*
X161566063Y-58945174D01*
X161710226Y-59089337D01*
X161879744Y-59202605D01*
X162068102Y-59280626D01*
X162268061Y-59320400D01*
X162471939Y-59320400D01*
X162671898Y-59280626D01*
X162860256Y-59202605D01*
X163029774Y-59089337D01*
X163173937Y-58945174D01*
X163287205Y-58775656D01*
X163365226Y-58587298D01*
X163405000Y-58387339D01*
X163405000Y-58183461D01*
X163365226Y-57983502D01*
X163287205Y-57795144D01*
X163173937Y-57625626D01*
X163029774Y-57481463D01*
X162860256Y-57368195D01*
X162685117Y-57295650D01*
X162906038Y-57074729D01*
X163150631Y-56708669D01*
X163319110Y-56301925D01*
X163405000Y-55870128D01*
X163405000Y-55429872D01*
X163319110Y-54998075D01*
X163150631Y-54591331D01*
X162906038Y-54225271D01*
X162594729Y-53913962D01*
X162228669Y-53669369D01*
X161821925Y-53500890D01*
X161390128Y-53415000D01*
X160949872Y-53415000D01*
X160518075Y-53500890D01*
X160111331Y-53669369D01*
X159745271Y-53913962D01*
X159433962Y-54225271D01*
X159189369Y-54591331D01*
X159020890Y-54998075D01*
X158935000Y-55429872D01*
X150142936Y-55429872D01*
X150197600Y-55155060D01*
X150197600Y-54862540D01*
X150140532Y-54575642D01*
X150028590Y-54305389D01*
X149866075Y-54062168D01*
X149659232Y-53855325D01*
X149484840Y-53738800D01*
X149659232Y-53622275D01*
X149866075Y-53415432D01*
X150028590Y-53172211D01*
X150140532Y-52901958D01*
X150197600Y-52615060D01*
X150197600Y-52322540D01*
X150140532Y-52035642D01*
X150028590Y-51765389D01*
X149866075Y-51522168D01*
X149659232Y-51315325D01*
X149416011Y-51152810D01*
X149145758Y-51040868D01*
X148858860Y-50983800D01*
X148566340Y-50983800D01*
X148279442Y-51040868D01*
X148009189Y-51152810D01*
X147765968Y-51315325D01*
X147559125Y-51522168D01*
X147442600Y-51696560D01*
X147326075Y-51522168D01*
X147119232Y-51315325D01*
X146876011Y-51152810D01*
X146605758Y-51040868D01*
X146318860Y-50983800D01*
X146026340Y-50983800D01*
X145739442Y-51040868D01*
X145469189Y-51152810D01*
X145225968Y-51315325D01*
X145094113Y-51447180D01*
X145072102Y-51374620D01*
X145013137Y-51264306D01*
X144933785Y-51167615D01*
X144837094Y-51088263D01*
X144726780Y-51029298D01*
X144607082Y-50992988D01*
X144482600Y-50980728D01*
X142782600Y-50980728D01*
X142658118Y-50992988D01*
X142538420Y-51029298D01*
X142428106Y-51088263D01*
X142331415Y-51167615D01*
X142252063Y-51264306D01*
X142193098Y-51374620D01*
X142156788Y-51494318D01*
X142144528Y-51618800D01*
X142144528Y-53318800D01*
X142156788Y-53443282D01*
X142193098Y-53562980D01*
X142252063Y-53673294D01*
X142331415Y-53769985D01*
X142428106Y-53849337D01*
X142538420Y-53908302D01*
X142614226Y-53931298D01*
X142437422Y-54127445D01*
X142288443Y-54377548D01*
X142191119Y-54651909D01*
X142311786Y-54881800D01*
X143505600Y-54881800D01*
X143505600Y-54861800D01*
X143759600Y-54861800D01*
X143759600Y-54881800D01*
X143779600Y-54881800D01*
X143779600Y-55135800D01*
X143759600Y-55135800D01*
X143759600Y-55155800D01*
X143505600Y-55155800D01*
X143505600Y-55135800D01*
X142311786Y-55135800D01*
X142191119Y-55365691D01*
X142288443Y-55640052D01*
X142437422Y-55890155D01*
X142632331Y-56106388D01*
X142865680Y-56280441D01*
X143128501Y-56405625D01*
X143275710Y-56450276D01*
X143328673Y-56422326D01*
X143292399Y-56458600D01*
X130138127Y-56458600D01*
X130100802Y-56454924D01*
X130063477Y-56458600D01*
X130063469Y-56458600D01*
X129951816Y-56469597D01*
X129808555Y-56513054D01*
X129676526Y-56583626D01*
X129560801Y-56678599D01*
X129537003Y-56707597D01*
X125427356Y-60817245D01*
X125356174Y-60746063D01*
X125186656Y-60632795D01*
X124998298Y-60554774D01*
X124931400Y-60541467D01*
X124931400Y-60498061D01*
X124891626Y-60298102D01*
X124813605Y-60109744D01*
X124700337Y-59940226D01*
X124556174Y-59796063D01*
X124386656Y-59682795D01*
X124198298Y-59604774D01*
X123998339Y-59565000D01*
X123794461Y-59565000D01*
X123594502Y-59604774D01*
X123406144Y-59682795D01*
X123236626Y-59796063D01*
X123096400Y-59936289D01*
X122956174Y-59796063D01*
X122786656Y-59682795D01*
X122598298Y-59604774D01*
X122398339Y-59565000D01*
X122194461Y-59565000D01*
X121994502Y-59604774D01*
X121806144Y-59682795D01*
X121636626Y-59796063D01*
X121492463Y-59940226D01*
X121379195Y-60109744D01*
X121301174Y-60298102D01*
X121261400Y-60498061D01*
X121261400Y-60541467D01*
X121194502Y-60554774D01*
X121006144Y-60632795D01*
X120836626Y-60746063D01*
X120692463Y-60890226D01*
X120579195Y-61059744D01*
X120501174Y-61248102D01*
X120461400Y-61448061D01*
X120461400Y-61651939D01*
X120501174Y-61851898D01*
X120579195Y-62040256D01*
X120692463Y-62209774D01*
X120836626Y-62353937D01*
X121006144Y-62467205D01*
X121194502Y-62545226D01*
X121394461Y-62585000D01*
X121598339Y-62585000D01*
X121798298Y-62545226D01*
X121986656Y-62467205D01*
X122156174Y-62353937D01*
X122296400Y-62213711D01*
X122436626Y-62353937D01*
X122606144Y-62467205D01*
X122794502Y-62545226D01*
X122994461Y-62585000D01*
X123198339Y-62585000D01*
X123398298Y-62545226D01*
X123586656Y-62467205D01*
X123756174Y-62353937D01*
X123896400Y-62213711D01*
X123963645Y-62280956D01*
X121364800Y-64879801D01*
X114365400Y-64879801D01*
X114365400Y-64826061D01*
X114325626Y-64626102D01*
X114247605Y-64437744D01*
X114134337Y-64268226D01*
X113990174Y-64124063D01*
X113820656Y-64010795D01*
X113632298Y-63932774D01*
X113432339Y-63893000D01*
X113228461Y-63893000D01*
X113028502Y-63932774D01*
X112840144Y-64010795D01*
X112670626Y-64124063D01*
X112526463Y-64268226D01*
X112413195Y-64437744D01*
X112335174Y-64626102D01*
X112321142Y-64696644D01*
X112139502Y-64732774D01*
X111951144Y-64810795D01*
X111781626Y-64924063D01*
X111637463Y-65068226D01*
X111524195Y-65237744D01*
X111446174Y-65426102D01*
X111432867Y-65493000D01*
X111348861Y-65493000D01*
X111148902Y-65532774D01*
X111020686Y-65585883D01*
X110971005Y-65465944D01*
X110857737Y-65296426D01*
X110713574Y-65152263D01*
X110544056Y-65038995D01*
X110355698Y-64960974D01*
X110155739Y-64921200D01*
X109951861Y-64921200D01*
X109751902Y-64960974D01*
X109563544Y-65038995D01*
X109394026Y-65152263D01*
X109249863Y-65296426D01*
X109136595Y-65465944D01*
X109058574Y-65654302D01*
X109018800Y-65854261D01*
X109018800Y-66058139D01*
X109058574Y-66258098D01*
X109136595Y-66446456D01*
X109249863Y-66615974D01*
X109394026Y-66760137D01*
X109563544Y-66873405D01*
X109751902Y-66951426D01*
X109951861Y-66991200D01*
X110155739Y-66991200D01*
X110355698Y-66951426D01*
X110483914Y-66898317D01*
X110533595Y-67018256D01*
X110646863Y-67187774D01*
X110791026Y-67331937D01*
X110960544Y-67445205D01*
X111148902Y-67523226D01*
X111348861Y-67563000D01*
X111552739Y-67563000D01*
X111752698Y-67523226D01*
X111941056Y-67445205D01*
X112110574Y-67331937D01*
X112143000Y-67299511D01*
X112143000Y-67429939D01*
X112182774Y-67629898D01*
X112260795Y-67818256D01*
X112374063Y-67987774D01*
X112518226Y-68131937D01*
X112687744Y-68245205D01*
X112876102Y-68323226D01*
X112954290Y-68338779D01*
X112952302Y-68339174D01*
X112763944Y-68417195D01*
X112594426Y-68530463D01*
X112450263Y-68674626D01*
X112336995Y-68844144D01*
X112258974Y-69032502D01*
X112219200Y-69232461D01*
X112219200Y-69436339D01*
X112258974Y-69636298D01*
X112336995Y-69824656D01*
X112450263Y-69994174D01*
X112594426Y-70138337D01*
X112763944Y-70251605D01*
X112952302Y-70329626D01*
X113152261Y-70369400D01*
X113356139Y-70369400D01*
X113556098Y-70329626D01*
X113744456Y-70251605D01*
X113913974Y-70138337D01*
X114058137Y-69994174D01*
X114171405Y-69824656D01*
X114249426Y-69636298D01*
X114289200Y-69436339D01*
X114289200Y-69232461D01*
X114249426Y-69032502D01*
X114171405Y-68844144D01*
X114058137Y-68674626D01*
X113913974Y-68530463D01*
X113744456Y-68417195D01*
X113556098Y-68339174D01*
X113477910Y-68323621D01*
X113479898Y-68323226D01*
X113668256Y-68245205D01*
X113837774Y-68131937D01*
X113881711Y-68088000D01*
X120090598Y-68088000D01*
X120036626Y-68124063D01*
X119892463Y-68268226D01*
X119779195Y-68437744D01*
X119701174Y-68626102D01*
X119661400Y-68826061D01*
X119661400Y-69029939D01*
X119701174Y-69229898D01*
X119779195Y-69418256D01*
X119892463Y-69587774D01*
X120036626Y-69731937D01*
X120206144Y-69845205D01*
X120394502Y-69923226D01*
X120594461Y-69963000D01*
X120798339Y-69963000D01*
X120998298Y-69923226D01*
X121186656Y-69845205D01*
X121356174Y-69731937D01*
X121500337Y-69587774D01*
X121613605Y-69418256D01*
X121691626Y-69229898D01*
X121731400Y-69029939D01*
X121731400Y-68826061D01*
X121691626Y-68626102D01*
X121613605Y-68437744D01*
X121500337Y-68268226D01*
X121356174Y-68124063D01*
X121302202Y-68088000D01*
X126202876Y-68088000D01*
X126240198Y-68091676D01*
X126277520Y-68088000D01*
X126277531Y-68088000D01*
X126389184Y-68077003D01*
X126532445Y-68033546D01*
X126664474Y-67962974D01*
X126780199Y-67868001D01*
X126804002Y-67838997D01*
X127382244Y-67260755D01*
X127449489Y-67328000D01*
X127309263Y-67468226D01*
X127195995Y-67637744D01*
X127117974Y-67826102D01*
X127078200Y-68026061D01*
X127078200Y-68229939D01*
X127117974Y-68429898D01*
X127195995Y-68618256D01*
X127309263Y-68787774D01*
X127453426Y-68931937D01*
X127622944Y-69045205D01*
X127811302Y-69123226D01*
X128011261Y-69163000D01*
X128073399Y-69163000D01*
X136274205Y-77363808D01*
X136297999Y-77392801D01*
X136326992Y-77416595D01*
X136326996Y-77416599D01*
X136389048Y-77467523D01*
X136413724Y-77487774D01*
X136545753Y-77558346D01*
X136689014Y-77601803D01*
X136800667Y-77612800D01*
X136800676Y-77612800D01*
X136837999Y-77616476D01*
X136875322Y-77612800D01*
X138335783Y-77612800D01*
X138330400Y-77639861D01*
X138330400Y-77843739D01*
X138370174Y-78043698D01*
X138448195Y-78232056D01*
X138561463Y-78401574D01*
X138705626Y-78545737D01*
X138875144Y-78659005D01*
X139063502Y-78737026D01*
X139263461Y-78776800D01*
X139467339Y-78776800D01*
X139667298Y-78737026D01*
X139855656Y-78659005D01*
X140025174Y-78545737D01*
X140069111Y-78501800D01*
X142859799Y-78501800D01*
X145220198Y-80862200D01*
X145093740Y-80862200D01*
X144806842Y-80919268D01*
X144536589Y-81031210D01*
X144293368Y-81193725D01*
X144086525Y-81400568D01*
X143970000Y-81574960D01*
X143853475Y-81400568D01*
X143646632Y-81193725D01*
X143403411Y-81031210D01*
X143133158Y-80919268D01*
X142846260Y-80862200D01*
X142553740Y-80862200D01*
X142266842Y-80919268D01*
X141996589Y-81031210D01*
X141753368Y-81193725D01*
X141546525Y-81400568D01*
X141430000Y-81574960D01*
X141313475Y-81400568D01*
X141106632Y-81193725D01*
X140863411Y-81031210D01*
X140593158Y-80919268D01*
X140306260Y-80862200D01*
X140013740Y-80862200D01*
X139726842Y-80919268D01*
X139456589Y-81031210D01*
X139213368Y-81193725D01*
X139006525Y-81400568D01*
X138890000Y-81574960D01*
X138773475Y-81400568D01*
X138566632Y-81193725D01*
X138323411Y-81031210D01*
X138053158Y-80919268D01*
X137766260Y-80862200D01*
X137473740Y-80862200D01*
X137186842Y-80919268D01*
X136916589Y-81031210D01*
X136673368Y-81193725D01*
X136466525Y-81400568D01*
X136350000Y-81574960D01*
X136233475Y-81400568D01*
X136026632Y-81193725D01*
X135840000Y-81069022D01*
X135840000Y-78268522D01*
X135843676Y-78231199D01*
X135840000Y-78193876D01*
X135840000Y-78193867D01*
X135829003Y-78082214D01*
X135785546Y-77938953D01*
X135714974Y-77806924D01*
X135620001Y-77691199D01*
X135591003Y-77667401D01*
X130011800Y-72088199D01*
X130011800Y-72026061D01*
X129972026Y-71826102D01*
X129894005Y-71637744D01*
X129780737Y-71468226D01*
X129636574Y-71324063D01*
X129467056Y-71210795D01*
X129278698Y-71132774D01*
X129123504Y-71101904D01*
X129108426Y-71026102D01*
X129030405Y-70837744D01*
X128917137Y-70668226D01*
X128772974Y-70524063D01*
X128603456Y-70410795D01*
X128415098Y-70332774D01*
X128215139Y-70293000D01*
X128011261Y-70293000D01*
X127811302Y-70332774D01*
X127622944Y-70410795D01*
X127453426Y-70524063D01*
X127309263Y-70668226D01*
X127195995Y-70837744D01*
X127117974Y-71026102D01*
X127078200Y-71226061D01*
X127078200Y-71429939D01*
X127117974Y-71629898D01*
X127195995Y-71818256D01*
X127309263Y-71987774D01*
X127353201Y-72031712D01*
X127353200Y-77883077D01*
X127349524Y-77920400D01*
X127353200Y-77957722D01*
X127353200Y-77957732D01*
X127364197Y-78069385D01*
X127397213Y-78178226D01*
X127407654Y-78212646D01*
X127478226Y-78344676D01*
X127507368Y-78380185D01*
X127573199Y-78460401D01*
X127602203Y-78484204D01*
X129977126Y-80859128D01*
X129150000Y-80859128D01*
X129025518Y-80871388D01*
X128905820Y-80907698D01*
X128795506Y-80966663D01*
X128698815Y-81046015D01*
X128619463Y-81142706D01*
X128560498Y-81253020D01*
X128524188Y-81372718D01*
X128511928Y-81497200D01*
X128511928Y-82762201D01*
X126366005Y-82762201D01*
X120690000Y-77086197D01*
X120690000Y-77081061D01*
X120650226Y-76881102D01*
X120572205Y-76692744D01*
X120458937Y-76523226D01*
X120314774Y-76379063D01*
X120145256Y-76265795D01*
X120080400Y-76238931D01*
X120080400Y-76217461D01*
X120040626Y-76017502D01*
X119962605Y-75829144D01*
X119849337Y-75659626D01*
X119705174Y-75515463D01*
X119535656Y-75402195D01*
X119347298Y-75324174D01*
X119147339Y-75284400D01*
X118943461Y-75284400D01*
X118743502Y-75324174D01*
X118555144Y-75402195D01*
X118385626Y-75515463D01*
X118241463Y-75659626D01*
X118128195Y-75829144D01*
X118050174Y-76017502D01*
X118010400Y-76217461D01*
X118010400Y-76421339D01*
X118050174Y-76621298D01*
X118128195Y-76809656D01*
X118241463Y-76979174D01*
X118385626Y-77123337D01*
X118555144Y-77236605D01*
X118620000Y-77263469D01*
X118620000Y-77284939D01*
X118659774Y-77484898D01*
X118737795Y-77673256D01*
X118851063Y-77842774D01*
X118995226Y-77986937D01*
X119164744Y-78100205D01*
X119353102Y-78178226D01*
X119553061Y-78218000D01*
X119672201Y-78218000D01*
X120344645Y-78890444D01*
X120273463Y-78961626D01*
X120160195Y-79131144D01*
X120082174Y-79319502D01*
X120042400Y-79519461D01*
X120042400Y-79723339D01*
X120082174Y-79923298D01*
X120160195Y-80111656D01*
X120256161Y-80255280D01*
X120209576Y-80274576D01*
X120112200Y-80339641D01*
X120014824Y-80274576D01*
X119808267Y-80189017D01*
X119588988Y-80145400D01*
X119365412Y-80145400D01*
X119146133Y-80189017D01*
X118939576Y-80274576D01*
X118842200Y-80339641D01*
X118744824Y-80274576D01*
X118538267Y-80189017D01*
X118318988Y-80145400D01*
X118095412Y-80145400D01*
X117876133Y-80189017D01*
X117669576Y-80274576D01*
X117572200Y-80339641D01*
X117474824Y-80274576D01*
X117268267Y-80189017D01*
X117048988Y-80145400D01*
X116825412Y-80145400D01*
X116606133Y-80189017D01*
X116494426Y-80235288D01*
X116411380Y-80190898D01*
X116291682Y-80154588D01*
X116167200Y-80142328D01*
X115167200Y-80142328D01*
X115042718Y-80154588D01*
X114923020Y-80190898D01*
X114812706Y-80249863D01*
X114716015Y-80329215D01*
X114636663Y-80425906D01*
X114577698Y-80536220D01*
X114541388Y-80655918D01*
X114529128Y-80780400D01*
X114529128Y-81780400D01*
X114541388Y-81904882D01*
X114577698Y-82024580D01*
X114622088Y-82107626D01*
X114575817Y-82219333D01*
X114532200Y-82438612D01*
X114532200Y-82662188D01*
X114575817Y-82881467D01*
X114661376Y-83088024D01*
X114785588Y-83273920D01*
X114943680Y-83432012D01*
X115129576Y-83556224D01*
X115336133Y-83641783D01*
X115555412Y-83685400D01*
X115778988Y-83685400D01*
X115998267Y-83641783D01*
X116204824Y-83556224D01*
X116306858Y-83488047D01*
X116376994Y-83537523D01*
X116580336Y-83627846D01*
X116635326Y-83644519D01*
X116810200Y-83518354D01*
X116810200Y-82677400D01*
X116799174Y-82677400D01*
X116802200Y-82662188D01*
X116802200Y-82438612D01*
X116799174Y-82423400D01*
X116810200Y-82423400D01*
X116810200Y-82412374D01*
X116825412Y-82415400D01*
X117048988Y-82415400D01*
X117064200Y-82412374D01*
X117064200Y-82423400D01*
X117075226Y-82423400D01*
X117072200Y-82438612D01*
X117072200Y-82662188D01*
X117075226Y-82677400D01*
X117064200Y-82677400D01*
X117064200Y-83518354D01*
X117239074Y-83644519D01*
X117294064Y-83627846D01*
X117497406Y-83537523D01*
X117567542Y-83488047D01*
X117669576Y-83556224D01*
X117876133Y-83641783D01*
X118095412Y-83685400D01*
X118318988Y-83685400D01*
X118538267Y-83641783D01*
X118744824Y-83556224D01*
X118842200Y-83491159D01*
X118939576Y-83556224D01*
X119146133Y-83641783D01*
X119365412Y-83685400D01*
X119588988Y-83685400D01*
X119808267Y-83641783D01*
X120014824Y-83556224D01*
X120112200Y-83491159D01*
X120209576Y-83556224D01*
X120416133Y-83641783D01*
X120635412Y-83685400D01*
X120858988Y-83685400D01*
X121078267Y-83641783D01*
X121284824Y-83556224D01*
X121470720Y-83432012D01*
X121628812Y-83273920D01*
X121753024Y-83088024D01*
X121838583Y-82881467D01*
X121882200Y-82662188D01*
X121882200Y-82438612D01*
X121838583Y-82219333D01*
X121753024Y-82012776D01*
X121687959Y-81915400D01*
X121753024Y-81818024D01*
X121838583Y-81611467D01*
X121882200Y-81392188D01*
X121882200Y-81168612D01*
X121838583Y-80949333D01*
X121753024Y-80742776D01*
X121628812Y-80556880D01*
X121593361Y-80521429D01*
X121737174Y-80425337D01*
X121808356Y-80354155D01*
X125444200Y-83990000D01*
X109727327Y-83990000D01*
X109800918Y-83879863D01*
X109924168Y-83582312D01*
X109987000Y-83266433D01*
X109987000Y-82944367D01*
X109924168Y-82628488D01*
X109800918Y-82330937D01*
X109621987Y-82063148D01*
X109394252Y-81835413D01*
X109126463Y-81656482D01*
X108828912Y-81533232D01*
X108513033Y-81470400D01*
X108190967Y-81470400D01*
X107875088Y-81533232D01*
X107577537Y-81656482D01*
X107309748Y-81835413D01*
X107082013Y-82063148D01*
X106903082Y-82330937D01*
X106779832Y-82628488D01*
X106717000Y-82944367D01*
X106717000Y-83266433D01*
X106779832Y-83582312D01*
X106903082Y-83879863D01*
X106976673Y-83990000D01*
X103227327Y-83990000D01*
X103300918Y-83879863D01*
X103424168Y-83582312D01*
X103487000Y-83266433D01*
X103487000Y-82944367D01*
X103424168Y-82628488D01*
X103300918Y-82330937D01*
X103121987Y-82063148D01*
X102894252Y-81835413D01*
X102626463Y-81656482D01*
X102328912Y-81533232D01*
X102013033Y-81470400D01*
X101690967Y-81470400D01*
X101375088Y-81533232D01*
X101077537Y-81656482D01*
X100809748Y-81835413D01*
X100582013Y-82063148D01*
X100403082Y-82330937D01*
X100279832Y-82628488D01*
X100217000Y-82944367D01*
X100217000Y-83266433D01*
X100279832Y-83582312D01*
X100403082Y-83879863D01*
X100476673Y-83990000D01*
X85830000Y-83990000D01*
X85830000Y-80429872D01*
X86935000Y-80429872D01*
X86935000Y-80870128D01*
X87020890Y-81301925D01*
X87189369Y-81708669D01*
X87433962Y-82074729D01*
X87745271Y-82386038D01*
X88111331Y-82630631D01*
X88518075Y-82799110D01*
X88949872Y-82885000D01*
X89390128Y-82885000D01*
X89821925Y-82799110D01*
X90228669Y-82630631D01*
X90594729Y-82386038D01*
X90906038Y-82074729D01*
X91150631Y-81708669D01*
X91319110Y-81301925D01*
X91405000Y-80870128D01*
X91405000Y-80429872D01*
X91319110Y-79998075D01*
X91150631Y-79591331D01*
X90906038Y-79225271D01*
X90594729Y-78913962D01*
X90228669Y-78669369D01*
X89821925Y-78500890D01*
X89537766Y-78444367D01*
X100217000Y-78444367D01*
X100217000Y-78766433D01*
X100279832Y-79082312D01*
X100403082Y-79379863D01*
X100582013Y-79647652D01*
X100809748Y-79875387D01*
X101077537Y-80054318D01*
X101375088Y-80177568D01*
X101690967Y-80240400D01*
X102013033Y-80240400D01*
X102328912Y-80177568D01*
X102626463Y-80054318D01*
X102894252Y-79875387D01*
X103121987Y-79647652D01*
X103300918Y-79379863D01*
X103424168Y-79082312D01*
X103487000Y-78766433D01*
X103487000Y-78444367D01*
X106717000Y-78444367D01*
X106717000Y-78766433D01*
X106779832Y-79082312D01*
X106903082Y-79379863D01*
X107082013Y-79647652D01*
X107309748Y-79875387D01*
X107577537Y-80054318D01*
X107875088Y-80177568D01*
X108190967Y-80240400D01*
X108513033Y-80240400D01*
X108828912Y-80177568D01*
X109126463Y-80054318D01*
X109394252Y-79875387D01*
X109621987Y-79647652D01*
X109800918Y-79379863D01*
X109924168Y-79082312D01*
X109987000Y-78766433D01*
X109987000Y-78444367D01*
X109924168Y-78128488D01*
X109800918Y-77830937D01*
X109621987Y-77563148D01*
X109394252Y-77335413D01*
X109126463Y-77156482D01*
X108828912Y-77033232D01*
X108513033Y-76970400D01*
X108190967Y-76970400D01*
X107875088Y-77033232D01*
X107577537Y-77156482D01*
X107309748Y-77335413D01*
X107082013Y-77563148D01*
X106903082Y-77830937D01*
X106779832Y-78128488D01*
X106717000Y-78444367D01*
X103487000Y-78444367D01*
X103424168Y-78128488D01*
X103300918Y-77830937D01*
X103121987Y-77563148D01*
X102894252Y-77335413D01*
X102626463Y-77156482D01*
X102328912Y-77033232D01*
X102013033Y-76970400D01*
X101690967Y-76970400D01*
X101375088Y-77033232D01*
X101077537Y-77156482D01*
X100809748Y-77335413D01*
X100582013Y-77563148D01*
X100403082Y-77830937D01*
X100279832Y-78128488D01*
X100217000Y-78444367D01*
X89537766Y-78444367D01*
X89390128Y-78415000D01*
X88949872Y-78415000D01*
X88518075Y-78500890D01*
X88111331Y-78669369D01*
X87745271Y-78913962D01*
X87433962Y-79225271D01*
X87189369Y-79591331D01*
X87020890Y-79998075D01*
X86935000Y-80429872D01*
X85830000Y-80429872D01*
X85830000Y-75099861D01*
X113961400Y-75099861D01*
X113961400Y-75303739D01*
X114001174Y-75503698D01*
X114079195Y-75692056D01*
X114192463Y-75861574D01*
X114336626Y-76005737D01*
X114506144Y-76119005D01*
X114694502Y-76197026D01*
X114894461Y-76236800D01*
X115098339Y-76236800D01*
X115298298Y-76197026D01*
X115486656Y-76119005D01*
X115656174Y-76005737D01*
X115800337Y-75861574D01*
X115913605Y-75692056D01*
X115991626Y-75503698D01*
X116031400Y-75303739D01*
X116031400Y-75099861D01*
X115991626Y-74899902D01*
X115913605Y-74711544D01*
X115800337Y-74542026D01*
X115656174Y-74397863D01*
X115486656Y-74284595D01*
X115298298Y-74206574D01*
X115098339Y-74166800D01*
X114894461Y-74166800D01*
X114694502Y-74206574D01*
X114506144Y-74284595D01*
X114336626Y-74397863D01*
X114192463Y-74542026D01*
X114079195Y-74711544D01*
X114001174Y-74899902D01*
X113961400Y-75099861D01*
X85830000Y-75099861D01*
X85830000Y-71781759D01*
X85857599Y-71796511D01*
X86090398Y-71867130D01*
X86271835Y-71885000D01*
X87093165Y-71885000D01*
X87274602Y-71867130D01*
X87462933Y-71810000D01*
X93181928Y-71810000D01*
X93194188Y-71934482D01*
X93230498Y-72054180D01*
X93289463Y-72164494D01*
X93368815Y-72261185D01*
X93465506Y-72340537D01*
X93575820Y-72399502D01*
X93695518Y-72435812D01*
X93820000Y-72448072D01*
X94384250Y-72445000D01*
X94543000Y-72286250D01*
X94543000Y-71087000D01*
X94797000Y-71087000D01*
X94797000Y-72286250D01*
X94955750Y-72445000D01*
X95520000Y-72448072D01*
X95644482Y-72435812D01*
X95764180Y-72399502D01*
X95874494Y-72340537D01*
X95971185Y-72261185D01*
X96050537Y-72164494D01*
X96109502Y-72054180D01*
X96145812Y-71934482D01*
X96158072Y-71810000D01*
X96155000Y-71245750D01*
X95996250Y-71087000D01*
X94797000Y-71087000D01*
X94543000Y-71087000D01*
X93343750Y-71087000D01*
X93185000Y-71245750D01*
X93181928Y-71810000D01*
X87462933Y-71810000D01*
X87507401Y-71796511D01*
X87721949Y-71681833D01*
X87910002Y-71527502D01*
X88064333Y-71339449D01*
X88179011Y-71124901D01*
X88249630Y-70892102D01*
X88260818Y-70778507D01*
X88282406Y-70849674D01*
X88392443Y-71055536D01*
X88540526Y-71235975D01*
X88720965Y-71384058D01*
X88926827Y-71494094D01*
X89150201Y-71561853D01*
X89382500Y-71584733D01*
X89614800Y-71561853D01*
X89838174Y-71494094D01*
X90044036Y-71384058D01*
X90224475Y-71235975D01*
X90372558Y-71055536D01*
X90482594Y-70849674D01*
X90550353Y-70626300D01*
X90567500Y-70452206D01*
X90567500Y-70110000D01*
X93181928Y-70110000D01*
X93185000Y-70674250D01*
X93343750Y-70833000D01*
X94543000Y-70833000D01*
X94543000Y-70813000D01*
X94797000Y-70813000D01*
X94797000Y-70833000D01*
X95996250Y-70833000D01*
X96155000Y-70674250D01*
X96158072Y-70110000D01*
X96145812Y-69985518D01*
X96109502Y-69865820D01*
X96050537Y-69755506D01*
X95971185Y-69658815D01*
X95874494Y-69579463D01*
X95764180Y-69520498D01*
X95691620Y-69498487D01*
X95823475Y-69366632D01*
X95985990Y-69123411D01*
X96097932Y-68853158D01*
X96155000Y-68566260D01*
X96155000Y-68273740D01*
X96097932Y-67986842D01*
X95985990Y-67716589D01*
X95823475Y-67473368D01*
X95616632Y-67266525D01*
X95442240Y-67150000D01*
X95616632Y-67033475D01*
X95823475Y-66826632D01*
X95985990Y-66583411D01*
X96097932Y-66313158D01*
X96155000Y-66026260D01*
X96155000Y-65733740D01*
X96097932Y-65446842D01*
X95985990Y-65176589D01*
X95823475Y-64933368D01*
X95616632Y-64726525D01*
X95442240Y-64610000D01*
X95616632Y-64493475D01*
X95823475Y-64286632D01*
X95985990Y-64043411D01*
X96097932Y-63773158D01*
X96155000Y-63486260D01*
X96155000Y-63193740D01*
X96097932Y-62906842D01*
X95985990Y-62636589D01*
X95823475Y-62393368D01*
X95616632Y-62186525D01*
X95373411Y-62024010D01*
X95103158Y-61912068D01*
X94816260Y-61855000D01*
X94523740Y-61855000D01*
X94236842Y-61912068D01*
X93966589Y-62024010D01*
X93723368Y-62186525D01*
X93516525Y-62393368D01*
X93354010Y-62636589D01*
X93242068Y-62906842D01*
X93185000Y-63193740D01*
X93185000Y-63486260D01*
X93242068Y-63773158D01*
X93354010Y-64043411D01*
X93516525Y-64286632D01*
X93723368Y-64493475D01*
X93897760Y-64610000D01*
X93723368Y-64726525D01*
X93516525Y-64933368D01*
X93354010Y-65176589D01*
X93242068Y-65446842D01*
X93185000Y-65733740D01*
X93185000Y-66026260D01*
X93242068Y-66313158D01*
X93354010Y-66583411D01*
X93516525Y-66826632D01*
X93723368Y-67033475D01*
X93897760Y-67150000D01*
X93723368Y-67266525D01*
X93516525Y-67473368D01*
X93354010Y-67716589D01*
X93242068Y-67986842D01*
X93185000Y-68273740D01*
X93185000Y-68566260D01*
X93242068Y-68853158D01*
X93354010Y-69123411D01*
X93516525Y-69366632D01*
X93648380Y-69498487D01*
X93575820Y-69520498D01*
X93465506Y-69579463D01*
X93368815Y-69658815D01*
X93289463Y-69755506D01*
X93230498Y-69865820D01*
X93194188Y-69985518D01*
X93181928Y-70110000D01*
X90567500Y-70110000D01*
X90567500Y-69435793D01*
X90550353Y-69261700D01*
X90482594Y-69038326D01*
X90372558Y-68832464D01*
X90224475Y-68652025D01*
X90044035Y-68503942D01*
X89838173Y-68393906D01*
X89614799Y-68326147D01*
X89382500Y-68303267D01*
X89150200Y-68326147D01*
X88926826Y-68393906D01*
X88720964Y-68503942D01*
X88540525Y-68652025D01*
X88392442Y-68832465D01*
X88282406Y-69038327D01*
X88214647Y-69261701D01*
X88197500Y-69435794D01*
X88197500Y-70236049D01*
X88179011Y-70175099D01*
X88064333Y-69960551D01*
X87910002Y-69772498D01*
X87721949Y-69618167D01*
X87507401Y-69503489D01*
X87274602Y-69432870D01*
X87093165Y-69415000D01*
X86271835Y-69415000D01*
X86090398Y-69432870D01*
X85857599Y-69503489D01*
X85830000Y-69518241D01*
X85830000Y-66541794D01*
X86165500Y-66541794D01*
X86165500Y-67758207D01*
X86182647Y-67932300D01*
X86250406Y-68155674D01*
X86360443Y-68361536D01*
X86508526Y-68541975D01*
X86688965Y-68690058D01*
X86894827Y-68800094D01*
X87118201Y-68867853D01*
X87350500Y-68890733D01*
X87582800Y-68867853D01*
X87806174Y-68800094D01*
X88012036Y-68690058D01*
X88192475Y-68541975D01*
X88340558Y-68361536D01*
X88450594Y-68155674D01*
X88518353Y-67932300D01*
X88535500Y-67758207D01*
X88535500Y-66541793D01*
X88518353Y-66367700D01*
X88450594Y-66144326D01*
X88340558Y-65938464D01*
X88192475Y-65758025D01*
X88012035Y-65609942D01*
X87806173Y-65499906D01*
X87582799Y-65432147D01*
X87350500Y-65409267D01*
X87118200Y-65432147D01*
X86894826Y-65499906D01*
X86688964Y-65609942D01*
X86508525Y-65758025D01*
X86360442Y-65938465D01*
X86250406Y-66144327D01*
X86182647Y-66367701D01*
X86165500Y-66541794D01*
X85830000Y-66541794D01*
X85830000Y-64781759D01*
X85857599Y-64796511D01*
X86090398Y-64867130D01*
X86271835Y-64885000D01*
X87093165Y-64885000D01*
X87274602Y-64867130D01*
X87507401Y-64796511D01*
X87721949Y-64681833D01*
X87910002Y-64527502D01*
X88064333Y-64339449D01*
X88179011Y-64124901D01*
X88197500Y-64063951D01*
X88197500Y-64864207D01*
X88214647Y-65038300D01*
X88282406Y-65261674D01*
X88392443Y-65467536D01*
X88540526Y-65647975D01*
X88720965Y-65796058D01*
X88926827Y-65906094D01*
X89150201Y-65973853D01*
X89382500Y-65996733D01*
X89614800Y-65973853D01*
X89838174Y-65906094D01*
X90044036Y-65796058D01*
X90224475Y-65647975D01*
X90372558Y-65467536D01*
X90482594Y-65261674D01*
X90550353Y-65038300D01*
X90567500Y-64864206D01*
X90567500Y-63847793D01*
X90550353Y-63673700D01*
X90482594Y-63450326D01*
X90372558Y-63244464D01*
X90224475Y-63064025D01*
X90044035Y-62915942D01*
X89838173Y-62805906D01*
X89614799Y-62738147D01*
X89382500Y-62715267D01*
X89150200Y-62738147D01*
X88926826Y-62805906D01*
X88720964Y-62915942D01*
X88540525Y-63064025D01*
X88392442Y-63244465D01*
X88282406Y-63450327D01*
X88260818Y-63521493D01*
X88249630Y-63407898D01*
X88179011Y-63175099D01*
X88064333Y-62960551D01*
X87910002Y-62772498D01*
X87721949Y-62618167D01*
X87507401Y-62503489D01*
X87274602Y-62432870D01*
X87093165Y-62415000D01*
X86271835Y-62415000D01*
X86090398Y-62432870D01*
X85857599Y-62503489D01*
X85830000Y-62518241D01*
X85830000Y-60498061D01*
X115661400Y-60498061D01*
X115661400Y-60701939D01*
X115701174Y-60901898D01*
X115779195Y-61090256D01*
X115892463Y-61259774D01*
X116036626Y-61403937D01*
X116206144Y-61517205D01*
X116394502Y-61595226D01*
X116461400Y-61608533D01*
X116461400Y-61651939D01*
X116501174Y-61851898D01*
X116579195Y-62040256D01*
X116692463Y-62209774D01*
X116836626Y-62353937D01*
X117006144Y-62467205D01*
X117194502Y-62545226D01*
X117394461Y-62585000D01*
X117598339Y-62585000D01*
X117798298Y-62545226D01*
X117986656Y-62467205D01*
X118156174Y-62353937D01*
X118300337Y-62209774D01*
X118413605Y-62040256D01*
X118491626Y-61851898D01*
X118531400Y-61651939D01*
X118531400Y-61448061D01*
X118491626Y-61248102D01*
X118413605Y-61059744D01*
X118300337Y-60890226D01*
X118156174Y-60746063D01*
X117986656Y-60632795D01*
X117798298Y-60554774D01*
X117731400Y-60541467D01*
X117731400Y-60498061D01*
X117691626Y-60298102D01*
X117613605Y-60109744D01*
X117500337Y-59940226D01*
X117356174Y-59796063D01*
X117186656Y-59682795D01*
X116998298Y-59604774D01*
X116798339Y-59565000D01*
X116594461Y-59565000D01*
X116394502Y-59604774D01*
X116206144Y-59682795D01*
X116036626Y-59796063D01*
X115892463Y-59940226D01*
X115779195Y-60109744D01*
X115701174Y-60298102D01*
X115661400Y-60498061D01*
X85830000Y-60498061D01*
X85830000Y-55429872D01*
X86935000Y-55429872D01*
X86935000Y-55870128D01*
X87020890Y-56301925D01*
X87189369Y-56708669D01*
X87433962Y-57074729D01*
X87745271Y-57386038D01*
X88111331Y-57630631D01*
X88518075Y-57799110D01*
X88949872Y-57885000D01*
X89390128Y-57885000D01*
X89821925Y-57799110D01*
X90228669Y-57630631D01*
X90594729Y-57386038D01*
X90906038Y-57074729D01*
X91150631Y-56708669D01*
X91319110Y-56301925D01*
X91405000Y-55870128D01*
X91405000Y-55429872D01*
X91319110Y-54998075D01*
X91165597Y-54627461D01*
X106859800Y-54627461D01*
X106859800Y-54831339D01*
X106899574Y-55031298D01*
X106977595Y-55219656D01*
X107090863Y-55389174D01*
X107235026Y-55533337D01*
X107404544Y-55646605D01*
X107592902Y-55724626D01*
X107792861Y-55764400D01*
X107996739Y-55764400D01*
X108196698Y-55724626D01*
X108385056Y-55646605D01*
X108554574Y-55533337D01*
X108698737Y-55389174D01*
X108812005Y-55219656D01*
X108890026Y-55031298D01*
X108929800Y-54831339D01*
X108929800Y-54627461D01*
X108890026Y-54427502D01*
X108812005Y-54239144D01*
X108698737Y-54069626D01*
X108554574Y-53925463D01*
X108385056Y-53812195D01*
X108196698Y-53734174D01*
X107996739Y-53694400D01*
X107792861Y-53694400D01*
X107592902Y-53734174D01*
X107404544Y-53812195D01*
X107235026Y-53925463D01*
X107090863Y-54069626D01*
X106977595Y-54239144D01*
X106899574Y-54427502D01*
X106859800Y-54627461D01*
X91165597Y-54627461D01*
X91150631Y-54591331D01*
X90906038Y-54225271D01*
X90594729Y-53913962D01*
X90228669Y-53669369D01*
X89821925Y-53500890D01*
X89390128Y-53415000D01*
X88949872Y-53415000D01*
X88518075Y-53500890D01*
X88111331Y-53669369D01*
X87745271Y-53913962D01*
X87433962Y-54225271D01*
X87189369Y-54591331D01*
X87020890Y-54998075D01*
X86935000Y-55429872D01*
X85830000Y-55429872D01*
X85830000Y-52712408D01*
X108263000Y-52712408D01*
X108263000Y-52987592D01*
X108316686Y-53257490D01*
X108421995Y-53511727D01*
X108574880Y-53740535D01*
X108769465Y-53935120D01*
X108998273Y-54088005D01*
X109252510Y-54193314D01*
X109522408Y-54247000D01*
X109797592Y-54247000D01*
X110067490Y-54193314D01*
X110321727Y-54088005D01*
X110550535Y-53935120D01*
X110745120Y-53740535D01*
X110898005Y-53511727D01*
X110930000Y-53434485D01*
X110961995Y-53511727D01*
X111114880Y-53740535D01*
X111309465Y-53935120D01*
X111538273Y-54088005D01*
X111792510Y-54193314D01*
X112062408Y-54247000D01*
X112337592Y-54247000D01*
X112607490Y-54193314D01*
X112861727Y-54088005D01*
X113090535Y-53935120D01*
X113285120Y-53740535D01*
X113438005Y-53511727D01*
X113470000Y-53434485D01*
X113501995Y-53511727D01*
X113654880Y-53740535D01*
X113849465Y-53935120D01*
X114078273Y-54088005D01*
X114332510Y-54193314D01*
X114602408Y-54247000D01*
X114877592Y-54247000D01*
X115147490Y-54193314D01*
X115401727Y-54088005D01*
X115630535Y-53935120D01*
X115825120Y-53740535D01*
X115978005Y-53511727D01*
X116010000Y-53434485D01*
X116041995Y-53511727D01*
X116194880Y-53740535D01*
X116389465Y-53935120D01*
X116618273Y-54088005D01*
X116872510Y-54193314D01*
X117142408Y-54247000D01*
X117417592Y-54247000D01*
X117687490Y-54193314D01*
X117941727Y-54088005D01*
X118170535Y-53935120D01*
X118365120Y-53740535D01*
X118398891Y-53689993D01*
X124347000Y-53689993D01*
X124347000Y-54041607D01*
X124415596Y-54386465D01*
X124550153Y-54711315D01*
X124745500Y-55003671D01*
X124994129Y-55252300D01*
X125286485Y-55447647D01*
X125611335Y-55582204D01*
X125956193Y-55650800D01*
X126307807Y-55650800D01*
X126652665Y-55582204D01*
X126977515Y-55447647D01*
X127269871Y-55252300D01*
X127518500Y-55003671D01*
X127713847Y-54711315D01*
X127848404Y-54386465D01*
X127917000Y-54041607D01*
X127917000Y-53689993D01*
X129247000Y-53689993D01*
X129247000Y-54041607D01*
X129315596Y-54386465D01*
X129450153Y-54711315D01*
X129645500Y-55003671D01*
X129894129Y-55252300D01*
X130186485Y-55447647D01*
X130511335Y-55582204D01*
X130856193Y-55650800D01*
X131207807Y-55650800D01*
X131552665Y-55582204D01*
X131877515Y-55447647D01*
X132169871Y-55252300D01*
X132418500Y-55003671D01*
X132613847Y-54711315D01*
X132748404Y-54386465D01*
X132817000Y-54041607D01*
X132817000Y-53689993D01*
X132748404Y-53345135D01*
X132613847Y-53020285D01*
X132418500Y-52727929D01*
X132169871Y-52479300D01*
X131877515Y-52283953D01*
X131552665Y-52149396D01*
X131207807Y-52080800D01*
X130856193Y-52080800D01*
X130511335Y-52149396D01*
X130186485Y-52283953D01*
X129894129Y-52479300D01*
X129645500Y-52727929D01*
X129450153Y-53020285D01*
X129315596Y-53345135D01*
X129247000Y-53689993D01*
X127917000Y-53689993D01*
X127848404Y-53345135D01*
X127713847Y-53020285D01*
X127518500Y-52727929D01*
X127269871Y-52479300D01*
X126977515Y-52283953D01*
X126652665Y-52149396D01*
X126307807Y-52080800D01*
X125956193Y-52080800D01*
X125611335Y-52149396D01*
X125286485Y-52283953D01*
X124994129Y-52479300D01*
X124745500Y-52727929D01*
X124550153Y-53020285D01*
X124415596Y-53345135D01*
X124347000Y-53689993D01*
X118398891Y-53689993D01*
X118518005Y-53511727D01*
X118623314Y-53257490D01*
X118677000Y-52987592D01*
X118677000Y-52712408D01*
X118623314Y-52442510D01*
X118518005Y-52188273D01*
X118365120Y-51959465D01*
X118170535Y-51764880D01*
X117941727Y-51611995D01*
X117687490Y-51506686D01*
X117417592Y-51453000D01*
X117142408Y-51453000D01*
X116872510Y-51506686D01*
X116618273Y-51611995D01*
X116389465Y-51764880D01*
X116194880Y-51959465D01*
X116041995Y-52188273D01*
X116010000Y-52265515D01*
X115978005Y-52188273D01*
X115825120Y-51959465D01*
X115630535Y-51764880D01*
X115401727Y-51611995D01*
X115147490Y-51506686D01*
X114877592Y-51453000D01*
X114602408Y-51453000D01*
X114332510Y-51506686D01*
X114078273Y-51611995D01*
X113849465Y-51764880D01*
X113654880Y-51959465D01*
X113501995Y-52188273D01*
X113470000Y-52265515D01*
X113438005Y-52188273D01*
X113285120Y-51959465D01*
X113090535Y-51764880D01*
X112861727Y-51611995D01*
X112607490Y-51506686D01*
X112337592Y-51453000D01*
X112062408Y-51453000D01*
X111792510Y-51506686D01*
X111538273Y-51611995D01*
X111309465Y-51764880D01*
X111114880Y-51959465D01*
X110961995Y-52188273D01*
X110930000Y-52265515D01*
X110898005Y-52188273D01*
X110745120Y-51959465D01*
X110550535Y-51764880D01*
X110321727Y-51611995D01*
X110067490Y-51506686D01*
X109797592Y-51453000D01*
X109522408Y-51453000D01*
X109252510Y-51506686D01*
X108998273Y-51611995D01*
X108769465Y-51764880D01*
X108574880Y-51959465D01*
X108421995Y-52188273D01*
X108316686Y-52442510D01*
X108263000Y-52712408D01*
X85830000Y-52712408D01*
X85830000Y-50310000D01*
X164510000Y-50310000D01*
X164510001Y-68962531D01*
G37*
G04 #@! TD.AperFunction*
M02*
